<svg width="157" height="33" viewBox="0 0 157 33" fill="none" xmlns="http://www.w3.org/2000/svg">
<g clip-path="url(#clip0)">
<path d="M54.3226 7.22549H58.6068V26.0057H54.3226V18.0385H47.1276V26.0057H42.844V7.22549H47.1276V14.407H54.3226V7.22549ZM75.0562 25.5181C74.3603 25.7168 73.4633 25.9019 72.3647 26.0736C71.2664 26.2451 70.1127 26.3313 68.9042 26.3313C67.6778 26.3313 66.6569 26.1685 65.8428 25.8434C65.0279 25.5181 64.3826 25.0618 63.9067 24.4748C63.4305 23.8877 63.0918 23.1873 62.8905 22.3744C62.6888 21.561 62.5886 20.6674 62.5886 19.6914V11.7514H66.6803V19.2039C66.6803 20.5046 66.8541 21.4444 67.2022 22.0222C67.5495 22.6006 68.1997 22.8895 69.1518 22.8895C69.4446 22.8895 69.7561 22.8759 70.0857 22.849C70.3794 22.8258 70.6724 22.7941 70.9643 22.7539V11.7514H75.0562V25.5181ZM92.3291 18.8783C92.3291 20.0168 92.1597 21.0465 91.821 21.9679C91.4819 22.8895 90.9925 23.6752 90.3517 24.3253C89.7105 24.9759 88.924 25.4773 87.9898 25.8296C87.0562 26.1818 85.9942 26.3582 84.8042 26.3582C84.2863 26.3571 83.7687 26.3344 83.2528 26.2902C82.7204 26.2457 82.1893 26.187 81.6601 26.1141C81.1583 26.0454 80.6591 25.9595 80.1633 25.8567C79.738 25.7703 79.3165 25.6663 78.9 25.545V7.26511L82.9917 6.61475V12.0765C83.4514 11.8771 83.9298 11.7227 84.42 11.6155C84.914 11.5074 85.445 11.453 86.0126 11.453C87.0377 11.453 87.9438 11.6291 88.7312 11.9816C89.5183 12.3338 90.1773 12.8353 90.7086 13.4854C91.2396 14.136 91.6422 14.9177 91.9168 15.8297C92.1914 16.7424 92.3291 17.7583 92.3291 18.8783ZM88.1548 18.7701C88.1548 16.1684 87.1839 14.8676 85.2437 14.8676C84.8223 14.8676 84.4062 14.922 83.9942 15.0302C83.5822 15.1386 83.2481 15.2739 82.9917 15.4367V22.7807C83.193 22.8175 83.4491 22.8484 83.7606 22.8759C84.0719 22.9028 84.4103 22.9164 84.7769 22.9164C85.8934 22.9164 86.7359 22.5367 87.3035 21.7779C87.8705 21.0196 88.1548 20.0168 88.1548 18.7701ZM99.6337 23.1061C100.384 23.1061 100.915 23.0341 101.227 22.8892C101.538 22.7449 101.693 22.4647 101.693 22.0491C101.693 21.7241 101.492 21.4395 101.089 21.1958C100.686 20.9517 100.073 20.6764 99.2492 20.3693C98.6083 20.1345 98.0272 19.891 97.5056 19.6377C96.9837 19.3849 96.5395 19.0818 96.1735 18.7296C95.8069 18.3771 95.5232 17.9572 95.3222 17.4697C95.1206 16.9815 95.0204 16.3948 95.0204 15.7083C95.0204 14.3714 95.5235 13.3145 96.5307 12.5374C97.5376 11.7607 98.9198 11.372 100.677 11.372C101.556 11.372 102.398 11.4492 103.203 11.6025C104.009 11.7564 104.65 11.9235 105.126 12.104L104.412 15.2473C103.903 15.0757 103.385 14.931 102.86 14.8139C102.302 14.6878 101.675 14.6241 100.979 14.6241C99.6978 14.6241 99.0567 14.9767 99.0567 15.6811C99.0567 15.8436 99.0842 15.9885 99.139 16.1146C99.1941 16.2412 99.304 16.3633 99.4687 16.4804C99.6337 16.5978 99.8573 16.7253 100.141 16.8612C100.425 16.9983 100.787 17.1481 101.226 17.3121C102.123 17.6403 102.864 17.9636 103.45 18.282C104.036 18.6012 104.498 18.9451 104.837 19.3146C105.176 19.6842 105.414 20.0946 105.551 20.5451C105.689 20.9956 105.757 21.5185 105.757 22.113C105.757 23.5193 105.222 24.5829 104.151 25.3041C103.08 26.0245 101.565 26.3857 99.6058 26.3857C98.3244 26.3857 97.2577 26.2772 96.4067 26.0603C95.5554 25.8437 94.965 25.6633 94.6353 25.5184L95.3219 22.2394C96.0167 22.51 96.7333 22.7229 97.464 22.8759C98.1963 23.0294 98.9195 23.1061 99.6337 23.1061ZM108.668 7.2654L112.76 6.61475V11.7514H117.675V15.1117H112.76V20.1252C112.76 20.9748 112.911 21.6518 113.213 22.1576C113.515 22.6636 114.123 22.9164 115.039 22.9164C115.478 22.9164 115.931 22.8756 116.398 22.7943C116.865 22.7131 117.291 22.6003 117.675 22.4557L118.252 25.5991C117.758 25.798 117.209 25.9695 116.604 26.1141C116 26.2584 115.258 26.331 114.38 26.331C113.263 26.331 112.338 26.1815 111.606 25.8836C110.874 25.5855 110.288 25.1699 109.849 24.637C109.409 24.104 109.102 23.458 108.929 22.6992C108.754 21.9404 108.667 21.1006 108.667 20.1787L108.668 7.2654ZM125.639 11.3717C126.847 11.3717 127.854 11.5074 128.66 11.7783C129.465 12.0493 130.111 12.4382 130.596 12.9434C131.08 13.4498 131.424 14.064 131.626 14.7864C131.827 15.5093 131.928 16.3132 131.928 17.1981V25.5994C131.342 25.7257 130.527 25.8747 129.483 26.0464C128.44 26.2179 127.177 26.3038 125.694 26.3038C124.76 26.3038 123.913 26.2226 123.154 26.06C122.394 25.8972 121.739 25.6309 121.19 25.2605C120.646 24.8964 120.21 24.3958 119.927 23.8102C119.634 23.2142 119.487 22.4826 119.487 21.6154C119.487 20.7842 119.656 20.0798 119.995 19.5014C120.334 18.9234 120.787 18.4624 121.355 18.1192C121.922 17.7762 122.572 17.5278 123.304 17.3742C124.054 17.219 124.818 17.1418 125.584 17.1438C126.114 17.1438 126.586 17.1666 126.998 17.2114C127.41 17.2566 127.744 17.3155 128 17.3873V17.0081C128 16.3213 127.79 15.7707 127.369 15.3549C126.947 14.9394 126.215 14.7314 125.172 14.7314C124.476 14.7314 123.789 14.7815 123.112 14.8804C122.435 14.9801 121.849 15.1201 121.355 15.3005L120.833 12.0487C121.071 11.9764 121.369 11.8998 121.726 11.8182C122.082 11.7373 122.471 11.665 122.892 11.6014C123.335 11.5358 123.779 11.4816 124.225 11.4388C124.695 11.3942 125.167 11.3718 125.639 11.3717ZM125.968 23.1873C126.371 23.1873 126.756 23.1787 127.122 23.1601C127.488 23.1425 127.781 23.115 128.001 23.0789V20.0168C127.836 19.9806 127.589 19.9448 127.26 19.9083C126.959 19.8741 126.656 19.856 126.353 19.8542C125.968 19.8542 125.607 19.8768 125.268 19.9216C124.93 19.9667 124.632 20.0526 124.376 20.1793C124.119 20.3059 123.918 20.4771 123.772 20.694C123.625 20.9109 123.552 21.1822 123.552 21.5069C123.552 22.1396 123.767 22.5777 124.197 22.8215C124.627 23.0656 125.218 23.1873 125.968 23.1873ZM141.896 6.68357C142.665 6.68357 143.37 6.76078 144.011 6.91405C144.652 7.0676 145.146 7.21653 145.494 7.36083L144.697 10.586C144.315 10.4186 143.914 10.2957 143.503 10.2199C143.072 10.1387 142.675 10.0982 142.309 10.0982C141.814 10.0982 141.397 10.1659 141.059 10.3015C140.72 10.4368 140.454 10.6225 140.263 10.857C140.07 11.0918 139.933 11.3717 139.85 11.6971C139.768 12.0224 139.727 12.3746 139.727 12.754V13.4585H144.78V16.819H139.727V26.0057H135.635V12.6999C135.635 10.857 136.161 9.39376 137.214 8.30963C138.267 7.22578 139.827 6.68357 141.896 6.68357ZM153.402 6.68357C154.171 6.68357 154.876 6.76078 155.517 6.91405C156.158 7.0676 156.652 7.21653 157 7.36083L156.204 10.586C155.821 10.4186 155.42 10.2957 155.009 10.2199C154.579 10.1387 154.181 10.0982 153.814 10.0982C153.32 10.0982 152.904 10.1659 152.565 10.3015C152.226 10.4368 151.961 10.6225 151.769 10.857C151.577 11.0918 151.439 11.3717 151.357 11.6971C151.275 12.0224 151.233 12.3746 151.233 12.754V13.4585H156.286V16.819H151.233V26.0057H147.141V12.6999C147.141 10.857 147.668 9.39376 148.72 8.30963C149.773 7.22578 151.334 6.68357 153.402 6.68357Z" fill="white"/>
<path d="M4.02411 28.6044L11.472 32.8677C11.8939 33.1095 12.4238 33.001 12.735 32.6297C13.6724 31.5106 15.0878 30.7958 16.6746 30.7958C18.2625 30.7958 19.6788 31.5118 20.6168 32.6326C20.9277 33.0042 21.4564 33.1129 21.8792 32.8715L29.3652 28.5931C29.8613 28.3094 30.0017 27.6717 29.6817 27.2024C29.319 26.6709 28.9233 26.162 28.4969 25.6787C27.3696 24.4003 26.0081 23.3427 24.5224 22.4923L23.5252 21.9211L23.4628 21.8887C23.4042 21.861 23.3456 21.8338 23.2861 21.8066C23.1346 21.7379 22.9648 21.7186 22.8014 21.7515C22.638 21.7844 22.4895 21.8678 22.3774 21.9897C20.9658 23.5174 18.9345 24.4778 16.6743 24.4778C14.4196 24.4778 12.3933 23.5226 10.9817 22.0015C10.8703 21.8808 10.7226 21.7984 10.5604 21.7663C10.3981 21.7343 10.2297 21.7543 10.0797 21.8234L10.0739 21.826L8.90847 22.4928C7.03537 23.5631 5.36417 24.9653 4.0833 26.6862C3.94938 26.8661 3.81957 27.0489 3.69356 27.2345C3.38001 27.696 3.53708 28.3253 4.02411 28.6044Z" fill="#294DFF"/>
<path d="M5.23572 4.36024C5.03361 4.47457 4.87935 4.65617 4.80058 4.87253C4.7218 5.08888 4.72367 5.32584 4.80583 5.54096C5.32334 6.90791 5.24099 8.48278 4.44012 9.84308C3.63954 11.2022 2.28687 12.0518 0.826661 12.2855C0.596543 12.3212 0.38688 12.4368 0.235355 12.6114C0.08383 12.786 0.00037877 13.0082 0 13.238L0.000586077 21.7029C0.000586077 22.2578 0.472964 22.7064 1.03443 22.6708C3.23245 22.532 5.37558 21.9344 7.32215 20.9175L8.23379 20.4028C8.48186 20.2521 8.72539 20.0942 8.96404 19.9294C9.10072 19.8359 9.20382 19.7021 9.25848 19.5471C9.31315 19.3921 9.31656 19.224 9.26822 19.067C8.66427 17.1116 8.85122 14.9243 9.97444 13.0177C11.1029 11.1016 12.9485 9.85552 14.9813 9.41134C15.3074 9.3402 15.558 9.07444 15.5893 8.74651C15.6269 8.35844 15.65 7.96631 15.6573 7.57042L15.6579 6.97298C15.6193 4.74078 15.0882 2.54371 14.1016 0.534685C13.8557 0.0346942 13.2245 -0.14691 12.7357 0.128678L5.23572 4.36024Z" fill="#1F95FF"/>
<path d="M28.9089 9.84327C28.1077 8.48297 28.0254 6.9081 28.5432 5.54115C28.6253 5.32603 28.6272 5.08907 28.5484 4.87271C28.4696 4.65636 28.3154 4.47476 28.1133 4.36043L20.6127 0.128865C20.1239 -0.147012 19.4924 0.0345928 19.2468 0.534873C18.2602 2.54413 17.729 4.74136 17.6902 6.97374L17.6908 7.57003C17.6984 7.96297 17.7212 8.35547 17.759 8.7467C17.7907 9.07463 18.0412 9.3401 18.3671 9.41152C20.3999 9.85541 22.2452 11.1018 23.374 13.0179C24.4969 14.9247 24.6844 17.1118 24.0802 19.0672C24.0318 19.2243 24.0352 19.3924 24.0898 19.5475C24.1445 19.7025 24.2476 19.8364 24.3844 19.9298C24.6234 20.094 24.8668 20.2519 25.1143 20.4032L26.0265 20.9177C27.9732 21.9347 30.1164 22.5323 32.3146 22.671C32.8757 22.7065 33.3478 22.2583 33.3478 21.7031L33.3481 13.2379C33.3479 13.0081 33.2646 12.7859 33.1132 12.6114C32.9617 12.4368 32.7521 12.3213 32.522 12.2857C31.0615 12.0517 29.7095 11.2021 28.9089 9.84327Z" fill="#5FBBFF"/>
</g>
<defs>
<clipPath id="clip0">
<rect width="157" height="33" fill="white"/>
</clipPath>
</defs>
</svg>
