<svg width="113" height="34" viewBox="0 0 113 34" fill="none" xmlns="http://www.w3.org/2000/svg">
<path d="M25.4442 20.831C26.0004 21.045 26.2144 21.8786 26.257 22.2422C26.3427 22.9056 26.1506 23.1622 25.9366 23.1622C25.7226 23.1622 25.4229 22.9056 25.1026 22.3925C24.7816 21.8786 24.6533 21.3016 24.8248 21.0018C24.9311 20.809 25.1664 20.7239 25.4448 20.831H25.4442ZM22.1944 23.248C22.5366 23.248 22.9214 23.3975 23.2637 23.6967C23.9263 24.2531 24.119 24.8945 23.7767 25.3652C23.584 25.6005 23.2637 25.7501 22.9002 25.7501C22.5366 25.7501 22.1518 25.6218 21.8953 25.3864C21.2965 24.8733 21.1257 24.0171 21.5098 23.5471C21.66 23.3543 21.8953 23.248 22.1944 23.248ZM14.7112 29.4287C6.58534 29.4287 0 22.8411 0 14.714C0 6.58691 6.586 0 14.7105 0C22.8357 0 29.4217 6.58758 29.4217 14.714C29.4217 17.4727 28.6521 20.0612 27.3482 22.2642C27.305 22.328 27.198 22.3067 27.1767 22.2209C26.6637 18.6068 24.4613 16.6172 21.254 16.0189C20.9755 15.9757 20.933 15.8049 21.2965 15.7623C22.2801 15.6766 23.6697 15.6978 24.3968 15.8261C24.4393 15.4625 24.4613 15.0776 24.4613 14.6928C24.4613 9.32432 20.0989 4.96096 14.7318 4.96096C9.36529 4.96096 5.00297 9.32432 5.00297 14.6928C5.00297 20.0612 9.36528 24.4246 14.7324 24.4246H15.181C15.0286 23.5562 14.9641 22.6748 14.9883 21.7935C15.0102 21.1946 15.1385 21.1088 15.395 21.5795C16.7421 23.9107 18.6668 26.0066 22.4296 26.8409C25.5086 27.5256 28.5876 28.3166 31.9019 32.5297C32.201 32.8934 31.7524 33.2782 31.4101 32.9791C28.032 29.9845 24.953 29.0006 22.1518 29.0006C19.0084 29.0226 16.8704 29.4287 14.7105 29.4287H14.7112Z" fill="#FF8C00"/>
<path d="M51.6367 16.8916C51.6367 18.0869 51.4434 19.127 51.0566 20.0117C50.6699 20.8906 50.1338 21.5967 49.4482 22.1299L51.5752 23.7998L49.8965 25.2852L47.1719 23.0967C46.8613 23.1494 46.5391 23.1758 46.2051 23.1758C45.1445 23.1758 44.1982 22.9209 43.3662 22.4111C42.5342 21.9014 41.8896 21.1748 41.4326 20.2314C40.9756 19.2822 40.7441 18.1924 40.7383 16.9619V16.3291C40.7383 15.0693 40.9639 13.9619 41.415 13.0068C41.8721 12.0459 42.5137 11.3105 43.3398 10.8008C44.1719 10.2852 45.1211 10.0273 46.1875 10.0273C47.2539 10.0273 48.2002 10.2852 49.0264 10.8008C49.8584 11.3105 50.5 12.0459 50.9512 13.0068C51.4082 13.9619 51.6367 15.0664 51.6367 16.3203V16.8916ZM48.9648 16.3115C48.9648 14.9697 48.7246 13.9502 48.2441 13.2529C47.7637 12.5557 47.0781 12.207 46.1875 12.207C45.3027 12.207 44.6201 12.5527 44.1396 13.2441C43.6592 13.9297 43.416 14.9375 43.4102 16.2676V16.8916C43.4102 18.1982 43.6504 19.2119 44.1309 19.9326C44.6113 20.6533 45.3027 21.0137 46.2051 21.0137C47.0898 21.0137 47.7695 20.668 48.2441 19.9766C48.7188 19.2793 48.959 18.2656 48.9648 16.9355V16.3115ZM56.374 23H53.7373V10.2031H56.374V23ZM68.793 19.3086L70.5156 10.2031H73.1436L70.3047 23H67.6504L65.5674 14.4395L63.4844 23H60.8301L57.9912 10.2031H60.6191L62.3506 19.291L64.46 10.2031H66.6924L68.793 19.3086ZM77.3799 23H74.7432V10.2031H77.3799V23Z" fill="#FF8C00"/>
<path d="M94.1367 20.3809H90.6123L89.9268 23H87.1934L91.1924 10.2031H93.5566L97.582 23H94.8223L94.1367 20.3809ZM91.1748 18.2275H93.5654L92.3701 13.666L91.1748 18.2275ZM101.37 18.5V23H98.7861V10.2031H103.146C104.411 10.2031 105.419 10.5957 106.169 11.3809C106.925 12.166 107.303 13.1855 107.303 14.4395C107.303 15.6934 106.931 16.6836 106.187 17.4102C105.442 18.1367 104.411 18.5 103.093 18.5H101.37ZM101.37 16.3467H103.146C103.638 16.3467 104.019 16.1855 104.288 15.8633C104.558 15.541 104.692 15.0723 104.692 14.457C104.692 13.8184 104.555 13.3115 104.279 12.9365C104.004 12.5557 103.635 12.3623 103.172 12.3564H101.37V16.3467ZM111.732 23H109.148V10.2031H111.732V23Z" fill="white"/>
</svg>
