<svg width="97" height="39" viewBox="0 0 97 39" fill="none" xmlns="http://www.w3.org/2000/svg">
<g clip-path="url(#clip0)">
<path d="M68.3843 31.9782H67.5605V30.8319H69.5063V30.3188H67.0245V32.4851H68.3599C68.8358 32.4851 69.1104 32.708 69.1104 33.1107V33.5504C69.1104 34.0026 68.8054 34.2566 68.2562 34.2566C67.7314 34.2566 67.4262 34.0026 67.4262 33.5504V33.1416H66.8904V33.538C66.8904 34.2814 67.4384 34.7635 68.2562 34.7635C69.0922 34.7635 69.6402 34.2814 69.6402 33.538V33.1231C69.6402 32.4295 69.147 31.9782 68.3843 31.9782Z" fill="#999999"/>
<path d="M66.4117 30.8319V30.3188H63.7837V34.6831H64.3197V32.9246H66.1983V32.4053H64.3197V30.8319H66.4117Z" fill="#999999"/>
<path d="M61.5875 30.4174H61.8559V29.9165H61.5265C60.8254 29.9165 60.4294 30.3554 60.4294 31.1051V31.5573H60.0696V32.0519H60.4294V34.6832H60.9471V32.0519H61.8009V31.5573H60.9471V31.1484C60.9471 30.6278 61.1484 30.4174 61.5875 30.4174Z" fill="#999999"/>
<path d="M54.8243 34.183C54.4033 34.183 54.196 33.9849 54.196 33.4832V32.0525H55.0378V31.5579H54.196V30.6416H53.6784V31.5579H53.2637V32.0525H53.6784V33.6009C53.6784 34.35 54.0255 34.6838 54.7146 34.6838H55.0927V34.183H54.8243Z" fill="#999999"/>
<path d="M52.6826 31.5016C52.5072 31.4961 52.3325 31.5267 52.169 31.5915C52.0055 31.6563 51.8566 31.754 51.7313 31.8787L51.6278 31.5575H51.2683V34.6834H51.7861V32.715C51.7861 32.2005 52.1582 31.959 52.5973 31.959C52.6855 31.9601 52.7734 31.9705 52.8595 31.9901V31.5079C52.8007 31.5028 52.7416 31.5007 52.6826 31.5016Z" fill="#999999"/>
<path d="M92.5739 12.7974H90.0451L87.2598 17.2802L84.5479 12.7974H81.9275L85.8306 19.2706L81.8909 25.967H84.383L87.1499 21.447L89.8618 25.967H92.4822L88.5425 19.438L92.5739 12.7974Z" fill="white"/>
<path d="M78.6611 12.7974V21.7633L73.567 12.7974H71.4597V25.967H73.567V17.0571L78.6611 25.967H80.7868V12.7974H78.6611Z" fill="white"/>
<path d="M69.7261 12.7969H67.4722V25.9665H69.7261V12.7969Z" fill="white"/>
<path d="M65.7389 17.4845V16.7405C65.7389 14.1922 63.8883 12.5366 60.6448 12.5366C57.4198 12.5366 55.5691 14.1922 55.5691 16.7405V22.0233C55.5691 24.5718 57.4382 26.2272 60.6632 26.2272C63.8883 26.2272 65.7389 24.5718 65.7389 22.0233V18.9355H60.5716V21.056H63.4852V21.893C63.4852 23.2697 62.4591 24.1067 60.6448 24.1067C58.8492 24.1067 57.8231 23.2697 57.8231 21.893V16.8708C57.8231 15.4943 58.8492 14.6573 60.6632 14.6573C62.4591 14.6573 63.4852 15.4943 63.4852 16.8708V17.4845H65.7389Z" fill="white"/>
<path d="M51.6992 12.7974V21.7633L46.6051 12.7974H44.4978V25.967H46.6051V17.0571L51.6992 25.967H53.8249V12.7974H51.6992Z" fill="white"/>
<path d="M58.3193 31.4771C57.4591 31.4771 57.0083 31.9655 57.0083 32.7707V33.4643C57.0083 34.2695 57.4591 34.7641 58.3253 34.7641C59.1857 34.7641 59.6363 34.2695 59.6363 33.4643V32.7707C59.6363 31.9655 59.1857 31.4771 58.3193 31.4771ZM59.1187 33.4334C59.1187 33.9846 58.8745 34.2632 58.3193 34.2632C57.7639 34.2632 57.5259 33.9846 57.5259 33.4334V32.8016C57.5259 32.2504 57.7701 31.9779 58.3253 31.9779C58.8807 31.9779 59.1187 32.2504 59.1187 32.8016V33.4334Z" fill="#999999"/>
<path d="M50.2112 31.5571L50.1139 31.8723C49.9926 31.7374 49.843 31.6318 49.6761 31.5633C49.5093 31.4948 49.3295 31.4651 49.1498 31.4765C48.3933 31.4765 47.9487 31.8599 47.9487 32.7949V33.4453C47.9487 34.374 48.3933 34.7635 49.1498 34.7635C49.3294 34.7748 49.5093 34.7452 49.6761 34.6767C49.8429 34.6083 49.9925 34.5027 50.1139 34.3679L50.2112 34.683H50.5707V31.5571H50.2112ZM49.2413 34.2626C48.7227 34.2626 48.4663 34.0026 48.4663 33.4081V32.8258C48.4663 32.2313 48.7227 31.9773 49.2413 31.9773C49.7174 31.9773 50.0103 32.2126 50.0529 32.7266V33.507C50.0103 34.0274 49.7112 34.2626 49.2413 34.2626Z" fill="#999999"/>
<path d="M46.1806 30.3188H44.4976V34.6831H45.0336V33.0981H46.1866C47.0224 33.0981 47.4976 32.659 47.4976 31.9469V31.4701C47.4976 30.7516 47.0224 30.3188 46.1806 30.3188ZM46.9678 31.9469C46.9678 32.362 46.7236 32.5788 46.211 32.5788H45.0336V30.8319H46.2172C46.7236 30.8319 46.9678 31.055 46.9678 31.4701V31.9469Z" fill="#999999"/>
<path d="M0.262215 29.2506C0.435859 29.5574 0.687717 29.8112 0.991325 29.9851L15.9069 38.7268L15.9073 38.7263C16.2079 38.9055 16.5501 39 16.8986 39C17.2471 39 17.5893 38.9055 17.8898 38.7263L32.8058 29.9846C33.1089 29.8101 33.3605 29.5566 33.5346 29.2503C33.7088 28.944 33.7993 28.5961 33.7966 28.2425V10.759L33.7961 10.7585C33.7988 10.4047 33.7083 10.0567 33.534 9.75033C33.3597 9.44398 33.108 9.19043 32.8049 9.0159L17.8889 0.274126V0.273654C17.5886 0.0944764 17.2467 0 16.8984 0C16.5501 0 16.2081 0.0944764 15.9078 0.273654V0.274126L0.992257 9.01589C0.688987 9.19029 0.437142 9.4438 0.262784 9.75018C0.0884272 10.0566 -0.00210593 10.4047 0.000554898 10.7585L8.98044e-05 10.7589V28.2425C-0.00325912 28.5962 0.0871126 28.9444 0.26175 29.2506" fill="#009639"/>
<path d="M12.1228 26.1558C12.1228 26.6723 11.9207 27.1675 11.561 27.5327C11.2012 27.8979 10.7133 28.1031 10.2046 28.1031C9.69585 28.1031 9.20795 27.8979 8.84821 27.5327C8.48847 27.1675 8.28638 26.6723 8.28638 26.1558L8.28684 26.1563L8.2887 12.7894C8.2887 11.7538 9.19008 10.8974 10.4667 10.8974C11.3807 10.8974 12.4357 11.2718 13.0815 12.0842L13.6611 12.7884L21.6748 22.5237V12.8437H21.6739C21.6739 12.588 21.7235 12.3348 21.8199 12.0985C21.9163 11.8623 22.0576 11.6476 22.2357 11.4668C22.4138 11.286 22.6253 11.1426 22.858 11.0447C23.0908 10.9469 23.3402 10.8965 23.5921 10.8965C23.844 10.8965 24.0934 10.9469 24.3262 11.0447C24.5589 11.1426 24.7704 11.286 24.9485 11.4668C25.1266 11.6476 25.2679 11.8623 25.3643 12.0985C25.4607 12.3348 25.5103 12.588 25.5103 12.8437H25.5099L25.508 26.2097C25.508 27.2452 24.6062 28.1016 23.33 28.1016C22.4156 28.1016 21.361 27.7278 20.7152 26.9149L12.1219 16.4754V26.1563L12.1228 26.1558Z" fill="white"/>
<path d="M95.2206 25.3763H95.4657V24.8221H95.6596C95.7527 24.8139 95.8464 24.8298 95.9319 24.8683C95.9796 24.9056 96.0167 24.9551 96.0394 25.0117C96.0622 25.0684 96.0697 25.1301 96.0613 25.1906V25.3042L96.0668 25.3466C96.0687 25.3524 96.07 25.3583 96.0706 25.3644C96.0718 25.3712 96.0723 25.3732 96.0761 25.3763H96.3032L96.2949 25.3606C96.2859 25.3377 96.2822 25.3131 96.284 25.2885C96.2807 25.2487 96.2807 25.2147 96.2807 25.1833V25.0783C96.2773 24.999 96.2509 24.9226 96.2047 24.8586C96.1757 24.8202 96.1393 24.7882 96.0977 24.7645C96.0562 24.7408 96.0103 24.7259 95.9629 24.7207C96.0335 24.7109 96.1018 24.6884 96.1645 24.6542C96.2095 24.6242 96.2458 24.5824 96.2696 24.5334C96.2934 24.4844 96.3039 24.4297 96.2999 24.3752C96.3075 24.3 96.2907 24.2243 96.252 24.1597C96.2133 24.0951 96.1549 24.0451 96.0856 24.0173C95.9629 23.9774 95.8342 23.9603 95.7055 23.9669H95.2206V25.3763ZM95.9177 24.6164C95.8426 24.6416 95.7635 24.6522 95.6846 24.6479H95.4657V24.1348H95.6746C95.7757 24.1283 95.8769 24.1472 95.9691 24.1898C96.0019 24.2119 96.0279 24.2429 96.0442 24.2793C96.0605 24.3156 96.0665 24.3559 96.0613 24.3955C96.0647 24.4433 96.0525 24.4908 96.0265 24.5308C96.0005 24.5707 95.9623 24.6008 95.9177 24.6164L95.9177 24.6164ZM96.6295 23.7693C96.5123 23.6483 96.372 23.5527 96.2173 23.4885C96.0625 23.4242 95.8965 23.3927 95.7293 23.3957C95.3941 23.3966 95.0729 23.5325 94.8362 23.7734C94.5995 24.0144 94.4666 24.3408 94.4666 24.6811C94.4666 25.0214 94.5995 25.3478 94.8362 25.5887C95.0729 25.8297 95.3941 25.9655 95.7293 25.9665C95.9802 25.9669 96.2257 25.8918 96.4346 25.7506C96.6434 25.6094 96.8064 25.4085 96.9027 25.1733C96.9991 24.9381 97.0246 24.6791 96.976 24.4292C96.9273 24.1793 96.8067 23.9496 96.6295 23.7693V23.7693ZM96.5008 23.8969C96.6042 23.9978 96.6858 24.1194 96.7405 24.254C96.7952 24.3886 96.8218 24.5333 96.8186 24.6788C96.82 24.8982 96.757 25.113 96.6377 25.2958C96.5184 25.4787 96.3481 25.6214 96.1486 25.7057C95.9491 25.79 95.7294 25.812 95.5175 25.7691C95.3056 25.7262 95.1111 25.6201 94.9587 25.4646C94.8569 25.3617 94.7765 25.2392 94.7222 25.1042C94.6679 24.9692 94.6407 24.8246 94.6424 24.6788C94.642 24.3854 94.7561 24.1038 94.9598 23.8957C95.1636 23.6876 95.4403 23.57 95.7293 23.5687C95.8733 23.5661 96.0162 23.5939 96.149 23.6504C96.2819 23.7069 96.4017 23.7909 96.5008 23.8969Z" fill="#999999"/>
<path d="M31.9965 35.3787H32.2416V34.8245H32.4355C32.5286 34.8163 32.6223 34.8322 32.7078 34.8707C32.7555 34.908 32.7926 34.9575 32.8153 35.0142C32.838 35.0708 32.8456 35.1325 32.8372 35.1931V35.3067L32.8427 35.349C32.8446 35.3548 32.8458 35.3608 32.8465 35.3668C32.8477 35.3736 32.8482 35.3757 32.852 35.3787H33.0791L33.0708 35.363C33.0618 35.3401 33.058 35.3155 33.0598 35.291C33.0566 35.2511 33.0566 35.2172 33.0566 35.1857V35.0807C33.0532 35.0015 33.0267 34.9251 32.9806 34.8611C32.9516 34.8227 32.9152 34.7907 32.8736 34.7669C32.8321 34.7432 32.7862 34.7283 32.7388 34.7231C32.8094 34.7133 32.8776 34.6908 32.9404 34.6566C32.9854 34.6266 33.0217 34.5849 33.0455 34.5358C33.0693 34.4868 33.0798 34.4322 33.0758 34.3776C33.0834 34.3024 33.0666 34.2268 33.0279 34.1621C32.9892 34.0975 32.9307 34.0475 32.8615 34.0198C32.7388 33.9798 32.6101 33.9627 32.4814 33.9693H31.9965L31.9965 35.3787ZM32.6936 34.6188C32.6185 34.644 32.5394 34.6547 32.4604 34.6503H32.2416V34.1372H32.4504C32.5516 34.1307 32.6528 34.1496 32.745 34.1922C32.7778 34.2143 32.8038 34.2453 32.8201 34.2817C32.8364 34.3181 32.8423 34.3583 32.8372 34.3979C32.8406 34.4457 32.8284 34.4932 32.8024 34.5332C32.7764 34.5731 32.7381 34.6033 32.6935 34.6189L32.6936 34.6188ZM33.4054 33.7717C33.2882 33.6507 33.1479 33.5551 32.9931 33.4909C32.8384 33.4267 32.6723 33.3951 32.5052 33.3981C32.1699 33.3991 31.8488 33.5349 31.6121 33.7759C31.3754 34.0168 31.2424 34.3432 31.2424 34.6835C31.2424 35.0238 31.3754 35.3502 31.6121 35.5912C31.8488 35.8321 32.1699 35.968 32.5052 35.9689C32.7561 35.9694 33.0015 35.8942 33.2104 35.753C33.4193 35.6119 33.5822 35.4109 33.6786 35.1757C33.775 34.9405 33.8005 34.6816 33.7518 34.4317C33.7032 34.1817 33.5826 33.9521 33.4054 33.7717V33.7717ZM33.2767 33.8993C33.38 34.0003 33.4616 34.1219 33.5163 34.2565C33.571 34.3911 33.5977 34.5357 33.5945 34.6813C33.5959 34.9006 33.5329 35.1154 33.4136 35.2983C33.2942 35.4812 33.124 35.6238 32.9245 35.7081C32.725 35.7924 32.5053 35.8145 32.2934 35.7715C32.0815 35.7286 31.887 35.6226 31.7346 35.467C31.6328 35.3641 31.5524 35.2416 31.4981 35.1066C31.4437 34.9717 31.4166 34.827 31.4183 34.6813C31.4179 34.3879 31.532 34.1063 31.7357 33.8982C31.9395 33.6901 32.2161 33.5725 32.5052 33.5711C32.6491 33.5685 32.7921 33.5964 32.9249 33.6529C33.0577 33.7094 33.1775 33.7933 33.2767 33.8993Z" fill="#999999"/>
</g>
<defs>
<clipPath id="clip0">
<rect width="97" height="39" fill="white"/>
</clipPath>
</defs>
</svg>
