<svg width="460" height="168" viewBox="0 0 460 168" fill="none" xmlns="http://www.w3.org/2000/svg">
<mask id="path-1-inside-1" fill="white">
<path fill-rule="evenodd" clip-rule="evenodd" d="M136.087 167.35H101.605L34.4814 57.2391V167.35H0V0H34.4814L101.72 110.341V0H136.087V167.35ZM166.2 167.35V0H217.693C232.405 0 245.546 3.3332 257.116 9.99961C268.763 16.5894 277.844 26.0143 284.357 38.2744C290.87 50.4578 294.126 64.327 294.126 79.8819V87.5828C294.126 103.138 290.908 116.969 284.472 129.075C278.112 141.182 269.108 150.569 257.461 157.235C245.814 163.902 232.673 167.273 218.037 167.35H166.2ZM350.791 132.868H411.248L422.857 167.35H459.522L396.881 0H364.928L302.632 167.35H339.297L350.791 132.868ZM401.938 104.938H360.101L380.905 42.2972L401.938 104.938ZM239.382 120.142C240.348 119.061 240.811 117.617 240.652 116.177L237.435 87.2451C242.659 83.4448 245.782 77.4332 245.782 70.8387C245.782 59.5871 236.633 50.4379 225.381 50.4379C214.13 50.4379 204.981 59.5876 204.981 70.8387C204.981 77.4332 208.103 83.4448 213.328 87.2451L210.11 116.177C209.951 117.617 210.414 119.062 211.38 120.142C212.347 121.223 213.731 121.84 215.181 121.84H235.581C237.031 121.84 238.415 121.223 239.382 120.142Z"/>
</mask>
<path d="M101.605 167.35L99.8975 168.391L100.482 169.35H101.605V167.35ZM136.087 167.35V169.35H138.087V167.35H136.087ZM34.4814 57.2391L36.1891 56.1981L32.4814 50.116V57.2391H34.4814ZM34.4814 167.35V169.35H36.4814V167.35H34.4814ZM0 167.35H-2V169.35H0V167.35ZM0 0V-2H-2V0H0ZM34.4814 0L36.1893 -1.04074L35.6047 -2H34.4814V0ZM101.72 110.341L100.012 111.381L103.72 117.466V110.341H101.72ZM101.72 0V-2H99.7202V0H101.72ZM136.087 0H138.087V-2H136.087V0ZM166.2 0V-2H164.2V0H166.2ZM166.2 167.35H164.2V169.35H166.2V167.35ZM257.116 9.99961L256.118 11.7326L256.125 11.7365L256.132 11.7403L257.116 9.99961ZM284.357 38.2744L282.59 39.2127L282.593 39.2173L284.357 38.2744ZM284.472 129.075L282.706 128.137L282.701 128.145L284.472 129.075ZM257.461 157.235L258.455 158.971L257.461 157.235ZM218.037 167.35V169.35L218.048 169.35L218.037 167.35ZM411.248 132.868L413.144 132.23L412.685 130.868H411.248V132.868ZM350.791 132.868V130.868H349.349L348.894 132.236L350.791 132.868ZM422.857 167.35L420.962 167.988L421.42 169.35H422.857V167.35ZM459.522 167.35V169.35H462.406L461.395 166.649L459.522 167.35ZM396.881 0L398.754 -0.701119L398.268 -2H396.881V0ZM364.928 0V-2H363.539L363.054 -0.69773L364.928 0ZM302.632 167.35L300.757 166.652L299.753 169.35H302.632V167.35ZM339.297 167.35V169.35H340.739L341.194 167.982L339.297 167.35ZM360.101 104.938L358.203 104.308L357.329 106.938H360.101V104.938ZM401.938 104.938V106.938H404.72L403.834 104.302L401.938 104.938ZM380.905 42.2972L382.801 41.6606L380.894 35.9831L379.007 41.6668L380.905 42.2972ZM240.652 116.177L242.639 115.957L242.639 115.956L240.652 116.177ZM239.382 120.142L240.872 121.475L240.873 121.475L239.382 120.142ZM237.435 87.2451L236.258 85.6277L235.318 86.3112L235.447 87.4661L237.435 87.2451ZM213.328 87.2451L215.316 87.4661L215.444 86.3112L214.504 85.6277L213.328 87.2451ZM210.11 116.177L208.123 115.956L208.123 115.957L210.11 116.177ZM211.38 120.142L212.871 118.809L212.871 118.809L211.38 120.142ZM101.605 169.35H136.087V165.35H101.605V169.35ZM32.7737 58.2802L99.8975 168.391L103.313 166.309L36.1891 56.1981L32.7737 58.2802ZM36.4814 167.35V57.2391H32.4814V167.35H36.4814ZM0 169.35H34.4814V165.35H0V169.35ZM-2 0V167.35H2V0H-2ZM34.4814 -2H0V2H34.4814V-2ZM103.428 109.3L36.1893 -1.04074L32.7735 1.04074L100.012 111.381L103.428 109.3ZM99.7202 0V110.341H103.72V0H99.7202ZM136.087 -2H101.72V2H136.087V-2ZM138.087 167.35V0H134.087V167.35H138.087ZM164.2 0V167.35H168.2V0H164.2ZM217.693 -2H166.2V2H217.693V-2ZM258.115 8.26666C246.211 1.40789 232.719 -2 217.693 -2V2C232.091 2 244.881 5.25852 256.118 11.7326L258.115 8.26666ZM286.123 37.3361C279.438 24.7528 270.093 15.0435 258.101 8.25891L256.132 11.7403C267.434 18.1352 276.249 27.2758 282.59 39.2127L286.123 37.3361ZM296.126 79.8819C296.126 64.04 292.807 49.8399 286.12 37.3315L282.593 39.2173C288.932 51.0757 292.126 64.6139 292.126 79.8819H296.126ZM296.126 87.5828V79.8819H292.126V87.5828H296.126ZM286.238 130.014C292.847 117.581 296.126 103.421 296.126 87.5828H292.126C292.126 102.855 288.969 116.356 282.706 128.137L286.238 130.014ZM258.455 158.971C270.439 152.112 279.709 142.443 286.242 130.006L282.701 128.145C276.515 139.922 267.778 149.026 256.468 155.499L258.455 158.971ZM218.048 169.35C232.996 169.271 246.482 165.824 258.455 158.971L256.468 155.499C245.147 161.979 232.35 165.275 218.027 165.35L218.048 169.35ZM166.2 169.35H218.037V165.35H166.2V169.35ZM411.248 130.868H350.791V134.868H411.248V130.868ZM424.753 166.712L413.144 132.23L409.353 133.507L420.962 167.988L424.753 166.712ZM459.522 165.35H422.857V169.35H459.522V165.35ZM395.008 0.701119L457.649 168.051L461.395 166.649L398.754 -0.701119L395.008 0.701119ZM364.928 2H396.881V-2H364.928V2ZM304.506 168.048L366.803 0.69773L363.054 -0.69773L300.757 166.652L304.506 168.048ZM339.297 165.35H302.632V169.35H339.297V165.35ZM348.894 132.236L337.4 166.717L341.194 167.982L352.688 133.501L348.894 132.236ZM360.101 106.938H401.938V102.938H360.101V106.938ZM379.007 41.6668L358.203 104.308L361.999 105.569L382.803 42.9276L379.007 41.6668ZM403.834 104.302L382.801 41.6606L379.009 42.9338L400.042 105.575L403.834 104.302ZM238.664 116.397C238.76 117.271 238.479 118.151 237.891 118.809L240.873 121.475C242.217 119.971 242.861 117.962 242.639 115.957L238.664 116.397ZM235.447 87.4661L238.664 116.398L242.639 115.956L239.422 87.0241L235.447 87.4661ZM243.782 70.8387C243.782 76.7875 240.97 82.2004 236.258 85.6277L238.611 88.8625C244.348 84.6893 247.782 78.0789 247.782 70.8387H243.782ZM225.381 52.4379C235.528 52.4379 243.782 60.6917 243.782 70.8387H247.782C247.782 58.4825 237.737 48.4379 225.381 48.4379V52.4379ZM206.981 70.8387C206.981 60.6921 215.234 52.4379 225.381 52.4379V48.4379C213.025 48.4379 202.981 58.483 202.981 70.8387H206.981ZM214.504 85.6277C209.792 82.2004 206.981 76.7875 206.981 70.8387H202.981C202.981 78.0789 206.414 84.6893 212.151 88.8625L214.504 85.6277ZM212.098 116.398L215.316 87.4661L211.34 87.0241L208.123 115.956L212.098 116.398ZM212.871 118.809C212.283 118.151 212.001 117.271 212.098 116.398L208.123 115.957C207.9 117.963 208.545 119.972 209.89 121.475L212.871 118.809ZM215.181 119.84C214.299 119.84 213.457 119.464 212.871 118.809L209.89 121.475C211.236 122.981 213.164 123.84 215.181 123.84V119.84ZM235.581 119.84H215.181V123.84H235.581V119.84ZM237.891 118.809C237.305 119.464 236.463 119.84 235.581 119.84V123.84C237.598 123.84 239.526 122.981 240.872 121.475L237.891 118.809Z" fill="url(#paint0_linear)" mask="url(#path-1-inside-1)"/>
<path d="M101.605 167.35L99.8975 168.391L100.482 169.35H101.605V167.35ZM136.087 167.35V169.35H138.087V167.35H136.087ZM34.4814 57.2391L36.1891 56.1981L32.4814 50.116V57.2391H34.4814ZM34.4814 167.35V169.35H36.4814V167.35H34.4814ZM0 167.35H-2V169.35H0V167.35ZM0 0V-2H-2V0H0ZM34.4814 0L36.1893 -1.04074L35.6047 -2H34.4814V0ZM101.72 110.341L100.012 111.381L103.72 117.466V110.341H101.72ZM101.72 0V-2H99.7202V0H101.72ZM136.087 0H138.087V-2H136.087V0ZM166.2 0V-2H164.2V0H166.2ZM166.2 167.35H164.2V169.35H166.2V167.35ZM257.116 9.99961L256.118 11.7326L256.125 11.7365L256.132 11.7403L257.116 9.99961ZM284.357 38.2744L282.59 39.2127L282.593 39.2173L284.357 38.2744ZM284.472 129.075L282.706 128.137L282.701 128.145L284.472 129.075ZM257.461 157.235L258.455 158.971L257.461 157.235ZM218.037 167.35V169.35L218.048 169.35L218.037 167.35ZM411.248 132.868L413.144 132.23L412.685 130.868H411.248V132.868ZM350.791 132.868V130.868H349.349L348.894 132.236L350.791 132.868ZM422.857 167.35L420.962 167.988L421.42 169.35H422.857V167.35ZM459.522 167.35V169.35H462.406L461.395 166.649L459.522 167.35ZM396.881 0L398.754 -0.701119L398.268 -2H396.881V0ZM364.928 0V-2H363.539L363.054 -0.69773L364.928 0ZM302.632 167.35L300.757 166.652L299.753 169.35H302.632V167.35ZM339.297 167.35V169.35H340.739L341.194 167.982L339.297 167.35ZM360.101 104.938L358.203 104.308L357.329 106.938H360.101V104.938ZM401.938 104.938V106.938H404.72L403.834 104.302L401.938 104.938ZM380.905 42.2972L382.801 41.6606L380.894 35.9831L379.007 41.6668L380.905 42.2972ZM240.652 116.177L242.639 115.957L242.639 115.956L240.652 116.177ZM239.382 120.142L240.872 121.475L240.873 121.475L239.382 120.142ZM237.435 87.2451L236.258 85.6277L235.318 86.3112L235.447 87.4661L237.435 87.2451ZM213.328 87.2451L215.316 87.4661L215.444 86.3112L214.504 85.6277L213.328 87.2451ZM210.11 116.177L208.123 115.956L208.123 115.957L210.11 116.177ZM211.38 120.142L212.871 118.809L212.871 118.809L211.38 120.142ZM101.605 169.35H136.087V165.35H101.605V169.35ZM32.7737 58.2802L99.8975 168.391L103.313 166.309L36.1891 56.1981L32.7737 58.2802ZM36.4814 167.35V57.2391H32.4814V167.35H36.4814ZM0 169.35H34.4814V165.35H0V169.35ZM-2 0V167.35H2V0H-2ZM34.4814 -2H0V2H34.4814V-2ZM103.428 109.3L36.1893 -1.04074L32.7735 1.04074L100.012 111.381L103.428 109.3ZM99.7202 0V110.341H103.72V0H99.7202ZM136.087 -2H101.72V2H136.087V-2ZM138.087 167.35V0H134.087V167.35H138.087ZM164.2 0V167.35H168.2V0H164.2ZM217.693 -2H166.2V2H217.693V-2ZM258.115 8.26666C246.211 1.40789 232.719 -2 217.693 -2V2C232.091 2 244.881 5.25852 256.118 11.7326L258.115 8.26666ZM286.123 37.3361C279.438 24.7528 270.093 15.0435 258.101 8.25891L256.132 11.7403C267.434 18.1352 276.249 27.2758 282.59 39.2127L286.123 37.3361ZM296.126 79.8819C296.126 64.04 292.807 49.8399 286.12 37.3315L282.593 39.2173C288.932 51.0757 292.126 64.6139 292.126 79.8819H296.126ZM296.126 87.5828V79.8819H292.126V87.5828H296.126ZM286.238 130.014C292.847 117.581 296.126 103.421 296.126 87.5828H292.126C292.126 102.855 288.969 116.356 282.706 128.137L286.238 130.014ZM258.455 158.971C270.439 152.112 279.709 142.443 286.242 130.006L282.701 128.145C276.515 139.922 267.778 149.026 256.468 155.499L258.455 158.971ZM218.048 169.35C232.996 169.271 246.482 165.824 258.455 158.971L256.468 155.499C245.147 161.979 232.35 165.275 218.027 165.35L218.048 169.35ZM166.2 169.35H218.037V165.35H166.2V169.35ZM411.248 130.868H350.791V134.868H411.248V130.868ZM424.753 166.712L413.144 132.23L409.353 133.507L420.962 167.988L424.753 166.712ZM459.522 165.35H422.857V169.35H459.522V165.35ZM395.008 0.701119L457.649 168.051L461.395 166.649L398.754 -0.701119L395.008 0.701119ZM364.928 2H396.881V-2H364.928V2ZM304.506 168.048L366.803 0.69773L363.054 -0.69773L300.757 166.652L304.506 168.048ZM339.297 165.35H302.632V169.35H339.297V165.35ZM348.894 132.236L337.4 166.717L341.194 167.982L352.688 133.501L348.894 132.236ZM360.101 106.938H401.938V102.938H360.101V106.938ZM379.007 41.6668L358.203 104.308L361.999 105.569L382.803 42.9276L379.007 41.6668ZM403.834 104.302L382.801 41.6606L379.009 42.9338L400.042 105.575L403.834 104.302ZM238.664 116.397C238.76 117.271 238.479 118.151 237.891 118.809L240.873 121.475C242.217 119.971 242.861 117.962 242.639 115.957L238.664 116.397ZM235.447 87.4661L238.664 116.398L242.639 115.956L239.422 87.0241L235.447 87.4661ZM243.782 70.8387C243.782 76.7875 240.97 82.2004 236.258 85.6277L238.611 88.8625C244.348 84.6893 247.782 78.0789 247.782 70.8387H243.782ZM225.381 52.4379C235.528 52.4379 243.782 60.6917 243.782 70.8387H247.782C247.782 58.4825 237.737 48.4379 225.381 48.4379V52.4379ZM206.981 70.8387C206.981 60.6921 215.234 52.4379 225.381 52.4379V48.4379C213.025 48.4379 202.981 58.483 202.981 70.8387H206.981ZM214.504 85.6277C209.792 82.2004 206.981 76.7875 206.981 70.8387H202.981C202.981 78.0789 206.414 84.6893 212.151 88.8625L214.504 85.6277ZM212.098 116.398L215.316 87.4661L211.34 87.0241L208.123 115.956L212.098 116.398ZM212.871 118.809C212.283 118.151 212.001 117.271 212.098 116.398L208.123 115.957C207.9 117.963 208.545 119.972 209.89 121.475L212.871 118.809ZM215.181 119.84C214.299 119.84 213.457 119.464 212.871 118.809L209.89 121.475C211.236 122.981 213.164 123.84 215.181 123.84V119.84ZM235.581 119.84H215.181V123.84H235.581V119.84ZM237.891 118.809C237.305 119.464 236.463 119.84 235.581 119.84V123.84C237.598 123.84 239.526 122.981 240.872 121.475L237.891 118.809Z" fill="url(#paint1_linear)" mask="url(#path-1-inside-1)"/>
<defs>
<linearGradient id="paint0_linear" x1="397.063" y1="-8.12377" x2="347.202" y2="312.591" gradientUnits="userSpaceOnUse">
<stop stop-color="#ED784B"/>
<stop offset="1" stop-color="#EA39B1"/>
</linearGradient>
<linearGradient id="paint1_linear" x1="397.063" y1="-8.12377" x2="347.202" y2="312.591" gradientUnits="userSpaceOnUse">
<stop stop-color="#ED784B"/>
<stop offset="1" stop-color="#EA39B1"/>
</linearGradient>
</defs>
</svg>
