<svg width="32" height="34" viewBox="0 0 32 34" fill="none" xmlns="http://www.w3.org/2000/svg">
<path d="M25.4442 20.831C26.0004 21.045 26.2144 21.8786 26.257 22.2422C26.3427 22.9056 26.1506 23.1622 25.9366 23.1622C25.7226 23.1622 25.4229 22.9056 25.1026 22.3925C24.7816 21.8786 24.6533 21.3016 24.8248 21.0018C24.9311 20.809 25.1664 20.7239 25.4448 20.831H25.4442ZM22.1944 23.248C22.5366 23.248 22.9214 23.3975 23.2637 23.6967C23.9263 24.2531 24.119 24.8945 23.7767 25.3652C23.584 25.6005 23.2637 25.7501 22.9002 25.7501C22.5366 25.7501 22.1518 25.6218 21.8953 25.3864C21.2965 24.8733 21.1257 24.0171 21.5098 23.5471C21.66 23.3543 21.8953 23.248 22.1944 23.248ZM14.7112 29.4287C6.58534 29.4287 0 22.8411 0 14.714C0 6.58691 6.586 0 14.7105 0C22.8357 0 29.4217 6.58758 29.4217 14.714C29.4217 17.4727 28.6521 20.0612 27.3482 22.2642C27.305 22.328 27.198 22.3067 27.1767 22.2209C26.6637 18.6068 24.4613 16.6172 21.254 16.0189C20.9755 15.9757 20.933 15.8049 21.2965 15.7623C22.2801 15.6766 23.6697 15.6978 24.3968 15.8261C24.4393 15.4625 24.4613 15.0776 24.4613 14.6928C24.4613 9.32432 20.0989 4.96096 14.7318 4.96096C9.36529 4.96096 5.00297 9.32432 5.00297 14.6928C5.00297 20.0612 9.36528 24.4246 14.7324 24.4246H15.181C15.0286 23.5562 14.9641 22.6748 14.9883 21.7935C15.0102 21.1946 15.1385 21.1088 15.395 21.5795C16.7421 23.9107 18.6668 26.0066 22.4296 26.8409C25.5086 27.5256 28.5876 28.3166 31.9019 32.5297C32.201 32.8934 31.7524 33.2782 31.4101 32.9791C28.032 29.9845 24.953 29.0006 22.1518 29.0006C19.0084 29.0226 16.8704 29.4287 14.7105 29.4287H14.7112Z" fill="#FF8C00"/>
</svg>
