<svg width="561" height="677" viewBox="0 0 561 677" fill="none" xmlns="http://www.w3.org/2000/svg">
<circle cx="157.5" cy="177.5" r="30.5" fill="#0F81B8"/>
<circle cx="157.5" cy="173.5" r="30.5" fill="#039BE5"/>
<circle cx="409.5" cy="177.5" r="30.5" fill="#D37F18"/>
<circle cx="409.5" cy="173.5" r="30.5" fill="#FF8C00"/>
<path d="M419.444 180.121C420 180.335 420.214 181.169 420.257 181.532C420.343 182.196 420.151 182.452 419.937 182.452C419.723 182.452 419.423 182.196 419.103 181.682C418.782 181.169 418.653 180.592 418.825 180.292C418.931 180.099 419.166 180.014 419.445 180.121H419.444ZM416.194 182.538C416.537 182.538 416.921 182.688 417.264 182.987C417.926 183.543 418.119 184.185 417.777 184.655C417.584 184.891 417.264 185.04 416.9 185.04C416.537 185.04 416.152 184.912 415.895 184.676C415.297 184.163 415.126 183.307 415.51 182.837C415.66 182.644 415.895 182.538 416.194 182.538ZM408.711 188.719C400.585 188.719 394 182.131 394 174.004C394 165.877 400.586 159.29 408.711 159.29C416.836 159.29 423.422 165.878 423.422 174.004C423.422 176.763 422.652 179.351 421.348 181.554C421.305 181.618 421.198 181.597 421.177 181.511C420.664 177.897 418.461 175.907 415.254 175.309C414.976 175.266 414.933 175.095 415.297 175.052C416.28 174.967 417.67 174.988 418.397 175.116C418.439 174.753 418.461 174.368 418.461 173.983C418.461 168.614 414.099 164.251 408.732 164.251C403.365 164.251 399.003 168.614 399.003 173.983C399.003 179.351 403.365 183.715 408.732 183.715H409.181C409.029 182.846 408.964 181.965 408.988 181.084C409.01 180.485 409.139 180.399 409.395 180.87C410.742 183.201 412.667 185.297 416.43 186.131C419.509 186.816 422.588 187.607 425.902 191.82C426.201 192.183 425.752 192.568 425.41 192.269C422.032 189.274 418.953 188.291 416.152 188.291C413.008 188.313 410.87 188.719 408.711 188.719H408.711Z" fill="white"/>
<g clip-path="url(#clip0)">
<path d="M153.567 178.814L153.153 184.63C153.745 184.63 154.001 184.376 154.309 184.071L157.083 181.42L162.83 185.629C163.885 186.217 164.627 185.907 164.912 184.659L168.685 166.98L168.686 166.979C169.02 165.421 168.122 164.812 167.095 165.194L144.918 173.684C143.404 174.272 143.427 175.116 144.661 175.498L150.33 177.262L163.5 169.021C164.12 168.611 164.684 168.838 164.22 169.248L153.567 178.814Z" fill="white"/>
</g>
<path opacity="0.5" d="M259 246V190C259 188.895 258.105 188 257 188H198" stroke="#7C7476" stroke-width="3" stroke-linecap="round" stroke-dasharray="4 4"/>
<path opacity="0.5" d="M307 246V190C307 188.895 307.895 188 309 188H368" stroke="#7C7476" stroke-width="3" stroke-linecap="round" stroke-dasharray="4 4"/>
<rect x="246" y="268" width="76" height="77" rx="10" fill="#D8D8D8"/>
<rect x="246" y="260" width="76" height="77" rx="10" fill="white"/>
<path opacity="0.5" d="M274.5 360.5L274.5 468.434C274.5 469.1 274.168 469.723 273.615 470.094L243.385 490.406C242.832 490.777 242.5 491.4 242.5 492.066L242.5 587.5" stroke="#A863C8" stroke-width="3" stroke-linecap="round" stroke-dasharray="4 4"/>
<path opacity="0.5" d="M295 360.5L295 468.434C295 469.1 295.332 469.723 295.885 470.094L326.115 490.406C326.668 490.777 327 491.4 327 492.066L327 587.5" stroke="#EB597C" stroke-width="3" stroke-linecap="round" stroke-dasharray="4 4"/>
<line opacity="0.5" x1="285.5" y1="167.5" x2="285.5" y2="247.5" stroke="#7C7476" stroke-width="3" stroke-linecap="round" stroke-dasharray="4 4"/>
<path opacity="0.5" d="M315 359V453C315 454.105 315.895 455 317 455H409.5C410.605 455 411.5 455.895 411.5 457V591" stroke="#ED7E40" stroke-width="3" stroke-linecap="round" stroke-dasharray="4 4"/>
<path opacity="0.5" d="M253 359V453C253 454.105 252.105 455 251 455H158C156.895 455 156 455.895 156 457V591" stroke="#5761D7" stroke-width="3" stroke-linecap="round" stroke-dasharray="4 4"/>
<rect x="156.474" y="602.38" width="52.3074" height="52.9957" rx="10" transform="rotate(45 156.474 602.38)" fill="#5761D7"/>
<rect x="156.474" y="596.707" width="51.3074" height="51.9957" rx="9.5" transform="rotate(45 156.474 596.707)" fill="#FFFBFB" stroke="#5761D7"/>
<g filter="url(#filter0_i)">
<circle cx="156" cy="634" r="10" fill="#ABB0EB"/>
</g>
<rect x="241.934" y="602.38" width="52.3074" height="52.9957" rx="10" transform="rotate(45 241.934 602.38)" fill="#A863C8"/>
<rect x="241.934" y="596.707" width="51.3074" height="51.9957" rx="9.5" transform="rotate(45 241.934 596.707)" fill="#FFFBFB" stroke="#A863C8"/>
<g filter="url(#filter1_i)">
<circle cx="241.46" cy="634" r="10" fill="#D49FED"/>
</g>
<rect x="327.395" y="602.38" width="52.3074" height="52.9957" rx="10" transform="rotate(45 327.395 602.38)" fill="#EB597C"/>
<rect x="327.395" y="596.707" width="51.3074" height="51.9957" rx="9.5" transform="rotate(45 327.395 596.707)" fill="#FFFBFB" stroke="#EB597C"/>
<g filter="url(#filter2_i)">
<circle cx="326.921" cy="634" r="10" fill="#F5ACBD"/>
</g>
<rect x="412.855" y="602.38" width="52.3074" height="52.9957" rx="10" transform="rotate(45 412.855 602.38)" fill="#EE7F41"/>
<rect x="412.855" y="596.707" width="51.3074" height="51.9957" rx="9.5" transform="rotate(45 412.855 596.707)" fill="#FFFBFB" stroke="#EE7F41"/>
<g filter="url(#filter3_i)">
<circle cx="412.382" cy="634" r="10" fill="#F6BFA0"/>
</g>
<g filter="url(#filter4_d)">
<circle cx="251" cy="436" r="10" fill="url(#paint0_radial)"/>
</g>
<g filter="url(#filter5_d)">
<circle cx="156" cy="634" r="10" fill="url(#paint1_radial)"/>
</g>
<g filter="url(#filter6_d)">
<circle cx="156" cy="583" r="10" fill="url(#paint2_radial)"/>
</g>
<g filter="url(#filter7_d)">
<circle cx="156" cy="557" r="10" fill="url(#paint3_radial)"/>
</g>
<g filter="url(#filter8_d)">
<circle cx="295" cy="379" r="10" fill="url(#paint4_radial)"/>
</g>
<g filter="url(#filter9_d)">
<circle cx="327" cy="634" r="10" fill="url(#paint5_radial)"/>
</g>
<g filter="url(#filter10_d)">
<circle cx="285" cy="175" r="10" fill="url(#paint6_radial)"/>
</g>
<g filter="url(#filter11_d)">
<circle cx="285" cy="205" r="10" fill="url(#paint7_radial)"/>
</g>
<g filter="url(#filter12_d)">
<circle cx="222" cy="188" r="10" fill="url(#paint8_radial)"/>
</g>
<g filter="url(#filter13_d)">
<circle cx="317" cy="416" r="10" fill="url(#paint9_radial)"/>
</g>
<g filter="url(#filter14_d)">
<circle cx="337" cy="188" r="10" fill="url(#paint10_radial)"/>
</g>
<g filter="url(#filter15_d)">
<circle cx="285" cy="233" r="10" fill="url(#paint11_radial)"/>
</g>
<g filter="url(#filter16_d)">
<circle cx="412" cy="510" r="10" fill="url(#paint12_radial)"/>
</g>
<circle cx="283.5" cy="84.5" r="74.5" fill="url(#paint13_linear)"/>
<circle cx="283.5" cy="74.5" r="74.5" fill="url(#paint14_linear)"/>
<path fill-rule="evenodd" clip-rule="evenodd" d="M264.052 91.017C262.175 88.7914 260.65 86.2587 259.564 83.5052L251.108 85.7711C252.638 90.0121 254.95 93.8798 257.869 97.2003L264.052 91.017ZM263.625 56.663C261.755 58.9951 260.263 61.6436 259.242 64.5154L250.859 62.2692C252.322 57.9268 254.599 53.9584 257.507 50.5452L263.625 56.663ZM275.104 48.288C272.229 49.3849 269.589 50.9579 267.28 52.9107L261.187 46.8169C264.579 43.8482 268.538 41.512 272.881 39.9923L275.104 48.288ZM284.664 49.5261L284.706 49.5261L284.748 49.5261C286.025 49.5261 287.279 49.6256 288.502 49.8174L288.499 49.829C290.253 50.109 291.944 50.578 293.55 51.2145L293.557 51.1903C295.928 52.1241 298.116 53.4237 300.049 55.0197L300.025 55.0439C301.375 56.1585 302.601 57.4171 303.681 58.796L303.705 58.772C305.231 60.723 306.462 62.9156 307.332 65.2829L307.309 65.289C307.909 66.9085 308.339 68.6098 308.579 70.3716L308.589 70.3689C308.73 71.4195 308.802 72.4915 308.802 73.5805L308.802 73.6222L308.802 73.664C308.802 86.995 297.995 97.8019 284.664 97.8019C271.333 97.8019 260.526 86.995 260.526 73.664C260.526 60.333 271.333 49.5261 284.664 49.5261ZM289.284 46.8979C287.809 46.6489 286.293 46.5193 284.748 46.5193C283.183 46.5193 281.649 46.6521 280.157 46.907L277.94 38.6329C280.117 38.2175 282.365 38 284.664 38C287 38 289.283 38.2245 291.493 38.6532L289.284 46.8979ZM302.184 52.8849C299.869 50.9325 297.222 49.3614 294.34 48.2686L296.548 40.0279C300.876 41.5572 304.822 43.8984 308.2 46.8686L302.184 52.8849ZM310.248 64.5016C309.223 61.6223 307.724 58.9677 305.845 56.6317L311.872 50.605C314.762 54.0119 317.024 57.9687 318.478 62.2964L310.248 64.5016ZM311.366 78.482C311.657 76.8923 311.809 75.2541 311.809 73.5805C311.809 72.2229 311.709 70.8887 311.516 69.5848L319.775 67.3718C320.138 69.4143 320.328 71.517 320.328 73.664C320.328 76.0717 320.089 78.4237 319.635 80.6976L311.366 78.482ZM305.417 91.0475C307.303 88.8182 308.835 86.2797 309.925 83.5188L318.23 85.744C316.709 89.9706 314.412 93.8269 311.511 97.1413L305.417 91.0475ZM294.109 98.9785C296.867 97.9617 299.413 96.5086 301.665 94.7029L307.783 100.821C304.448 103.663 300.583 105.901 296.357 107.367L294.109 98.9785ZM280.4 100.294C281.815 100.523 283.267 100.642 284.748 100.642C286.209 100.642 287.643 100.526 289.041 100.303L291.295 108.713C289.146 109.117 286.93 109.328 284.664 109.328C282.435 109.328 280.254 109.124 278.139 108.732L280.4 100.294ZM275.334 98.9596C272.584 97.9389 270.044 96.4839 267.799 94.6779L261.605 100.872C264.953 103.712 268.832 105.945 273.072 107.402L275.334 98.9596ZM249.558 67.3435L257.977 69.5993C257.786 70.8986 257.686 72.2279 257.686 73.5805C257.686 75.2491 257.837 76.8824 258.126 78.4676L249.699 80.7257C249.241 78.4431 249 76.0816 249 73.664C249 71.5071 249.191 69.3949 249.558 67.3435ZM266.874 106.655C271.197 113.319 280.561 126.239 284.528 126.239C288.349 126.239 297.735 114.25 302.56 107.413C297.47 110.254 291.606 111.874 285.363 111.874C278.585 111.874 272.252 109.965 266.874 106.655ZM286.752 56.3749H283.077V60.551H274.725V64.7271H278.4V81.4315H274.725V85.6076H283.077V90.1179H286.752V85.6076H288.133L288.259 85.5921L288.261 85.5918L288.264 85.5915L288.268 85.5909L288.279 85.5895L288.306 85.5859C288.327 85.583 288.352 85.5793 288.382 85.5747C288.441 85.5654 288.518 85.5523 288.61 85.5343C288.794 85.4983 289.043 85.4421 289.335 85.3567C289.912 85.188 290.698 84.8939 291.5 84.3871C293.181 83.3257 294.854 81.3557 294.854 78.0906C294.854 75.2912 293.626 73.4104 292.24 72.2281C293.091 71.1567 293.684 69.6604 293.684 67.6504C293.684 64.7722 292.473 62.9195 291.084 61.8375C290.427 61.326 289.776 61.0201 289.288 60.8401C289.041 60.7493 288.829 60.688 288.667 60.6475C288.586 60.6272 288.517 60.6119 288.462 60.6007C288.435 60.5951 288.411 60.5905 288.39 60.5868L288.363 60.5818L288.351 60.5798L288.345 60.5789L288.343 60.5785L288.34 60.5781L288.174 60.551H286.752V56.3749ZM283.077 64.7271H287.752C287.765 64.7314 287.78 64.7361 287.795 64.7413L287.815 64.7484L287.827 64.7527L287.845 64.759C288.029 64.827 288.276 64.9439 288.517 65.1319C288.924 65.4489 289.508 66.1019 289.508 67.6504C289.508 69.1912 288.935 69.7448 288.593 69.9876C288.43 70.103 288.262 70.184 288.115 70.2396H283.077V64.7271ZM283.077 74.5827H288.043L288.068 74.5912C288.389 74.7019 288.804 74.8825 289.206 75.1576C289.952 75.6678 290.678 76.4959 290.678 78.0906C290.678 79.6698 289.97 80.4144 289.27 80.8563C288.882 81.1012 288.479 81.2561 288.163 81.3484C288.022 81.3896 287.907 81.4159 287.83 81.4315H283.077V74.5827Z" fill="white"/>
<g clip-path="url(#clip1)">
<path d="M296.763 298.153L296.611 298.098L296.016 296.679L296.081 296.533C297.882 292.449 297.758 292.327 297.459 292.031L295.057 289.687C294.958 289.59 294.786 289.521 294.637 289.521C294.502 289.521 294.093 289.521 290.545 291.128L290.402 291.192L288.939 290.603L288.88 290.457C287.211 286.326 287.04 286.326 286.625 286.326H283.233C282.819 286.326 282.631 286.326 281.083 290.464L281.025 290.615L279.569 291.209L279.43 291.151C277.028 290.138 275.626 289.625 275.26 289.625C275.112 289.625 274.939 289.691 274.84 289.788L272.436 292.139C272.131 292.44 272.004 292.566 273.9 296.565L273.969 296.713L273.374 298.131L273.228 298.187C269 299.821 269 299.98 269 300.406V303.73C269 304.157 269 304.334 273.236 305.853L273.388 305.906L273.983 307.32L273.92 307.464C272.119 311.55 272.233 311.661 272.539 311.966L274.938 314.313C275.039 314.409 275.213 314.478 275.361 314.478C275.495 314.478 275.904 314.478 279.454 312.872L279.596 312.806L281.061 313.398L281.118 313.545C282.788 317.675 282.959 317.675 283.374 317.675H286.768C287.194 317.675 287.371 317.675 288.919 313.533L288.977 313.383L290.436 312.793L290.574 312.849C292.974 313.865 294.375 314.377 294.739 314.377C294.886 314.377 295.06 314.313 295.161 314.213L297.569 311.858C297.872 311.556 297.998 311.432 296.1 307.436L296.029 307.286L296.623 305.875L296.765 305.819C301 304.177 301 304.017 301 303.591V300.268C301 299.841 301 299.665 296.763 298.153ZM285 307.392C281.968 307.392 279.501 304.972 279.501 302.001C279.501 299.029 281.968 296.613 285 296.613C288.031 296.613 290.497 299.029 290.497 302.001C290.497 304.972 288.031 307.392 285 307.392Z" fill="#2A382D"/>
</g>
<path d="M415.07 289.68C415.07 290.794 414.883 291.768 414.508 292.602C414.133 293.43 413.602 294.062 412.914 294.5C412.227 294.938 411.424 295.156 410.508 295.156C409.612 295.156 408.818 294.938 408.125 294.5C407.432 294.057 406.893 293.43 406.508 292.617C406.128 291.799 405.932 290.854 405.922 289.781V288.961C405.922 287.867 406.112 286.901 406.492 286.062C406.872 285.224 407.409 284.583 408.102 284.141C408.799 283.693 409.596 283.469 410.492 283.469C411.404 283.469 412.206 283.69 412.898 284.133C413.596 284.57 414.133 285.208 414.508 286.047C414.883 286.88 415.07 287.852 415.07 288.961V289.68ZM413.578 288.945C413.578 287.596 413.307 286.562 412.766 285.844C412.224 285.12 411.466 284.758 410.492 284.758C409.544 284.758 408.797 285.12 408.25 285.844C407.708 286.562 407.43 287.562 407.414 288.844V289.68C407.414 290.987 407.688 292.016 408.234 292.766C408.786 293.51 409.544 293.883 410.508 293.883C411.477 293.883 412.227 293.531 412.758 292.828C413.289 292.12 413.562 291.107 413.578 289.789V288.945ZM420.484 293.977C421 293.977 421.451 293.82 421.836 293.508C422.221 293.195 422.435 292.805 422.477 292.336H423.844C423.818 292.82 423.651 293.281 423.344 293.719C423.036 294.156 422.625 294.505 422.109 294.766C421.599 295.026 421.057 295.156 420.484 295.156C419.333 295.156 418.417 294.773 417.734 294.008C417.057 293.237 416.719 292.185 416.719 290.852V290.609C416.719 289.786 416.87 289.055 417.172 288.414C417.474 287.773 417.906 287.276 418.469 286.922C419.036 286.568 419.706 286.391 420.477 286.391C421.424 286.391 422.211 286.674 422.836 287.242C423.466 287.81 423.802 288.547 423.844 289.453H422.477C422.435 288.906 422.227 288.458 421.852 288.109C421.482 287.755 421.023 287.578 420.477 287.578C419.742 287.578 419.172 287.844 418.766 288.375C418.365 288.901 418.164 289.664 418.164 290.664V290.938C418.164 291.911 418.365 292.661 418.766 293.188C419.167 293.714 419.74 293.977 420.484 293.977ZM432.375 295H430.93V291.391H427.047V295H425.594V286.547H427.047V290.211H430.93V286.547H432.375V295ZM434.32 290.695C434.32 289.867 434.482 289.122 434.805 288.461C435.133 287.799 435.586 287.289 436.164 286.93C436.747 286.57 437.411 286.391 438.156 286.391C439.307 286.391 440.237 286.789 440.945 287.586C441.659 288.383 442.016 289.443 442.016 290.766V290.867C442.016 291.69 441.857 292.43 441.539 293.086C441.227 293.737 440.776 294.245 440.188 294.609C439.604 294.974 438.932 295.156 438.172 295.156C437.026 295.156 436.096 294.758 435.383 293.961C434.674 293.164 434.32 292.109 434.32 290.797V290.695ZM435.773 290.867C435.773 291.805 435.99 292.557 436.422 293.125C436.859 293.693 437.443 293.977 438.172 293.977C438.906 293.977 439.49 293.69 439.922 293.117C440.354 292.539 440.57 291.732 440.57 290.695C440.57 289.768 440.349 289.018 439.906 288.445C439.469 287.867 438.885 287.578 438.156 287.578C437.443 287.578 436.867 287.862 436.43 288.43C435.992 288.997 435.773 289.81 435.773 290.867ZM443.961 295V286.547H447.258C448.383 286.547 449.245 286.745 449.844 287.141C450.448 287.531 450.75 288.107 450.75 288.867C450.75 289.258 450.633 289.612 450.398 289.93C450.164 290.242 449.818 290.482 449.359 290.648C449.87 290.768 450.279 291.003 450.586 291.352C450.898 291.701 451.055 292.117 451.055 292.602C451.055 293.378 450.768 293.971 450.195 294.383C449.628 294.794 448.823 295 447.781 295H443.961ZM445.406 291.289V293.836H447.797C448.401 293.836 448.852 293.724 449.148 293.5C449.451 293.276 449.602 292.961 449.602 292.555C449.602 291.711 448.982 291.289 447.742 291.289H445.406ZM445.406 290.133H447.273C448.628 290.133 449.305 289.737 449.305 288.945C449.305 288.154 448.664 287.745 447.383 287.719H445.406V290.133ZM459.875 295H458.43V291.391H454.547V295H453.094V286.547H454.547V290.211H458.43V286.547H459.875V295ZM461.82 290.695C461.82 289.867 461.982 289.122 462.305 288.461C462.633 287.799 463.086 287.289 463.664 286.93C464.247 286.57 464.911 286.391 465.656 286.391C466.807 286.391 467.737 286.789 468.445 287.586C469.159 288.383 469.516 289.443 469.516 290.766V290.867C469.516 291.69 469.357 292.43 469.039 293.086C468.727 293.737 468.276 294.245 467.688 294.609C467.104 294.974 466.432 295.156 465.672 295.156C464.526 295.156 463.596 294.758 462.883 293.961C462.174 293.164 461.82 292.109 461.82 290.797V290.695ZM463.273 290.867C463.273 291.805 463.49 292.557 463.922 293.125C464.359 293.693 464.943 293.977 465.672 293.977C466.406 293.977 466.99 293.69 467.422 293.117C467.854 292.539 468.07 291.732 468.07 290.695C468.07 289.768 467.849 289.018 467.406 288.445C466.969 287.867 466.385 287.578 465.656 287.578C464.943 287.578 464.367 287.862 463.93 288.43C463.492 288.997 463.273 289.81 463.273 290.867ZM476.797 286.547H478.242V295H476.797V288.836L472.898 295H471.453V286.547H472.898V292.719L476.797 286.547ZM477.188 283.469C477.188 284.099 476.971 284.607 476.539 284.992C476.112 285.372 475.549 285.562 474.852 285.562C474.154 285.562 473.589 285.37 473.156 284.984C472.724 284.599 472.508 284.094 472.508 283.469H473.688C473.688 283.833 473.786 284.12 473.984 284.328C474.182 284.531 474.471 284.633 474.852 284.633C475.216 284.633 475.5 284.531 475.703 284.328C475.911 284.125 476.016 283.839 476.016 283.469H477.188ZM413.008 322H411.562V314.742H407.672V322H406.219V313.547H413.008V322ZM422.469 317.867C422.469 319.154 422.174 320.19 421.586 320.977C420.997 321.763 420.201 322.156 419.195 322.156C418.169 322.156 417.362 321.831 416.773 321.18V325.25H415.328V313.547H416.648L416.719 314.484C417.307 313.755 418.125 313.391 419.172 313.391C420.188 313.391 420.99 313.773 421.578 314.539C422.172 315.305 422.469 316.37 422.469 317.734V317.867ZM421.023 317.703C421.023 316.75 420.82 315.997 420.414 315.445C420.008 314.893 419.451 314.617 418.742 314.617C417.867 314.617 417.211 315.005 416.773 315.781V319.82C417.206 320.591 417.867 320.977 418.758 320.977C419.451 320.977 420 320.703 420.406 320.156C420.818 319.604 421.023 318.786 421.023 317.703ZM423.93 317.695C423.93 316.867 424.091 316.122 424.414 315.461C424.742 314.799 425.195 314.289 425.773 313.93C426.357 313.57 427.021 313.391 427.766 313.391C428.917 313.391 429.846 313.789 430.555 314.586C431.268 315.383 431.625 316.443 431.625 317.766V317.867C431.625 318.69 431.466 319.43 431.148 320.086C430.836 320.737 430.385 321.245 429.797 321.609C429.214 321.974 428.542 322.156 427.781 322.156C426.635 322.156 425.706 321.758 424.992 320.961C424.284 320.164 423.93 319.109 423.93 317.797V317.695ZM425.383 317.867C425.383 318.805 425.599 319.557 426.031 320.125C426.469 320.693 427.052 320.977 427.781 320.977C428.516 320.977 429.099 320.69 429.531 320.117C429.964 319.539 430.18 318.732 430.18 317.695C430.18 316.768 429.958 316.018 429.516 315.445C429.078 314.867 428.495 314.578 427.766 314.578C427.052 314.578 426.477 314.862 426.039 315.43C425.602 315.997 425.383 316.81 425.383 317.867ZM433.562 313.547H435.016V320.82H438.906V313.547H440.352V320.82H441.359L441.219 324.508H439.922V322H433.562V313.547ZM446.43 322.156C445.284 322.156 444.352 321.781 443.633 321.031C442.914 320.276 442.555 319.268 442.555 318.008V317.742C442.555 316.904 442.714 316.156 443.031 315.5C443.354 314.839 443.802 314.323 444.375 313.953C444.953 313.578 445.578 313.391 446.25 313.391C447.349 313.391 448.203 313.753 448.812 314.477C449.422 315.201 449.727 316.237 449.727 317.586V318.188H444C444.021 319.021 444.263 319.695 444.727 320.211C445.195 320.721 445.789 320.977 446.508 320.977C447.018 320.977 447.451 320.872 447.805 320.664C448.159 320.456 448.469 320.18 448.734 319.836L449.617 320.523C448.909 321.612 447.846 322.156 446.43 322.156ZM446.25 314.578C445.667 314.578 445.177 314.792 444.781 315.219C444.385 315.641 444.141 316.234 444.047 317H448.281V316.891C448.24 316.156 448.042 315.589 447.688 315.188C447.333 314.781 446.854 314.578 446.25 314.578ZM454.797 320.977C455.312 320.977 455.763 320.82 456.148 320.508C456.534 320.195 456.747 319.805 456.789 319.336H458.156C458.13 319.82 457.964 320.281 457.656 320.719C457.349 321.156 456.938 321.505 456.422 321.766C455.911 322.026 455.37 322.156 454.797 322.156C453.646 322.156 452.729 321.773 452.047 321.008C451.37 320.237 451.031 319.185 451.031 317.852V317.609C451.031 316.786 451.182 316.055 451.484 315.414C451.786 314.773 452.219 314.276 452.781 313.922C453.349 313.568 454.018 313.391 454.789 313.391C455.737 313.391 456.523 313.674 457.148 314.242C457.779 314.81 458.115 315.547 458.156 316.453H456.789C456.747 315.906 456.539 315.458 456.164 315.109C455.794 314.755 455.336 314.578 454.789 314.578C454.055 314.578 453.484 314.844 453.078 315.375C452.677 315.901 452.477 316.664 452.477 317.664V317.938C452.477 318.911 452.677 319.661 453.078 320.188C453.479 320.714 454.052 320.977 454.797 320.977ZM463.172 320.977C463.688 320.977 464.138 320.82 464.523 320.508C464.909 320.195 465.122 319.805 465.164 319.336H466.531C466.505 319.82 466.339 320.281 466.031 320.719C465.724 321.156 465.312 321.505 464.797 321.766C464.286 322.026 463.745 322.156 463.172 322.156C462.021 322.156 461.104 321.773 460.422 321.008C459.745 320.237 459.406 319.185 459.406 317.852V317.609C459.406 316.786 459.557 316.055 459.859 315.414C460.161 314.773 460.594 314.276 461.156 313.922C461.724 313.568 462.393 313.391 463.164 313.391C464.112 313.391 464.898 313.674 465.523 314.242C466.154 314.81 466.49 315.547 466.531 316.453H465.164C465.122 315.906 464.914 315.458 464.539 315.109C464.169 314.755 463.711 314.578 463.164 314.578C462.43 314.578 461.859 314.844 461.453 315.375C461.052 315.901 460.852 316.664 460.852 317.664V317.938C460.852 318.911 461.052 319.661 461.453 320.188C461.854 320.714 462.427 320.977 463.172 320.977Z" fill="#B7B4B4"/>
<path d="M35.6875 53.3906C35.5469 54.5938 35.1016 55.5234 34.3516 56.1797C33.6068 56.8307 32.6146 57.1562 31.375 57.1562C30.0312 57.1562 28.9531 56.6745 28.1406 55.7109C27.3333 54.7474 26.9297 53.4583 26.9297 51.8438V50.75C26.9297 49.6927 27.1172 48.763 27.4922 47.9609C27.8724 47.1589 28.4089 46.5443 29.1016 46.1172C29.7943 45.6849 30.5964 45.4688 31.5078 45.4688C32.7161 45.4688 33.6849 45.8073 34.4141 46.4844C35.1432 47.1562 35.5677 48.0885 35.6875 49.2812H34.1797C34.0495 48.375 33.7656 47.7188 33.3281 47.3125C32.8958 46.9062 32.2891 46.7031 31.5078 46.7031C30.5495 46.7031 29.7969 47.0573 29.25 47.7656C28.7083 48.474 28.4375 49.4818 28.4375 50.7891V51.8906C28.4375 53.125 28.6953 54.1068 29.2109 54.8359C29.7266 55.5651 30.4479 55.9297 31.375 55.9297C32.2083 55.9297 32.8464 55.7422 33.2891 55.3672C33.737 54.987 34.0339 54.3281 34.1797 53.3906H35.6875ZM41.0234 57.1562C39.8776 57.1562 38.9453 56.7812 38.2266 56.0312C37.5078 55.276 37.1484 54.2682 37.1484 53.0078V52.7422C37.1484 51.9036 37.3073 51.1562 37.625 50.5C37.9479 49.8385 38.3958 49.3229 38.9688 48.9531C39.5469 48.5781 40.1719 48.3906 40.8438 48.3906C41.9427 48.3906 42.7969 48.7526 43.4062 49.4766C44.0156 50.2005 44.3203 51.237 44.3203 52.5859V53.1875H38.5938C38.6146 54.0208 38.8568 54.6953 39.3203 55.2109C39.7891 55.7214 40.3828 55.9766 41.1016 55.9766C41.612 55.9766 42.0443 55.8724 42.3984 55.6641C42.7526 55.4557 43.0625 55.1797 43.3281 54.8359L44.2109 55.5234C43.5026 56.612 42.4401 57.1562 41.0234 57.1562ZM40.8438 49.5781C40.2604 49.5781 39.7708 49.7917 39.375 50.2188C38.9792 50.6406 38.7344 51.2344 38.6406 52H42.875V51.8906C42.8333 51.1562 42.6354 50.5885 42.2812 50.1875C41.9271 49.7812 41.4479 49.5781 40.8438 49.5781ZM53.1406 52.8672C53.1406 54.1536 52.8464 55.1901 52.2578 55.9766C51.6693 56.763 50.8724 57.1562 49.8672 57.1562C48.8411 57.1562 48.0339 56.8307 47.4453 56.1797V60.25H46V48.5469H47.3203L47.3906 49.4844C47.9792 48.7552 48.7969 48.3906 49.8438 48.3906C50.8594 48.3906 51.6615 48.7734 52.25 49.5391C52.8438 50.3047 53.1406 51.3698 53.1406 52.7344V52.8672ZM51.6953 52.7031C51.6953 51.75 51.4922 50.9974 51.0859 50.4453C50.6797 49.8932 50.1224 49.6172 49.4141 49.6172C48.5391 49.6172 47.8828 50.0052 47.4453 50.7812V54.8203C47.8776 55.5911 48.5391 55.9766 49.4297 55.9766C50.1224 55.9766 50.6719 55.7031 51.0781 55.1562C51.4896 54.6042 51.6953 53.7865 51.6953 52.7031ZM55.1172 57V48.5469H58.4141C59.5391 48.5469 60.401 48.7448 61 49.1406C61.6042 49.5312 61.9062 50.1068 61.9062 50.8672C61.9062 51.2578 61.7891 51.612 61.5547 51.9297C61.3203 52.2422 60.974 52.4818 60.5156 52.6484C61.026 52.7682 61.4349 53.0026 61.7422 53.3516C62.0547 53.7005 62.2109 54.1172 62.2109 54.6016C62.2109 55.3776 61.9245 55.9714 61.3516 56.3828C60.7839 56.7943 59.9792 57 58.9375 57H55.1172ZM56.5625 53.2891V55.8359H58.9531C59.5573 55.8359 60.0078 55.724 60.3047 55.5C60.6068 55.276 60.7578 54.9609 60.7578 54.5547C60.7578 53.7109 60.138 53.2891 58.8984 53.2891H56.5625ZM56.5625 52.1328H58.4297C59.7839 52.1328 60.4609 51.737 60.4609 50.9453C60.4609 50.1536 59.8203 49.7448 58.5391 49.7188H56.5625V52.1328ZM69.5938 48.5469H71.0391V57H69.5938V50.8359L65.6953 57H64.25V48.5469H65.6953V54.7188L69.5938 48.5469ZM76.75 55.9766C77.2656 55.9766 77.7161 55.8203 78.1016 55.5078C78.487 55.1953 78.7005 54.8047 78.7422 54.3359H80.1094C80.0833 54.8203 79.9167 55.2812 79.6094 55.7188C79.3021 56.1562 78.8906 56.5052 78.375 56.7656C77.8646 57.026 77.3229 57.1562 76.75 57.1562C75.599 57.1562 74.6823 56.7734 74 56.0078C73.3229 55.237 72.9844 54.1849 72.9844 52.8516V52.6094C72.9844 51.7865 73.1354 51.0547 73.4375 50.4141C73.7396 49.7734 74.1719 49.276 74.7344 48.9219C75.3021 48.5677 75.9714 48.3906 76.7422 48.3906C77.6901 48.3906 78.4766 48.6745 79.1016 49.2422C79.7318 49.8099 80.0677 50.5469 80.1094 51.4531H78.7422C78.7005 50.9062 78.4922 50.4583 78.1172 50.1094C77.7474 49.7552 77.2891 49.5781 76.7422 49.5781C76.0078 49.5781 75.4375 49.8438 75.0312 50.375C74.6302 50.901 74.4297 51.6641 74.4297 52.6641V52.9375C74.4297 53.9115 74.6302 54.6615 75.0312 55.1875C75.4323 55.7135 76.0052 55.9766 76.75 55.9766ZM28.8281 82.7734H34.2188V84H27.3203V72.625H28.8281V82.7734ZM35.3203 79.6953C35.3203 78.8672 35.4818 78.1224 35.8047 77.4609C36.1328 76.7995 36.5859 76.2891 37.1641 75.9297C37.7474 75.5703 38.4115 75.3906 39.1562 75.3906C40.3073 75.3906 41.237 75.7891 41.9453 76.5859C42.6589 77.3828 43.0156 78.4427 43.0156 79.7656V79.8672C43.0156 80.6901 42.8568 81.4297 42.5391 82.0859C42.2266 82.737 41.776 83.2448 41.1875 83.6094C40.6042 83.974 39.9323 84.1562 39.1719 84.1562C38.026 84.1562 37.0964 83.7578 36.3828 82.9609C35.6745 82.1641 35.3203 81.1094 35.3203 79.7969V79.6953ZM36.7734 79.8672C36.7734 80.8047 36.9896 81.5573 37.4219 82.125C37.8594 82.6927 38.4427 82.9766 39.1719 82.9766C39.9062 82.9766 40.4896 82.6901 40.9219 82.1172C41.3542 81.5391 41.5703 80.7318 41.5703 79.6953C41.5703 78.7682 41.349 78.0182 40.9062 77.4453C40.4688 76.8672 39.8854 76.5781 39.1562 76.5781C38.4427 76.5781 37.8672 76.862 37.4297 77.4297C36.9922 77.9974 36.7734 78.8099 36.7734 79.8672ZM48.2188 82.9766C48.7344 82.9766 49.1849 82.8203 49.5703 82.5078C49.9557 82.1953 50.1693 81.8047 50.2109 81.3359H51.5781C51.5521 81.8203 51.3854 82.2812 51.0781 82.7188C50.7708 83.1562 50.3594 83.5052 49.8438 83.7656C49.3333 84.026 48.7917 84.1562 48.2188 84.1562C47.0677 84.1562 46.151 83.7734 45.4688 83.0078C44.7917 82.237 44.4531 81.1849 44.4531 79.8516V79.6094C44.4531 78.7865 44.6042 78.0547 44.9062 77.4141C45.2083 76.7734 45.6406 76.276 46.2031 75.9219C46.7708 75.5677 47.4401 75.3906 48.2109 75.3906C49.1589 75.3906 49.9453 75.6745 50.5703 76.2422C51.2005 76.8099 51.5365 77.5469 51.5781 78.4531H50.2109C50.1693 77.9062 49.9609 77.4583 49.5859 77.1094C49.2161 76.7552 48.7578 76.5781 48.2109 76.5781C47.4766 76.5781 46.9062 76.8438 46.5 77.375C46.099 77.901 45.8984 78.6641 45.8984 79.6641V79.9375C45.8984 80.9115 46.099 81.6615 46.5 82.1875C46.901 82.7135 47.474 82.9766 48.2188 82.9766ZM58.4219 84C58.3385 83.8333 58.2708 83.5365 58.2188 83.1094C57.5469 83.8073 56.7448 84.1562 55.8125 84.1562C54.9792 84.1562 54.2943 83.9219 53.7578 83.4531C53.2266 82.9792 52.9609 82.3802 52.9609 81.6562C52.9609 80.776 53.2943 80.0938 53.9609 79.6094C54.6328 79.1198 55.5755 78.875 56.7891 78.875H58.1953V78.2109C58.1953 77.7057 58.0443 77.3047 57.7422 77.0078C57.4401 76.7057 56.9948 76.5547 56.4062 76.5547C55.8906 76.5547 55.4583 76.6849 55.1094 76.9453C54.7604 77.2057 54.5859 77.5208 54.5859 77.8906H53.1328C53.1328 77.4688 53.2812 77.0625 53.5781 76.6719C53.8802 76.276 54.2865 75.9635 54.7969 75.7344C55.3125 75.5052 55.8776 75.3906 56.4922 75.3906C57.4661 75.3906 58.2292 75.6354 58.7812 76.125C59.3333 76.6094 59.6198 77.2786 59.6406 78.1328V82.0234C59.6406 82.7995 59.7396 83.4167 59.9375 83.875V84H58.4219ZM56.0234 82.8984C56.4766 82.8984 56.9062 82.7812 57.3125 82.5469C57.7188 82.3125 58.013 82.0078 58.1953 81.6328V79.8984H57.0625C55.2917 79.8984 54.4062 80.4167 54.4062 81.4531C54.4062 81.9062 54.5573 82.2604 54.8594 82.5156C55.1615 82.7708 55.5495 82.8984 56.0234 82.8984ZM63.4766 84H62.0312V72H63.4766V84ZM66.0234 84V72.625H69.7422C70.9766 72.625 71.9036 72.8802 72.5234 73.3906C73.1484 73.901 73.4609 74.6562 73.4609 75.6562C73.4609 76.1875 73.3099 76.6589 73.0078 77.0703C72.7057 77.4766 72.2943 77.7917 71.7734 78.0156C72.388 78.1875 72.8724 78.5156 73.2266 79C73.5859 79.4792 73.7656 80.0521 73.7656 80.7188C73.7656 81.7396 73.4349 82.5417 72.7734 83.125C72.112 83.7083 71.1771 84 69.9688 84H66.0234ZM67.5234 78.6797V82.7734H70C70.6979 82.7734 71.2474 82.5938 71.6484 82.2344C72.0547 81.8698 72.2578 81.3698 72.2578 80.7344C72.2578 79.3646 71.513 78.6797 70.0234 78.6797H67.5234ZM67.5234 77.4766H69.7891C70.4453 77.4766 70.9688 77.3125 71.3594 76.9844C71.7552 76.6562 71.9531 76.2109 71.9531 75.6484C71.9531 75.0234 71.7708 74.5703 71.4062 74.2891C71.0417 74.0026 70.487 73.8594 69.7422 73.8594H67.5234V77.4766ZM77.3359 84H75.8906V75.5469H77.3359V84ZM75.7734 73.3047C75.7734 73.0703 75.8438 72.8724 75.9844 72.7109C76.1302 72.5495 76.3438 72.4688 76.625 72.4688C76.9062 72.4688 77.1198 72.5495 77.2656 72.7109C77.4115 72.8724 77.4844 73.0703 77.4844 73.3047C77.4844 73.5391 77.4115 73.7344 77.2656 73.8906C77.1198 74.0469 76.9062 74.125 76.625 74.125C76.3438 74.125 76.1302 74.0469 75.9844 73.8906C75.8438 73.7344 75.7734 73.5391 75.7734 73.3047ZM81.6172 73.5V75.5469H83.1953V76.6641H81.6172V81.9062C81.6172 82.2448 81.6875 82.5 81.8281 82.6719C81.9688 82.8385 82.2083 82.9219 82.5469 82.9219C82.7135 82.9219 82.9427 82.8906 83.2344 82.8281V84C82.8542 84.1042 82.4844 84.1562 82.125 84.1562C81.4792 84.1562 80.9922 83.9609 80.6641 83.5703C80.3359 83.1797 80.1719 82.625 80.1719 81.9062V76.6641H78.6328V75.5469H80.1719V73.5H81.6172ZM88.2812 82.9766C88.7969 82.9766 89.2474 82.8203 89.6328 82.5078C90.0182 82.1953 90.2318 81.8047 90.2734 81.3359H91.6406C91.6146 81.8203 91.4479 82.2812 91.1406 82.7188C90.8333 83.1562 90.4219 83.5052 89.9062 83.7656C89.3958 84.026 88.8542 84.1562 88.2812 84.1562C87.1302 84.1562 86.2135 83.7734 85.5312 83.0078C84.8542 82.237 84.5156 81.1849 84.5156 79.8516V79.6094C84.5156 78.7865 84.6667 78.0547 84.9688 77.4141C85.2708 76.7734 85.7031 76.276 86.2656 75.9219C86.8333 75.5677 87.5026 75.3906 88.2734 75.3906C89.2214 75.3906 90.0078 75.6745 90.6328 76.2422C91.263 76.8099 91.599 77.5469 91.6406 78.4531H90.2734C90.2318 77.9062 90.0234 77.4583 89.6484 77.1094C89.2786 76.7552 88.8203 76.5781 88.2734 76.5781C87.5391 76.5781 86.9688 76.8438 86.5625 77.375C86.1615 77.901 85.9609 78.6641 85.9609 79.6641V79.9375C85.9609 80.9115 86.1615 81.6615 86.5625 82.1875C86.9635 82.7135 87.5365 82.9766 88.2812 82.9766ZM92.8828 79.6953C92.8828 78.8672 93.0443 78.1224 93.3672 77.4609C93.6953 76.7995 94.1484 76.2891 94.7266 75.9297C95.3099 75.5703 95.974 75.3906 96.7188 75.3906C97.8698 75.3906 98.7995 75.7891 99.5078 76.5859C100.221 77.3828 100.578 78.4427 100.578 79.7656V79.8672C100.578 80.6901 100.419 81.4297 100.102 82.0859C99.7891 82.737 99.3385 83.2448 98.75 83.6094C98.1667 83.974 97.4948 84.1562 96.7344 84.1562C95.5885 84.1562 94.6589 83.7578 93.9453 82.9609C93.237 82.1641 92.8828 81.1094 92.8828 79.7969V79.6953ZM94.3359 79.8672C94.3359 80.8047 94.5521 81.5573 94.9844 82.125C95.4219 82.6927 96.0052 82.9766 96.7344 82.9766C97.4688 82.9766 98.0521 82.6901 98.4844 82.1172C98.9167 81.5391 99.1328 80.7318 99.1328 79.6953C99.1328 78.7682 98.9115 78.0182 98.4688 77.4453C98.0312 76.8672 97.4479 76.5781 96.7188 76.5781C96.0052 76.5781 95.4297 76.862 94.9922 77.4297C94.5547 77.9974 94.3359 78.8099 94.3359 79.8672ZM103.961 84H102.516V75.5469H103.961V84ZM102.398 73.3047C102.398 73.0703 102.469 72.8724 102.609 72.7109C102.755 72.5495 102.969 72.4688 103.25 72.4688C103.531 72.4688 103.745 72.5495 103.891 72.7109C104.036 72.8724 104.109 73.0703 104.109 73.3047C104.109 73.5391 104.036 73.7344 103.891 73.8906C103.745 74.0469 103.531 74.125 103.25 74.125C102.969 74.125 102.755 74.0469 102.609 73.8906C102.469 73.7344 102.398 73.5391 102.398 73.3047ZM107.648 75.5469L107.695 76.6094C108.341 75.7969 109.185 75.3906 110.227 75.3906C112.013 75.3906 112.914 76.3984 112.93 78.4141V84H111.484V78.4062C111.479 77.7969 111.339 77.3464 111.062 77.0547C110.792 76.763 110.367 76.6172 109.789 76.6172C109.32 76.6172 108.909 76.7422 108.555 76.9922C108.201 77.2422 107.924 77.5703 107.727 77.9766V84H106.281V75.5469H107.648Z" fill="#B7B4B4"/>
<path d="M66.1797 259.859H62.5234V270H61.0312V259.859H57.3828V258.625H66.1797V259.859ZM70.3672 270.156C69.2214 270.156 68.2891 269.781 67.5703 269.031C66.8516 268.276 66.4922 267.268 66.4922 266.008V265.742C66.4922 264.904 66.651 264.156 66.9688 263.5C67.2917 262.839 67.7396 262.323 68.3125 261.953C68.8906 261.578 69.5156 261.391 70.1875 261.391C71.2865 261.391 72.1406 261.753 72.75 262.477C73.3594 263.201 73.6641 264.237 73.6641 265.586V266.188H67.9375C67.9583 267.021 68.2005 267.695 68.6641 268.211C69.1328 268.721 69.7266 268.977 70.4453 268.977C70.9557 268.977 71.388 268.872 71.7422 268.664C72.0964 268.456 72.4062 268.18 72.6719 267.836L73.5547 268.523C72.8464 269.612 71.7839 270.156 70.3672 270.156ZM70.1875 262.578C69.6042 262.578 69.1146 262.792 68.7188 263.219C68.3229 263.641 68.0781 264.234 67.9844 265H72.2188V264.891C72.1771 264.156 71.9792 263.589 71.625 263.188C71.2708 262.781 70.7917 262.578 70.1875 262.578ZM76.9141 270H75.4688V258H76.9141V270ZM82.7422 270.156C81.5964 270.156 80.6641 269.781 79.9453 269.031C79.2266 268.276 78.8672 267.268 78.8672 266.008V265.742C78.8672 264.904 79.026 264.156 79.3438 263.5C79.6667 262.839 80.1146 262.323 80.6875 261.953C81.2656 261.578 81.8906 261.391 82.5625 261.391C83.6615 261.391 84.5156 261.753 85.125 262.477C85.7344 263.201 86.0391 264.237 86.0391 265.586V266.188H80.3125C80.3333 267.021 80.5755 267.695 81.0391 268.211C81.5078 268.721 82.1016 268.977 82.8203 268.977C83.3307 268.977 83.763 268.872 84.1172 268.664C84.4714 268.456 84.7812 268.18 85.0469 267.836L85.9297 268.523C85.2214 269.612 84.1589 270.156 82.7422 270.156ZM82.5625 262.578C81.9792 262.578 81.4896 262.792 81.0938 263.219C80.6979 263.641 80.4531 264.234 80.3594 265H84.5938V264.891C84.5521 264.156 84.3542 263.589 84 263.188C83.6458 262.781 83.1667 262.578 82.5625 262.578ZM87.375 265.703C87.375 264.385 87.6797 263.339 88.2891 262.562C88.8984 261.781 89.7057 261.391 90.7109 261.391C91.7422 261.391 92.5469 261.755 93.125 262.484L93.1953 261.547H94.5156V269.797C94.5156 270.891 94.1901 271.753 93.5391 272.383C92.8932 273.013 92.0234 273.328 90.9297 273.328C90.3203 273.328 89.724 273.198 89.1406 272.938C88.5573 272.677 88.112 272.32 87.8047 271.867L88.5547 271C89.1745 271.766 89.9323 272.148 90.8281 272.148C91.5312 272.148 92.0781 271.951 92.4688 271.555C92.8646 271.159 93.0625 270.602 93.0625 269.883V269.156C92.4844 269.823 91.6953 270.156 90.6953 270.156C89.7057 270.156 88.9036 269.758 88.2891 268.961C87.6797 268.164 87.375 267.078 87.375 265.703ZM88.8281 265.867C88.8281 266.82 89.0234 267.57 89.4141 268.117C89.8047 268.659 90.3516 268.93 91.0547 268.93C91.9661 268.93 92.6354 268.516 93.0625 267.688V263.828C92.6198 263.021 91.9557 262.617 91.0703 262.617C90.3672 262.617 89.8177 262.891 89.4219 263.438C89.026 263.984 88.8281 264.794 88.8281 265.867ZM100.789 262.844C100.57 262.807 100.333 262.789 100.078 262.789C99.1302 262.789 98.487 263.193 98.1484 264V270H96.7031V261.547H98.1094L98.1328 262.523C98.6068 261.768 99.2786 261.391 100.148 261.391C100.43 261.391 100.643 261.427 100.789 261.5V262.844ZM107.031 270C106.948 269.833 106.88 269.536 106.828 269.109C106.156 269.807 105.354 270.156 104.422 270.156C103.589 270.156 102.904 269.922 102.367 269.453C101.836 268.979 101.57 268.38 101.57 267.656C101.57 266.776 101.904 266.094 102.57 265.609C103.242 265.12 104.185 264.875 105.398 264.875H106.805V264.211C106.805 263.706 106.654 263.305 106.352 263.008C106.049 262.706 105.604 262.555 105.016 262.555C104.5 262.555 104.068 262.685 103.719 262.945C103.37 263.206 103.195 263.521 103.195 263.891H101.742C101.742 263.469 101.891 263.062 102.188 262.672C102.49 262.276 102.896 261.964 103.406 261.734C103.922 261.505 104.487 261.391 105.102 261.391C106.076 261.391 106.839 261.635 107.391 262.125C107.943 262.609 108.229 263.279 108.25 264.133V268.023C108.25 268.799 108.349 269.417 108.547 269.875V270H107.031ZM104.633 268.898C105.086 268.898 105.516 268.781 105.922 268.547C106.328 268.312 106.622 268.008 106.805 267.633V265.898H105.672C103.901 265.898 103.016 266.417 103.016 267.453C103.016 267.906 103.167 268.26 103.469 268.516C103.771 268.771 104.159 268.898 104.633 268.898ZM111.875 261.547L111.914 262.484C112.534 261.755 113.37 261.391 114.422 261.391C115.604 261.391 116.409 261.844 116.836 262.75C117.117 262.344 117.482 262.016 117.93 261.766C118.383 261.516 118.917 261.391 119.531 261.391C121.385 261.391 122.328 262.372 122.359 264.336V270H120.914V264.422C120.914 263.818 120.776 263.367 120.5 263.07C120.224 262.768 119.76 262.617 119.109 262.617C118.573 262.617 118.128 262.779 117.773 263.102C117.419 263.419 117.214 263.849 117.156 264.391V270H115.703V264.461C115.703 263.232 115.102 262.617 113.898 262.617C112.951 262.617 112.302 263.021 111.953 263.828V270H110.508V261.547H111.875Z" fill="#B7B4B4"/>
<path d="M482.008 98.6797C482.008 99.7786 481.833 100.727 481.484 101.523C481.135 102.315 480.646 102.935 480.016 103.383L482.047 104.977L481.023 105.922L478.625 104.016C478.25 104.109 477.854 104.156 477.438 104.156C476.542 104.156 475.747 103.938 475.055 103.5C474.362 103.057 473.823 102.43 473.438 101.617C473.057 100.799 472.862 99.8542 472.852 98.7812V97.9609C472.852 96.8672 473.042 95.901 473.422 95.0625C473.802 94.224 474.339 93.5833 475.031 93.1406C475.729 92.6927 476.526 92.4688 477.422 92.4688C478.339 92.4688 479.143 92.6901 479.836 93.1328C480.534 93.5755 481.07 94.2135 481.445 95.0469C481.82 95.875 482.008 96.8438 482.008 97.9531V98.6797ZM480.508 97.9453C480.508 96.6068 480.24 95.5755 479.703 94.8516C479.172 94.1224 478.411 93.7578 477.422 93.7578C476.479 93.7578 475.734 94.1198 475.188 94.8438C474.646 95.5625 474.367 96.5625 474.352 97.8438V98.6797C474.352 99.9818 474.622 101.008 475.164 101.758C475.711 102.508 476.469 102.883 477.438 102.883C478.406 102.883 479.156 102.531 479.688 101.828C480.219 101.12 480.492 100.107 480.508 98.7891V97.9453ZM485.664 104H484.219V95.5469H485.664V104ZM484.102 93.3047C484.102 93.0703 484.172 92.8724 484.312 92.7109C484.458 92.5495 484.672 92.4688 484.953 92.4688C485.234 92.4688 485.448 92.5495 485.594 92.7109C485.74 92.8724 485.812 93.0703 485.812 93.3047C485.812 93.5391 485.74 93.7344 485.594 93.8906C485.448 94.0469 485.234 94.125 484.953 94.125C484.672 94.125 484.458 94.0469 484.312 93.8906C484.172 93.7344 484.102 93.5391 484.102 93.3047ZM495.469 102.008L497.094 95.5469H498.539L496.078 104H494.906L492.852 97.5938L490.852 104H489.68L487.227 95.5469H488.664L490.328 101.875L492.297 95.5469H493.461L495.469 102.008ZM501.586 104H500.141V95.5469H501.586V104ZM500.023 93.3047C500.023 93.0703 500.094 92.8724 500.234 92.7109C500.38 92.5495 500.594 92.4688 500.875 92.4688C501.156 92.4688 501.37 92.5495 501.516 92.7109C501.661 92.8724 501.734 93.0703 501.734 93.3047C501.734 93.5391 501.661 93.7344 501.516 93.8906C501.37 94.0469 501.156 94.125 500.875 94.125C500.594 94.125 500.38 94.0469 500.234 93.8906C500.094 93.7344 500.023 93.5391 500.023 93.3047Z" fill="#B7B4B4"/>
<path d="M120.021 597.021L115.538 580.29L103.291 592.538L120.021 597.021ZM94.9186 574.04L109.414 588.535L111.536 586.414L97.0399 571.918L94.9186 574.04Z" fill="#EB5B7A"/>
<path d="M185 69L170 60.3397V77.6603L185 69ZM151 70.5H171.5V67.5H151V70.5Z" fill="#EB5B7A"/>
<path d="M127.042 215L110.311 219.483L122.559 231.73L127.042 215ZM104.061 240.102L118.556 225.606L116.435 223.485L101.939 237.981L104.061 240.102Z" fill="#EB5B7A"/>
<path d="M440 142.042L456.73 137.559L444.483 125.311L440 142.042ZM462.981 116.939L448.485 131.435L450.606 133.556L465.102 119.061L462.981 116.939Z" fill="#EB5B7A"/>
<path d="M338 306L353 297.34V314.66L338 306ZM372 307.5H351.5V304.5H372V307.5Z" fill="#EB5B7A"/>
<path d="M9.6875 546.391C9.54688 547.594 9.10156 548.523 8.35156 549.18C7.60677 549.831 6.61458 550.156 5.375 550.156C4.03125 550.156 2.95312 549.674 2.14062 548.711C1.33333 547.747 0.929688 546.458 0.929688 544.844V543.75C0.929688 542.693 1.11719 541.763 1.49219 540.961C1.8724 540.159 2.40885 539.544 3.10156 539.117C3.79427 538.685 4.59635 538.469 5.50781 538.469C6.71615 538.469 7.6849 538.807 8.41406 539.484C9.14323 540.156 9.56771 541.089 9.6875 542.281H8.17969C8.04948 541.375 7.76562 540.719 7.32812 540.312C6.89583 539.906 6.28906 539.703 5.50781 539.703C4.54948 539.703 3.79688 540.057 3.25 540.766C2.70833 541.474 2.4375 542.482 2.4375 543.789V544.891C2.4375 546.125 2.69531 547.107 3.21094 547.836C3.72656 548.565 4.44792 548.93 5.375 548.93C6.20833 548.93 6.84635 548.742 7.28906 548.367C7.73698 547.987 8.03385 547.328 8.17969 546.391H9.6875ZM14.1484 546.398H13.0938V550H11.6406V541.547H13.0938V545.125H14.0391L16.8828 541.547H18.6328L15.2891 545.609L18.9141 550H17.0781L14.1484 546.398ZM27.2969 545.867C27.2969 547.154 27.0026 548.19 26.4141 548.977C25.8255 549.763 25.0286 550.156 24.0234 550.156C22.9974 550.156 22.1901 549.831 21.6016 549.18V553.25H20.1562V541.547H21.4766L21.5469 542.484C22.1354 541.755 22.9531 541.391 24 541.391C25.0156 541.391 25.8177 541.773 26.4062 542.539C27 543.305 27.2969 544.37 27.2969 545.734V545.867ZM25.8516 545.703C25.8516 544.75 25.6484 543.997 25.2422 543.445C24.8359 542.893 24.2786 542.617 23.5703 542.617C22.6953 542.617 22.0391 543.005 21.6016 543.781V547.82C22.0339 548.591 22.6953 548.977 23.5859 548.977C24.2786 548.977 24.8281 548.703 25.2344 548.156C25.6458 547.604 25.8516 546.786 25.8516 545.703ZM34.6094 541.547H36.0547V550H34.6094V543.836L30.7109 550H29.2656V541.547H30.7109V547.719L34.6094 541.547ZM45.2891 550H43.8438V542.742H39.9531V550H38.5V541.547H45.2891V550ZM53.8906 542.719H51.0547V550H49.6094V542.719H46.8281V541.547H53.8906V542.719ZM56.875 544.461H59.0703C60.0286 544.471 60.7865 544.721 61.3438 545.211C61.901 545.701 62.1797 546.365 62.1797 547.203C62.1797 548.047 61.8932 548.724 61.3203 549.234C60.7474 549.745 59.9766 550 59.0078 550H55.4297V541.547H56.875V544.461ZM65.1953 550H63.7422V541.547H65.1953V550ZM56.875 545.641V548.82H59.0234C59.5651 548.82 59.9844 548.682 60.2812 548.406C60.5781 548.125 60.7266 547.742 60.7266 547.258C60.7266 546.789 60.5807 546.406 60.2891 546.109C60.0026 545.807 59.599 545.651 59.0781 545.641H56.875ZM71.6172 548.82L72.1172 548.203C72.6797 547.474 73 546.38 73.0781 544.922L73.2109 541.547H78.6562V548.82H79.7422V552.484H78.2969V550H72.3984V552.484H70.9531L70.9609 548.82H71.6172ZM73.3281 548.82H77.2109V542.883H74.6094L74.5234 544.898C74.4349 546.581 74.0365 547.888 73.3281 548.82ZM88.2734 541.547V550H86.8203V542.742H83.9453L83.7734 545.906C83.6797 547.359 83.4349 548.398 83.0391 549.023C82.6484 549.648 82.026 549.974 81.1719 550H80.5938V548.727L81.0078 548.695C81.4766 548.643 81.8125 548.372 82.0156 547.883C82.2188 547.393 82.349 546.487 82.4062 545.164L82.5625 541.547H88.2734ZM97.0547 541.547V550H95.6016V546.711H93.4219L91.4297 550H89.8672L91.9922 546.492C91.4505 546.294 91.0339 545.99 90.7422 545.578C90.4557 545.161 90.3125 544.677 90.3125 544.125C90.3125 543.354 90.6016 542.734 91.1797 542.266C91.7578 541.792 92.5312 541.552 93.5 541.547H97.0547ZM91.7656 544.141C91.7656 544.552 91.9062 544.885 92.1875 545.141C92.4688 545.391 92.8411 545.518 93.3047 545.523H95.6016V542.719H93.5234C92.987 542.719 92.5599 542.852 92.2422 543.117C91.9245 543.378 91.7656 543.719 91.7656 544.141ZM0.710938 572.695C0.710938 571.867 0.872396 571.122 1.19531 570.461C1.52344 569.799 1.97656 569.289 2.55469 568.93C3.13802 568.57 3.80208 568.391 4.54688 568.391C5.69792 568.391 6.6276 568.789 7.33594 569.586C8.04948 570.383 8.40625 571.443 8.40625 572.766V572.867C8.40625 573.69 8.2474 574.43 7.92969 575.086C7.61719 575.737 7.16667 576.245 6.57812 576.609C5.99479 576.974 5.32292 577.156 4.5625 577.156C3.41667 577.156 2.48698 576.758 1.77344 575.961C1.0651 575.164 0.710938 574.109 0.710938 572.797V572.695ZM2.16406 572.867C2.16406 573.805 2.38021 574.557 2.8125 575.125C3.25 575.693 3.83333 575.977 4.5625 575.977C5.29688 575.977 5.88021 575.69 6.3125 575.117C6.74479 574.539 6.96094 573.732 6.96094 572.695C6.96094 571.768 6.73958 571.018 6.29688 570.445C5.85938 569.867 5.27604 569.578 4.54688 569.578C3.83333 569.578 3.25781 569.862 2.82031 570.43C2.38281 570.997 2.16406 571.81 2.16406 572.867ZM13.9297 569.031C14.9922 569.031 15.8411 569.388 16.4766 570.102C17.1172 570.81 17.4375 571.745 17.4375 572.906V573.039C17.4375 573.836 17.2839 574.549 16.9766 575.18C16.6693 575.805 16.2266 576.292 15.6484 576.641C15.0755 576.984 14.4141 577.156 13.6641 577.156C12.5286 577.156 11.6146 576.779 10.9219 576.023C10.2292 575.263 9.88281 574.245 9.88281 572.969V572.266C9.88281 570.49 10.2109 569.078 10.8672 568.031C11.5286 566.984 12.5026 566.346 13.7891 566.117C14.5182 565.987 15.0104 565.828 15.2656 565.641C15.5208 565.453 15.6484 565.195 15.6484 564.867H16.8359C16.8359 565.518 16.6875 566.026 16.3906 566.391C16.099 566.755 15.6302 567.013 14.9844 567.164L13.9062 567.406C13.0469 567.609 12.401 567.953 11.9688 568.438C11.5417 568.917 11.263 569.557 11.1328 570.359C11.8984 569.474 12.8307 569.031 13.9297 569.031ZM13.6484 570.219C12.9401 570.219 12.3776 570.458 11.9609 570.938C11.5443 571.411 11.3359 572.07 11.3359 572.914V573.039C11.3359 573.945 11.5443 574.664 11.9609 575.195C12.3828 575.721 12.9505 575.984 13.6641 575.984C14.3828 575.984 14.9505 575.719 15.3672 575.188C15.7839 574.656 15.9922 573.88 15.9922 572.859C15.9922 572.062 15.7812 571.424 15.3594 570.945C14.9427 570.461 14.3724 570.219 13.6484 570.219ZM26.0625 572.867C26.0625 574.154 25.7682 575.19 25.1797 575.977C24.5911 576.763 23.7943 577.156 22.7891 577.156C21.763 577.156 20.9557 576.831 20.3672 576.18V580.25H18.9219V568.547H20.2422L20.3125 569.484C20.901 568.755 21.7188 568.391 22.7656 568.391C23.7812 568.391 24.5833 568.773 25.1719 569.539C25.7656 570.305 26.0625 571.37 26.0625 572.734V572.867ZM24.6172 572.703C24.6172 571.75 24.4141 570.997 24.0078 570.445C23.6016 569.893 23.0443 569.617 22.3359 569.617C21.4609 569.617 20.8047 570.005 20.3672 570.781V574.82C20.7995 575.591 21.4609 575.977 22.3516 575.977C23.0443 575.977 23.5938 575.703 24 575.156C24.4115 574.604 24.6172 573.786 24.6172 572.703ZM33.125 577C33.0417 576.833 32.974 576.536 32.9219 576.109C32.25 576.807 31.4479 577.156 30.5156 577.156C29.6823 577.156 28.9974 576.922 28.4609 576.453C27.9297 575.979 27.6641 575.38 27.6641 574.656C27.6641 573.776 27.9974 573.094 28.6641 572.609C29.3359 572.12 30.2786 571.875 31.4922 571.875H32.8984V571.211C32.8984 570.706 32.7474 570.305 32.4453 570.008C32.1432 569.706 31.6979 569.555 31.1094 569.555C30.5938 569.555 30.1615 569.685 29.8125 569.945C29.4635 570.206 29.2891 570.521 29.2891 570.891H27.8359C27.8359 570.469 27.9844 570.062 28.2812 569.672C28.5833 569.276 28.9896 568.964 29.5 568.734C30.0156 568.505 30.5807 568.391 31.1953 568.391C32.1693 568.391 32.9323 568.635 33.4844 569.125C34.0365 569.609 34.3229 570.279 34.3438 571.133V575.023C34.3438 575.799 34.4427 576.417 34.6406 576.875V577H33.125ZM30.7266 575.898C31.1797 575.898 31.6094 575.781 32.0156 575.547C32.4219 575.312 32.7161 575.008 32.8984 574.633V572.898H31.7656C29.9948 572.898 29.1094 573.417 29.1094 574.453C29.1094 574.906 29.2604 575.26 29.5625 575.516C29.8646 575.771 30.2526 575.898 30.7266 575.898ZM40.3203 569.031C41.3828 569.031 42.2318 569.388 42.8672 570.102C43.5078 570.81 43.8281 571.745 43.8281 572.906V573.039C43.8281 573.836 43.6745 574.549 43.3672 575.18C43.0599 575.805 42.6172 576.292 42.0391 576.641C41.4661 576.984 40.8047 577.156 40.0547 577.156C38.9193 577.156 38.0052 576.779 37.3125 576.023C36.6198 575.263 36.2734 574.245 36.2734 572.969V572.266C36.2734 570.49 36.6016 569.078 37.2578 568.031C37.9193 566.984 38.8932 566.346 40.1797 566.117C40.9089 565.987 41.401 565.828 41.6562 565.641C41.9115 565.453 42.0391 565.195 42.0391 564.867H43.2266C43.2266 565.518 43.0781 566.026 42.7812 566.391C42.4896 566.755 42.0208 567.013 41.375 567.164L40.2969 567.406C39.4375 567.609 38.7917 567.953 38.3594 568.438C37.9323 568.917 37.6536 569.557 37.5234 570.359C38.2891 569.474 39.2214 569.031 40.3203 569.031ZM40.0391 570.219C39.3307 570.219 38.7682 570.458 38.3516 570.938C37.9349 571.411 37.7266 572.07 37.7266 572.914V573.039C37.7266 573.945 37.9349 574.664 38.3516 575.195C38.7734 575.721 39.3411 575.984 40.0547 575.984C40.7734 575.984 41.3411 575.719 41.7578 575.188C42.1745 574.656 42.3828 573.88 42.3828 572.859C42.3828 572.062 42.1719 571.424 41.75 570.945C41.3333 570.461 40.763 570.219 40.0391 570.219ZM45.0703 572.695C45.0703 571.867 45.2318 571.122 45.5547 570.461C45.8828 569.799 46.3359 569.289 46.9141 568.93C47.4974 568.57 48.1615 568.391 48.9062 568.391C50.0573 568.391 50.987 568.789 51.6953 569.586C52.4089 570.383 52.7656 571.443 52.7656 572.766V572.867C52.7656 573.69 52.6068 574.43 52.2891 575.086C51.9766 575.737 51.526 576.245 50.9375 576.609C50.3542 576.974 49.6823 577.156 48.9219 577.156C47.776 577.156 46.8464 576.758 46.1328 575.961C45.4245 575.164 45.0703 574.109 45.0703 572.797V572.695ZM46.5234 572.867C46.5234 573.805 46.7396 574.557 47.1719 575.125C47.6094 575.693 48.1927 575.977 48.9219 575.977C49.6562 575.977 50.2396 575.69 50.6719 575.117C51.1042 574.539 51.3203 573.732 51.3203 572.695C51.3203 571.768 51.099 571.018 50.6562 570.445C50.2188 569.867 49.6354 569.578 48.9062 569.578C48.1927 569.578 47.6172 569.862 47.1797 570.43C46.7422 570.997 46.5234 571.81 46.5234 572.867ZM60.6875 569.719H57.8516V577H56.4062V569.719H53.625V568.547H60.6875V569.719ZM64.7266 573.398H63.6719V577H62.2188V568.547H63.6719V572.125H64.6172L67.4609 568.547H69.2109L65.8672 572.609L69.4922 577H67.6562L64.7266 573.398ZM76.2031 568.547H77.6484V577H76.2031V570.836L72.3047 577H70.8594V568.547H72.3047V574.719L76.2031 568.547Z" fill="#B7B4B4"/>
<g filter="url(#filter17_d)">
<circle cx="243" cy="560" r="10" fill="url(#paint15_radial)"/>
</g>
<defs>
<filter id="filter0_i" x="146" y="624" width="20" height="24" filterUnits="userSpaceOnUse" color-interpolation-filters="sRGB">
<feFlood flood-opacity="0" result="BackgroundImageFix"/>
<feBlend mode="normal" in="SourceGraphic" in2="BackgroundImageFix" result="shape"/>
<feColorMatrix in="SourceAlpha" type="matrix" values="0 0 0 0 0 0 0 0 0 0 0 0 0 0 0 0 0 0 127 0" result="hardAlpha"/>
<feOffset dy="4"/>
<feGaussianBlur stdDeviation="2"/>
<feComposite in2="hardAlpha" operator="arithmetic" k2="-1" k3="1"/>
<feColorMatrix type="matrix" values="0 0 0 0 0 0 0 0 0 0 0 0 0 0 0 0 0 0 0.25 0"/>
<feBlend mode="normal" in2="shape" result="effect1_innerShadow"/>
</filter>
<filter id="filter1_i" x="231.46" y="624" width="20" height="24" filterUnits="userSpaceOnUse" color-interpolation-filters="sRGB">
<feFlood flood-opacity="0" result="BackgroundImageFix"/>
<feBlend mode="normal" in="SourceGraphic" in2="BackgroundImageFix" result="shape"/>
<feColorMatrix in="SourceAlpha" type="matrix" values="0 0 0 0 0 0 0 0 0 0 0 0 0 0 0 0 0 0 127 0" result="hardAlpha"/>
<feOffset dy="4"/>
<feGaussianBlur stdDeviation="2"/>
<feComposite in2="hardAlpha" operator="arithmetic" k2="-1" k3="1"/>
<feColorMatrix type="matrix" values="0 0 0 0 0 0 0 0 0 0 0 0 0 0 0 0 0 0 0.25 0"/>
<feBlend mode="normal" in2="shape" result="effect1_innerShadow"/>
</filter>
<filter id="filter2_i" x="316.921" y="624" width="20" height="24" filterUnits="userSpaceOnUse" color-interpolation-filters="sRGB">
<feFlood flood-opacity="0" result="BackgroundImageFix"/>
<feBlend mode="normal" in="SourceGraphic" in2="BackgroundImageFix" result="shape"/>
<feColorMatrix in="SourceAlpha" type="matrix" values="0 0 0 0 0 0 0 0 0 0 0 0 0 0 0 0 0 0 127 0" result="hardAlpha"/>
<feOffset dy="4"/>
<feGaussianBlur stdDeviation="2"/>
<feComposite in2="hardAlpha" operator="arithmetic" k2="-1" k3="1"/>
<feColorMatrix type="matrix" values="0 0 0 0 0 0 0 0 0 0 0 0 0 0 0 0 0 0 0.25 0"/>
<feBlend mode="normal" in2="shape" result="effect1_innerShadow"/>
</filter>
<filter id="filter3_i" x="402.382" y="624" width="20" height="24" filterUnits="userSpaceOnUse" color-interpolation-filters="sRGB">
<feFlood flood-opacity="0" result="BackgroundImageFix"/>
<feBlend mode="normal" in="SourceGraphic" in2="BackgroundImageFix" result="shape"/>
<feColorMatrix in="SourceAlpha" type="matrix" values="0 0 0 0 0 0 0 0 0 0 0 0 0 0 0 0 0 0 127 0" result="hardAlpha"/>
<feOffset dy="4"/>
<feGaussianBlur stdDeviation="2"/>
<feComposite in2="hardAlpha" operator="arithmetic" k2="-1" k3="1"/>
<feColorMatrix type="matrix" values="0 0 0 0 0 0 0 0 0 0 0 0 0 0 0 0 0 0 0.25 0"/>
<feBlend mode="normal" in2="shape" result="effect1_innerShadow"/>
</filter>
<filter id="filter4_d" x="239" y="425" width="24" height="24" filterUnits="userSpaceOnUse" color-interpolation-filters="sRGB">
<feFlood flood-opacity="0" result="BackgroundImageFix"/>
<feColorMatrix in="SourceAlpha" type="matrix" values="0 0 0 0 0 0 0 0 0 0 0 0 0 0 0 0 0 0 127 0"/>
<feOffset dy="1"/>
<feGaussianBlur stdDeviation="1"/>
<feColorMatrix type="matrix" values="0 0 0 0 0 0 0 0 0 0 0 0 0 0 0 0 0 0 0.25 0"/>
<feBlend mode="normal" in2="BackgroundImageFix" result="effect1_dropShadow"/>
<feBlend mode="normal" in="SourceGraphic" in2="effect1_dropShadow" result="shape"/>
</filter>
<filter id="filter5_d" x="144" y="623" width="24" height="24" filterUnits="userSpaceOnUse" color-interpolation-filters="sRGB">
<feFlood flood-opacity="0" result="BackgroundImageFix"/>
<feColorMatrix in="SourceAlpha" type="matrix" values="0 0 0 0 0 0 0 0 0 0 0 0 0 0 0 0 0 0 127 0"/>
<feOffset dy="1"/>
<feGaussianBlur stdDeviation="1"/>
<feColorMatrix type="matrix" values="0 0 0 0 0 0 0 0 0 0 0 0 0 0 0 0 0 0 0.25 0"/>
<feBlend mode="normal" in2="BackgroundImageFix" result="effect1_dropShadow"/>
<feBlend mode="normal" in="SourceGraphic" in2="effect1_dropShadow" result="shape"/>
</filter>
<filter id="filter6_d" x="144" y="572" width="24" height="24" filterUnits="userSpaceOnUse" color-interpolation-filters="sRGB">
<feFlood flood-opacity="0" result="BackgroundImageFix"/>
<feColorMatrix in="SourceAlpha" type="matrix" values="0 0 0 0 0 0 0 0 0 0 0 0 0 0 0 0 0 0 127 0"/>
<feOffset dy="1"/>
<feGaussianBlur stdDeviation="1"/>
<feColorMatrix type="matrix" values="0 0 0 0 0 0 0 0 0 0 0 0 0 0 0 0 0 0 0.25 0"/>
<feBlend mode="normal" in2="BackgroundImageFix" result="effect1_dropShadow"/>
<feBlend mode="normal" in="SourceGraphic" in2="effect1_dropShadow" result="shape"/>
</filter>
<filter id="filter7_d" x="144" y="546" width="24" height="24" filterUnits="userSpaceOnUse" color-interpolation-filters="sRGB">
<feFlood flood-opacity="0" result="BackgroundImageFix"/>
<feColorMatrix in="SourceAlpha" type="matrix" values="0 0 0 0 0 0 0 0 0 0 0 0 0 0 0 0 0 0 127 0"/>
<feOffset dy="1"/>
<feGaussianBlur stdDeviation="1"/>
<feColorMatrix type="matrix" values="0 0 0 0 0 0 0 0 0 0 0 0 0 0 0 0 0 0 0.25 0"/>
<feBlend mode="normal" in2="BackgroundImageFix" result="effect1_dropShadow"/>
<feBlend mode="normal" in="SourceGraphic" in2="effect1_dropShadow" result="shape"/>
</filter>
<filter id="filter8_d" x="283" y="368" width="24" height="24" filterUnits="userSpaceOnUse" color-interpolation-filters="sRGB">
<feFlood flood-opacity="0" result="BackgroundImageFix"/>
<feColorMatrix in="SourceAlpha" type="matrix" values="0 0 0 0 0 0 0 0 0 0 0 0 0 0 0 0 0 0 127 0"/>
<feOffset dy="1"/>
<feGaussianBlur stdDeviation="1"/>
<feColorMatrix type="matrix" values="0 0 0 0 0 0 0 0 0 0 0 0 0 0 0 0 0 0 0.25 0"/>
<feBlend mode="normal" in2="BackgroundImageFix" result="effect1_dropShadow"/>
<feBlend mode="normal" in="SourceGraphic" in2="effect1_dropShadow" result="shape"/>
</filter>
<filter id="filter9_d" x="315" y="623" width="24" height="24" filterUnits="userSpaceOnUse" color-interpolation-filters="sRGB">
<feFlood flood-opacity="0" result="BackgroundImageFix"/>
<feColorMatrix in="SourceAlpha" type="matrix" values="0 0 0 0 0 0 0 0 0 0 0 0 0 0 0 0 0 0 127 0"/>
<feOffset dy="1"/>
<feGaussianBlur stdDeviation="1"/>
<feColorMatrix type="matrix" values="0 0 0 0 0 0 0 0 0 0 0 0 0 0 0 0 0 0 0.25 0"/>
<feBlend mode="normal" in2="BackgroundImageFix" result="effect1_dropShadow"/>
<feBlend mode="normal" in="SourceGraphic" in2="effect1_dropShadow" result="shape"/>
</filter>
<filter id="filter10_d" x="273" y="164" width="24" height="24" filterUnits="userSpaceOnUse" color-interpolation-filters="sRGB">
<feFlood flood-opacity="0" result="BackgroundImageFix"/>
<feColorMatrix in="SourceAlpha" type="matrix" values="0 0 0 0 0 0 0 0 0 0 0 0 0 0 0 0 0 0 127 0"/>
<feOffset dy="1"/>
<feGaussianBlur stdDeviation="1"/>
<feColorMatrix type="matrix" values="0 0 0 0 0 0 0 0 0 0 0 0 0 0 0 0 0 0 0.25 0"/>
<feBlend mode="normal" in2="BackgroundImageFix" result="effect1_dropShadow"/>
<feBlend mode="normal" in="SourceGraphic" in2="effect1_dropShadow" result="shape"/>
</filter>
<filter id="filter11_d" x="273" y="194" width="24" height="24" filterUnits="userSpaceOnUse" color-interpolation-filters="sRGB">
<feFlood flood-opacity="0" result="BackgroundImageFix"/>
<feColorMatrix in="SourceAlpha" type="matrix" values="0 0 0 0 0 0 0 0 0 0 0 0 0 0 0 0 0 0 127 0"/>
<feOffset dy="1"/>
<feGaussianBlur stdDeviation="1"/>
<feColorMatrix type="matrix" values="0 0 0 0 0 0 0 0 0 0 0 0 0 0 0 0 0 0 0.25 0"/>
<feBlend mode="normal" in2="BackgroundImageFix" result="effect1_dropShadow"/>
<feBlend mode="normal" in="SourceGraphic" in2="effect1_dropShadow" result="shape"/>
</filter>
<filter id="filter12_d" x="210" y="177" width="24" height="24" filterUnits="userSpaceOnUse" color-interpolation-filters="sRGB">
<feFlood flood-opacity="0" result="BackgroundImageFix"/>
<feColorMatrix in="SourceAlpha" type="matrix" values="0 0 0 0 0 0 0 0 0 0 0 0 0 0 0 0 0 0 127 0"/>
<feOffset dy="1"/>
<feGaussianBlur stdDeviation="1"/>
<feColorMatrix type="matrix" values="0 0 0 0 0 0 0 0 0 0 0 0 0 0 0 0 0 0 0.25 0"/>
<feBlend mode="normal" in2="BackgroundImageFix" result="effect1_dropShadow"/>
<feBlend mode="normal" in="SourceGraphic" in2="effect1_dropShadow" result="shape"/>
</filter>
<filter id="filter13_d" x="305" y="405" width="24" height="24" filterUnits="userSpaceOnUse" color-interpolation-filters="sRGB">
<feFlood flood-opacity="0" result="BackgroundImageFix"/>
<feColorMatrix in="SourceAlpha" type="matrix" values="0 0 0 0 0 0 0 0 0 0 0 0 0 0 0 0 0 0 127 0"/>
<feOffset dy="1"/>
<feGaussianBlur stdDeviation="1"/>
<feColorMatrix type="matrix" values="0 0 0 0 0 0 0 0 0 0 0 0 0 0 0 0 0 0 0.25 0"/>
<feBlend mode="normal" in2="BackgroundImageFix" result="effect1_dropShadow"/>
<feBlend mode="normal" in="SourceGraphic" in2="effect1_dropShadow" result="shape"/>
</filter>
<filter id="filter14_d" x="325" y="177" width="24" height="24" filterUnits="userSpaceOnUse" color-interpolation-filters="sRGB">
<feFlood flood-opacity="0" result="BackgroundImageFix"/>
<feColorMatrix in="SourceAlpha" type="matrix" values="0 0 0 0 0 0 0 0 0 0 0 0 0 0 0 0 0 0 127 0"/>
<feOffset dy="1"/>
<feGaussianBlur stdDeviation="1"/>
<feColorMatrix type="matrix" values="0 0 0 0 0 0 0 0 0 0 0 0 0 0 0 0 0 0 0.25 0"/>
<feBlend mode="normal" in2="BackgroundImageFix" result="effect1_dropShadow"/>
<feBlend mode="normal" in="SourceGraphic" in2="effect1_dropShadow" result="shape"/>
</filter>
<filter id="filter15_d" x="273" y="222" width="24" height="24" filterUnits="userSpaceOnUse" color-interpolation-filters="sRGB">
<feFlood flood-opacity="0" result="BackgroundImageFix"/>
<feColorMatrix in="SourceAlpha" type="matrix" values="0 0 0 0 0 0 0 0 0 0 0 0 0 0 0 0 0 0 127 0"/>
<feOffset dy="1"/>
<feGaussianBlur stdDeviation="1"/>
<feColorMatrix type="matrix" values="0 0 0 0 0 0 0 0 0 0 0 0 0 0 0 0 0 0 0.25 0"/>
<feBlend mode="normal" in2="BackgroundImageFix" result="effect1_dropShadow"/>
<feBlend mode="normal" in="SourceGraphic" in2="effect1_dropShadow" result="shape"/>
</filter>
<filter id="filter16_d" x="400" y="499" width="24" height="24" filterUnits="userSpaceOnUse" color-interpolation-filters="sRGB">
<feFlood flood-opacity="0" result="BackgroundImageFix"/>
<feColorMatrix in="SourceAlpha" type="matrix" values="0 0 0 0 0 0 0 0 0 0 0 0 0 0 0 0 0 0 127 0"/>
<feOffset dy="1"/>
<feGaussianBlur stdDeviation="1"/>
<feColorMatrix type="matrix" values="0 0 0 0 0 0 0 0 0 0 0 0 0 0 0 0 0 0 0.25 0"/>
<feBlend mode="normal" in2="BackgroundImageFix" result="effect1_dropShadow"/>
<feBlend mode="normal" in="SourceGraphic" in2="effect1_dropShadow" result="shape"/>
</filter>
<filter id="filter17_d" x="231" y="549" width="24" height="24" filterUnits="userSpaceOnUse" color-interpolation-filters="sRGB">
<feFlood flood-opacity="0" result="BackgroundImageFix"/>
<feColorMatrix in="SourceAlpha" type="matrix" values="0 0 0 0 0 0 0 0 0 0 0 0 0 0 0 0 0 0 127 0"/>
<feOffset dy="1"/>
<feGaussianBlur stdDeviation="1"/>
<feColorMatrix type="matrix" values="0 0 0 0 0 0 0 0 0 0 0 0 0 0 0 0 0 0 0.25 0"/>
<feBlend mode="normal" in2="BackgroundImageFix" result="effect1_dropShadow"/>
<feBlend mode="normal" in="SourceGraphic" in2="effect1_dropShadow" result="shape"/>
</filter>
<radialGradient id="paint0_radial" cx="0" cy="0" r="1" gradientUnits="userSpaceOnUse" gradientTransform="translate(254.182 431.909) rotate(107.526) scale(9.05675)">
<stop stop-color="#939BF5"/>
<stop offset="1" stop-color="#5761D7"/>
</radialGradient>
<radialGradient id="paint1_radial" cx="0" cy="0" r="1" gradientUnits="userSpaceOnUse" gradientTransform="translate(159.182 629.909) rotate(107.526) scale(9.05675)">
<stop stop-color="#939BF5"/>
<stop offset="1" stop-color="#5761D7"/>
</radialGradient>
<radialGradient id="paint2_radial" cx="0" cy="0" r="1" gradientUnits="userSpaceOnUse" gradientTransform="translate(159.182 578.909) rotate(107.526) scale(9.05675)">
<stop stop-color="#939BF5"/>
<stop offset="1" stop-color="#5761D7"/>
</radialGradient>
<radialGradient id="paint3_radial" cx="0" cy="0" r="1" gradientUnits="userSpaceOnUse" gradientTransform="translate(159.182 552.909) rotate(107.526) scale(9.05675)">
<stop stop-color="#939BF5"/>
<stop offset="1" stop-color="#5761D7"/>
</radialGradient>
<radialGradient id="paint4_radial" cx="0" cy="0" r="1" gradientUnits="userSpaceOnUse" gradientTransform="translate(298.182 374.909) rotate(107.526) scale(9.05675)">
<stop stop-color="#ED849D"/>
<stop offset="1" stop-color="#EB597C"/>
</radialGradient>
<radialGradient id="paint5_radial" cx="0" cy="0" r="1" gradientUnits="userSpaceOnUse" gradientTransform="translate(330.182 629.909) rotate(107.526) scale(9.05675)">
<stop stop-color="#ED849D"/>
<stop offset="1" stop-color="#EB597C"/>
</radialGradient>
<radialGradient id="paint6_radial" cx="0" cy="0" r="1" gradientUnits="userSpaceOnUse" gradientTransform="translate(288.182 170.909) rotate(107.526) scale(9.05675)">
<stop stop-color="#ECECEC"/>
<stop offset="1" stop-color="#8C8C8C"/>
</radialGradient>
<radialGradient id="paint7_radial" cx="0" cy="0" r="1" gradientUnits="userSpaceOnUse" gradientTransform="translate(288.182 200.909) rotate(107.526) scale(9.05675)">
<stop stop-color="#ECECEC"/>
<stop offset="1" stop-color="#8C8C8C"/>
</radialGradient>
<radialGradient id="paint8_radial" cx="0" cy="0" r="1" gradientUnits="userSpaceOnUse" gradientTransform="translate(225.182 183.909) rotate(107.526) scale(9.05675)">
<stop stop-color="#ECECEC"/>
<stop offset="1" stop-color="#8C8C8C"/>
</radialGradient>
<radialGradient id="paint9_radial" cx="0" cy="0" r="1" gradientUnits="userSpaceOnUse" gradientTransform="translate(320.182 411.909) rotate(107.526) scale(9.05675)">
<stop stop-color="#F09968"/>
<stop offset="1" stop-color="#ED7E40"/>
</radialGradient>
<radialGradient id="paint10_radial" cx="0" cy="0" r="1" gradientUnits="userSpaceOnUse" gradientTransform="translate(340.182 183.909) rotate(107.526) scale(9.05675)">
<stop stop-color="#ECECEC"/>
<stop offset="1" stop-color="#8C8C8C"/>
</radialGradient>
<radialGradient id="paint11_radial" cx="0" cy="0" r="1" gradientUnits="userSpaceOnUse" gradientTransform="translate(288.182 228.909) rotate(107.526) scale(9.05675)">
<stop stop-color="#ECECEC"/>
<stop offset="1" stop-color="#8C8C8C"/>
</radialGradient>
<radialGradient id="paint12_radial" cx="0" cy="0" r="1" gradientUnits="userSpaceOnUse" gradientTransform="translate(415.182 505.909) rotate(107.526) scale(9.05675)">
<stop stop-color="#F09968"/>
<stop offset="1" stop-color="#ED7E40"/>
</radialGradient>
<linearGradient id="paint13_linear" x1="358" y1="9.99999" x2="178.382" y2="77.3849" gradientUnits="userSpaceOnUse">
<stop offset="0.00226757" stop-color="#331E3A"/>
<stop offset="1" stop-color="#121518"/>
</linearGradient>
<linearGradient id="paint14_linear" x1="358" y1="-1.18365e-05" x2="178.382" y2="67.3849" gradientUnits="userSpaceOnUse">
<stop offset="0.00226757" stop-color="#67297C"/>
<stop offset="1" stop-color="#242E3C"/>
</linearGradient>
<radialGradient id="paint15_radial" cx="0" cy="0" r="1" gradientUnits="userSpaceOnUse" gradientTransform="translate(246.182 555.909) rotate(107.526) scale(9.05675)">
<stop stop-color="#A863C8"/>
<stop offset="1" stop-color="#5F2A75"/>
</radialGradient>
<clipPath id="clip0">
<rect x="143" y="163" width="25" height="25" fill="white"/>
</clipPath>
<clipPath id="clip1">
<rect x="269" y="286" width="32" height="32" fill="white"/>
</clipPath>
</defs>
</svg>
