<svg width="28" height="35" viewBox="0 0 28 35" fill="none" xmlns="http://www.w3.org/2000/svg">
<path fill-rule="evenodd" clip-rule="evenodd" d="M5.84059 20.5721C5.11221 19.7085 4.52062 18.7258 4.0992 17.6573L0.817813 18.5366C1.41166 20.1822 2.30861 21.683 3.44127 22.9714L5.84059 20.5721ZM5.67492 7.24177C4.94921 8.1467 4.37026 9.17439 3.97418 10.2887L0.721385 9.41715C1.28913 7.73217 2.17245 6.19232 3.30104 4.86788L5.67492 7.24177ZM10.1291 3.99204C9.0135 4.41765 7.98909 5.02803 7.09333 5.78577L4.72876 3.42119C6.04495 2.26926 7.58138 1.36275 9.26663 0.773077L10.1291 3.99204ZM13.8386 4.47244L13.8549 4.47246L13.8711 4.47244C14.3666 4.47244 14.8532 4.51107 15.3279 4.58547L15.3267 4.59C16.0073 4.69865 16.6635 4.88063 17.2869 5.1276L17.2894 5.11823C18.2095 5.48056 19.0583 5.98485 19.8086 6.60413L19.7992 6.61352C20.3229 7.04603 20.7987 7.53438 21.2177 8.06945L21.227 8.06013C21.8192 8.81717 22.2971 9.66798 22.6347 10.5865L22.6257 10.5889C22.8582 11.2173 23.0252 11.8775 23.1185 12.5611L23.1224 12.5601C23.1768 12.9677 23.2049 13.3837 23.2049 13.8062L23.2048 13.8224L23.2049 13.8386C23.2049 19.0115 19.0115 23.2049 13.8386 23.2049C8.66584 23.2049 4.47244 19.0115 4.47244 13.8386C4.47244 8.66584 8.66584 4.47244 13.8386 4.47244ZM15.6315 3.45264C15.0591 3.35602 14.4709 3.30572 13.8711 3.30572C13.2639 3.30572 12.6687 3.35725 12.0898 3.45619L11.2295 0.2456C12.0745 0.0843853 12.9467 0 13.8386 0C14.745 0 15.631 0.0871309 16.4887 0.253464L15.6315 3.45264ZM20.6369 5.77577C19.7387 5.01818 18.7116 4.40857 17.5932 3.9845L18.4499 0.786884C20.1296 1.38031 21.6604 2.28877 22.9714 3.44127L20.6369 5.77577ZM23.766 10.2834C23.3682 9.16613 22.7866 8.13607 22.0575 7.22965L24.396 4.89111C25.5175 6.21308 26.3952 7.74845 26.9595 9.42772L23.766 10.2834ZM24.1998 15.7082C24.3126 15.0913 24.3716 14.4557 24.3716 13.8062C24.3716 13.2795 24.3328 12.7618 24.2579 12.2558L27.4626 11.3971C27.6037 12.1897 27.6773 13.0056 27.6773 13.8386C27.6773 14.7729 27.5847 15.6855 27.4082 16.5679L24.1998 15.7082ZM21.8915 20.584C22.6233 19.7189 23.2176 18.7339 23.6408 17.6626L26.8633 18.5261C26.273 20.1661 25.3817 21.6624 24.2561 22.9485L21.8915 20.584ZM17.5037 23.6614C18.5738 23.2669 19.5619 22.703 20.4355 22.0024L22.8094 24.3763C21.5154 25.479 20.0157 26.3475 18.3759 26.9163L17.5037 23.6614ZM12.1839 24.1719C12.7332 24.2607 13.2967 24.3068 13.8711 24.3068C14.4381 24.3068 14.9946 24.2618 15.5372 24.1753L16.4116 27.4386C15.5779 27.5953 14.7179 27.6773 13.8386 27.6773C12.9738 27.6773 12.1275 27.598 11.3066 27.4462L12.1839 24.1719ZM10.2185 23.6541C9.15116 23.258 8.16571 22.6935 7.29447 21.9926L4.89111 24.396C6.19023 25.4981 7.69542 26.3647 9.34074 26.9299L10.2185 23.6541ZM0.216656 11.3861L3.48338 12.2614C3.40904 12.7656 3.37054 13.2814 3.37054 13.8062C3.37054 14.4537 3.42914 15.0875 3.54133 15.7026L0.271251 16.5788C0.0933421 15.6931 0 14.7768 0 13.8386C0 13.0017 0.074297 12.1821 0.216656 11.3861ZM6.93553 26.6402C8.61307 29.2261 12.2465 34.2394 13.7858 34.2394C15.2685 34.2394 18.9106 29.5873 20.7827 26.9343C18.8079 28.0368 16.5322 28.6651 14.1099 28.6651C11.4797 28.6651 9.0225 27.9244 6.93553 26.6402ZM14.6489 7.13003H13.2229V8.75047H9.98198V10.3709H11.408V16.8527H9.98198V18.4732H13.2229V20.2233H14.6489V18.4732H15.1846L15.2338 18.4671L15.2346 18.467L15.2354 18.4669L15.2373 18.4667L15.2415 18.4662L15.252 18.4647L15.2812 18.4604C15.3041 18.4568 15.334 18.4517 15.3698 18.4447C15.4413 18.4307 15.5377 18.4089 15.651 18.3758C15.8749 18.3103 16.18 18.1962 16.4913 17.9996C17.1435 17.5877 17.7926 16.8233 17.7926 15.5564C17.7926 14.4701 17.316 13.7403 16.7785 13.2815C17.1087 12.8658 17.3388 12.2852 17.3388 11.5052C17.3388 10.3884 16.8687 9.66953 16.3298 9.24969C16.075 9.0512 15.8223 8.93249 15.6327 8.86266C15.5371 8.82744 15.4547 8.80363 15.392 8.78792C15.3606 8.78004 15.3338 8.77411 15.3125 8.76977C15.3071 8.76866 15.302 8.76765 15.2972 8.76673C15.2927 8.76586 15.2885 8.76507 15.2846 8.76437L15.2738 8.76244L15.2692 8.76167L15.2671 8.76132L15.2662 8.76115L15.2652 8.76099L15.2005 8.75047H14.6489V7.13003ZM13.2229 10.3709H15.0368L15.0535 10.3764L15.0614 10.3792L15.0661 10.3809L15.0728 10.3833C15.1445 10.4097 15.2403 10.4551 15.3339 10.528C15.4918 10.651 15.7184 10.9044 15.7184 11.5052C15.7184 12.1031 15.4959 12.3179 15.3631 12.4122C15.2999 12.4569 15.2349 12.4884 15.1778 12.5099H13.2229V10.3709ZM13.2229 14.1952H15.1498L15.1594 14.1985C15.284 14.2415 15.4452 14.3115 15.6012 14.4182C15.8905 14.6162 16.1721 14.9375 16.1721 15.5564C16.1721 16.1691 15.8975 16.458 15.626 16.6295C15.4756 16.7245 15.3188 16.7846 15.1963 16.8205C15.1416 16.8364 15.097 16.8467 15.0671 16.8527H13.2229V14.1952Z" fill="white"/>
</svg>
