<svg width="32" height="39" viewBox="0 0 32 39" fill="none" xmlns="http://www.w3.org/2000/svg">
<path d="M1.8895 14.3257C0.858862 14.3257 0 15.1502 0 16.2152V19.204C0 20.2347 0.824508 21.0935 1.8895 21.0935C2.23304 21.0935 2.50788 20.8187 2.50788 20.4751V14.9441C2.50788 14.6005 2.23304 14.3257 1.8895 14.3257Z" fill="#EEEEEE"/>
<path d="M29.5105 14.3257C29.1669 14.3257 28.8921 14.6005 28.8921 14.9441V20.4064C28.8921 20.75 29.1669 21.0248 29.5105 21.0248C30.5411 21.0248 31.4 20.2003 31.4 19.1353V16.1465C31.3656 15.1502 30.5411 14.3257 29.5105 14.3257Z" fill="#EEEEEE"/>
<path d="M26.8309 26.6591C26.4873 26.1781 26.1438 25.7315 25.7659 25.3536C27.2431 23.9107 28.1707 21.8838 28.1707 19.6508V15.8718C28.1707 11.5088 24.6322 7.97024 20.2692 7.97024H16.5245V5.87462C17.7613 5.49672 18.6889 4.36302 18.6889 2.98884C18.6889 1.33982 17.3491 0 15.7 0C14.051 0 12.7112 1.33982 12.7112 2.98884C12.7112 4.39737 13.6731 5.56543 14.9786 5.87462V7.93589H11.2683C6.90529 7.93589 3.36678 11.4744 3.36678 15.8374V19.6164C3.36678 21.8838 4.3287 23.9107 5.8403 25.3536C5.4624 25.7659 5.11886 26.1781 4.80967 26.6247C3.74468 28.1363 3.02323 29.8197 2.81711 31.2969C2.57663 32.946 2.98888 34.2171 3.95081 34.9042C4.39741 35.2133 4.91273 35.3851 5.49676 35.3851C6.45868 35.3851 7.55803 34.9729 8.69172 34.1484C10.169 36.8967 12.7799 38.7175 15.7 38.7175C15.9749 38.7175 16.2841 38.6832 16.5589 38.6488C19.1698 38.3396 21.4372 36.5532 22.7771 34.0109C23.9451 34.9042 25.1132 35.3508 26.1438 35.3508C26.7278 35.3508 27.2431 35.2133 27.6898 34.8698C28.6517 34.1827 29.0639 32.9116 28.8235 31.2626C28.583 29.854 27.8959 28.1707 26.8309 26.6591ZM20.2692 9.34442C20.9219 9.34442 21.5403 9.44748 22.1243 9.61926L21.025 13.7761H10.4438L9.34446 9.65361C9.96284 9.48184 10.5812 9.37877 11.234 9.37877H20.2692V9.34442ZM4.74096 19.6508V15.8718C4.74096 13.4326 6.08078 11.3026 8.07334 10.1689L9.03527 13.7761C7.45496 13.9823 6.2182 15.3221 6.2182 16.9711V21.2311C6.2182 21.2311 6.2182 22.2961 6.93965 22.6053C12.5051 25.5254 19.1355 25.5597 24.7353 22.674C25.4911 22.3648 25.4911 21.3685 25.4911 21.3685V17.0055C25.4911 15.2877 24.1512 13.8792 22.4335 13.7761L23.3954 10.1346C25.4224 11.2683 26.7965 13.3983 26.7965 15.8718V19.6508C26.7965 23.2923 23.8421 26.2125 20.2348 26.2125H11.3027C7.66109 26.2125 4.74096 23.258 4.74096 19.6508ZM18.7232 29.9228C16.7994 30.7129 14.6351 30.7129 12.7112 29.9571C12.6425 29.2357 12.6081 28.4455 12.5738 27.621H18.8263C18.8263 28.4112 18.7919 29.2013 18.7232 29.9228ZM4.7066 33.8048C4.19129 33.4613 3.98516 32.6024 4.15693 31.5031C4.19129 31.2969 4.22564 31.0908 4.29435 30.8503C5.53111 31.3313 6.49304 32.3276 6.974 33.5987C6.04643 34.0797 5.22192 34.1484 4.7066 33.8048ZM7.55803 33.2551C7.00836 31.8466 5.87466 30.7473 4.50048 30.1976C4.80967 29.27 5.29063 28.3425 5.94337 27.4492C6.25256 27.0026 6.56175 26.6247 6.90529 26.2468C7.11142 26.3842 7.3519 26.5217 7.55803 26.6591C7.42061 27.3805 7.3519 28.102 7.3519 28.8234C7.3519 30.2663 7.62674 31.6748 8.1077 32.9116C7.90157 33.0147 7.7298 33.1521 7.55803 33.2551ZM8.72608 28.7891C8.72608 28.2394 8.76043 27.7241 8.8635 27.1744C9.6193 27.4149 10.4094 27.5523 11.1996 27.5523C11.2683 32.3276 12.2989 35.179 13.2265 36.7593C10.6156 35.5912 8.72608 32.465 8.72608 28.7891ZM15.3908 37.3433C14.8755 36.8967 13.5357 35.3164 12.883 31.4687C13.8105 31.7435 14.7381 31.881 15.6657 31.881C16.6276 31.881 17.5895 31.7435 18.5171 31.4344C17.8987 35.2821 16.5245 36.8624 16.0092 37.3433C15.9062 37.3433 15.7687 37.3433 15.6657 37.3433C15.597 37.3433 15.4939 37.3433 15.3908 37.3433ZM18.2079 36.7593C19.1698 35.1446 20.1661 32.3276 20.2348 27.5867C21.025 27.5867 21.8151 27.4492 22.5366 27.2431C22.6053 27.7584 22.6396 28.2737 22.6396 28.7891C22.674 32.4306 20.8189 35.5225 18.2079 36.7593ZM23.8421 26.6934C24.1169 26.556 24.4261 26.3842 24.6666 26.2125C25.0101 26.5904 25.3536 27.0026 25.6628 27.4492C26.3156 28.3425 26.7965 29.3044 27.1057 30.2319C25.6972 30.7816 24.5979 31.881 24.0482 33.2895C23.8077 33.1521 23.5672 32.946 23.3267 32.7742C23.7733 31.5718 24.0138 30.2319 24.0138 28.8234C24.0482 28.102 23.9795 27.4149 23.8421 26.6934ZM26.8996 33.8048C26.3843 34.1484 25.5941 34.0797 24.7009 33.633C25.1475 32.3963 26.1094 31.4 27.3462 30.8847C27.4149 31.0908 27.4493 31.2969 27.4836 31.5031C27.5867 32.6024 27.3806 33.4613 26.8996 33.8048Z" fill="#EEEEEE"/>
<path d="M10.6499 19.8227C11.4657 19.8227 12.1271 19.1613 12.1271 18.3454C12.1271 17.5295 11.4657 16.8682 10.6499 16.8682C9.83399 16.8682 9.17261 17.5295 9.17261 18.3454C9.17261 19.1613 9.83399 19.8227 10.6499 19.8227Z" fill="#5A5A58"/>
<path d="M15.6999 4.56923C16.5158 4.56923 17.1771 3.90785 17.1771 3.09199C17.1771 2.27613 16.5158 1.61475 15.6999 1.61475C14.884 1.61475 14.2227 2.27613 14.2227 3.09199C14.2227 3.90785 14.884 4.56923 15.6999 4.56923Z" fill="#5A5A58"/>
<path d="M20.4409 19.8227C21.2567 19.8227 21.9181 19.1613 21.9181 18.3454C21.9181 17.5295 21.2567 16.8682 20.4409 16.8682C19.625 16.8682 18.9636 17.5295 18.9636 18.3454C18.9636 19.1613 19.625 19.8227 20.4409 19.8227Z" fill="#5A5A58"/>
</svg>
