<svg width="560" height="339" viewBox="0 0 560 339" fill="none" xmlns="http://www.w3.org/2000/svg">
<line x1="498" y1="303.5" x2="46" y2="303.5" stroke="#B02389"/>
<line x1="46.5" y1="66" x2="46.5" y2="303" stroke="#B02389"/>
<line x1="91.4902" y1="300" x2="91.4902" y2="308" stroke="#B02389"/>
<line x1="43" y1="253.5" x2="50.2438" y2="253.5" stroke="#B02389"/>
<line x1="43" y1="206.5" x2="50.2438" y2="206.5" stroke="#B02389"/>
<line x1="43" y1="159.5" x2="50.2438" y2="159.5" stroke="#B02389"/>
<line x1="43" y1="112.5" x2="50.2438" y2="112.5" stroke="#B02389"/>
<line x1="43" y1="65.5" x2="50.2438" y2="65.5" stroke="#B02389"/>
<line x1="136.764" y1="300" x2="136.764" y2="308" stroke="#B02389"/>
<line x1="182.037" y1="300" x2="182.037" y2="308" stroke="#B02389"/>
<line x1="227.311" y1="300" x2="227.311" y2="308" stroke="#B02389"/>
<line x1="272.584" y1="300" x2="272.584" y2="308" stroke="#B02389"/>
<line x1="317.858" y1="300" x2="317.858" y2="308" stroke="#B02389"/>
<line x1="363.132" y1="300" x2="363.132" y2="308" stroke="#B02389"/>
<line x1="408.406" y1="300" x2="408.406" y2="308" stroke="#B02389"/>
<line x1="453.679" y1="300" x2="453.679" y2="308" stroke="#B02389"/>
<line x1="498.953" y1="300" x2="498.953" y2="308" stroke="#B02389"/>
<path d="M23.376 306.885C23.376 308.261 23.0911 309.314 22.5215 310.043C21.9518 310.772 21.1178 311.137 20.0195 311.137C18.9349 311.137 18.1055 310.779 17.5312 310.063C16.957 309.348 16.6631 308.323 16.6494 306.987V305.155C16.6494 303.765 16.9365 302.71 17.5107 301.99C18.0895 301.27 18.9212 300.91 20.0059 300.91C21.0905 300.91 21.9199 301.268 22.4941 301.983C23.0684 302.694 23.3623 303.717 23.376 305.053V306.885ZM21.4004 304.875C21.4004 304.05 21.2865 303.451 21.0586 303.077C20.8353 302.699 20.4844 302.51 20.0059 302.51C19.541 302.51 19.1969 302.69 18.9736 303.05C18.7549 303.405 18.6387 303.964 18.625 304.725V307.145C18.625 307.956 18.7344 308.56 18.9531 308.956C19.1764 309.348 19.5319 309.544 20.0195 309.544C20.5026 309.544 20.8512 309.355 21.0654 308.977C21.2796 308.598 21.3913 308.02 21.4004 307.24V304.875Z" fill="#B02389"/>
<path d="M16.4209 259H9.59863V257.646L12.8184 254.215C13.2604 253.732 13.5863 253.31 13.7959 252.95C14.0101 252.59 14.1172 252.248 14.1172 251.925C14.1172 251.483 14.0055 251.136 13.7822 250.886C13.5589 250.631 13.2399 250.503 12.8252 250.503C12.3786 250.503 12.0254 250.658 11.7656 250.968C11.5104 251.273 11.3828 251.676 11.3828 252.178H9.40039C9.40039 251.572 9.54395 251.018 9.83105 250.517C10.1227 250.015 10.5329 249.623 11.0615 249.341C11.5902 249.054 12.1895 248.91 12.8594 248.91C13.8848 248.91 14.68 249.156 15.2451 249.648C15.8148 250.141 16.0996 250.836 16.0996 251.733C16.0996 252.226 15.972 252.727 15.7168 253.237C15.4616 253.748 15.0241 254.342 14.4043 255.021L12.1416 257.407H16.4209V259ZM24.3369 254.885C24.3369 256.261 24.0521 257.314 23.4824 258.043C22.9128 258.772 22.0788 259.137 20.9805 259.137C19.8958 259.137 19.0664 258.779 18.4922 258.063C17.918 257.348 17.624 256.323 17.6104 254.987V253.155C17.6104 251.765 17.8975 250.71 18.4717 249.99C19.0505 249.27 19.8822 248.91 20.9668 248.91C22.0514 248.91 22.8809 249.268 23.4551 249.983C24.0293 250.694 24.3232 251.717 24.3369 253.053V254.885ZM22.3613 252.875C22.3613 252.05 22.2474 251.451 22.0195 251.077C21.7962 250.699 21.4453 250.51 20.9668 250.51C20.502 250.51 20.1579 250.69 19.9346 251.05C19.7158 251.405 19.5996 251.964 19.5859 252.725V255.145C19.5859 255.956 19.6953 256.56 19.9141 256.956C20.1374 257.348 20.4928 257.544 20.9805 257.544C21.4635 257.544 21.8122 257.355 22.0264 256.977C22.2406 256.598 22.3522 256.02 22.3613 255.24V252.875Z" fill="#B02389"/>
<path d="M92.6055 328.568L87.5469 327.994L87.5469 322.416L89.1943 322.416L89.1943 326.374L91.334 326.62C91.0833 326.151 90.958 325.652 90.958 325.123C90.958 324.175 91.252 323.432 91.8398 322.895C92.4277 322.357 93.2503 322.088 94.3076 322.088C94.9502 322.088 95.5267 322.225 96.0371 322.498C96.543 322.767 96.9372 323.154 97.2197 323.66C97.4977 324.166 97.6367 324.763 97.6367 325.451C97.6367 326.053 97.516 326.611 97.2744 327.126C97.0283 327.641 96.6842 328.049 96.2422 328.35C95.8001 328.646 95.2965 328.803 94.7314 328.821L94.7314 326.866C95.1462 326.825 95.4697 326.682 95.7021 326.436C95.93 326.185 96.0439 325.859 96.0439 325.458C96.0439 325.011 95.8844 324.667 95.5654 324.426C95.2419 324.184 94.7861 324.063 94.1982 324.063C93.6331 324.063 93.2002 324.202 92.8994 324.48C92.5986 324.758 92.4482 325.153 92.4482 325.663C92.4482 326.132 92.5713 326.513 92.8174 326.805L92.9951 326.996L92.6055 328.568Z" fill="#B02389"/>
<path d="M138 332.103L138 334.078L130.385 334.078L131.116 336.437L129.51 336.437L128.033 332.314L128.033 332.103L138 332.103ZM133.885 322.163C135.261 322.163 136.314 322.448 137.043 323.018C137.772 323.587 138.137 324.421 138.137 325.52C138.137 326.604 137.779 327.434 137.063 328.008C136.348 328.582 135.323 328.876 133.987 328.89L132.155 328.89C130.765 328.89 129.71 328.603 128.99 328.028C128.27 327.45 127.91 326.618 127.91 325.533C127.91 324.449 128.268 323.619 128.983 323.045C129.694 322.471 130.717 322.177 132.053 322.163L133.885 322.163ZM131.875 324.139C131.05 324.139 130.451 324.253 130.077 324.48C129.699 324.704 129.51 325.055 129.51 325.533C129.51 325.998 129.69 326.342 130.05 326.565C130.405 326.784 130.964 326.9 131.725 326.914L134.145 326.914C134.956 326.914 135.56 326.805 135.956 326.586C136.348 326.363 136.544 326.007 136.544 325.52C136.544 325.036 136.355 324.688 135.977 324.474C135.598 324.259 135.02 324.148 134.24 324.139L131.875 324.139Z" fill="#B02389"/>
<path d="M189 332.103L189 334.078L181.385 334.078L182.116 336.437L180.51 336.437L179.033 332.314L179.033 332.103L189 332.103ZM184.105 328.568L179.047 327.994L179.047 322.416L180.694 322.416L180.694 326.374L182.834 326.62C182.583 326.151 182.458 325.652 182.458 325.123C182.458 324.175 182.752 323.432 183.34 322.895C183.928 322.357 184.75 322.088 185.808 322.088C186.45 322.088 187.027 322.225 187.537 322.498C188.043 322.767 188.437 323.154 188.72 323.66C188.998 324.166 189.137 324.763 189.137 325.451C189.137 326.053 189.016 326.611 188.774 327.126C188.528 327.641 188.184 328.049 187.742 328.35C187.3 328.646 186.797 328.803 186.231 328.821L186.231 326.866C186.646 326.825 186.97 326.682 187.202 326.436C187.43 326.185 187.544 325.859 187.544 325.458C187.544 325.011 187.384 324.667 187.065 324.426C186.742 324.184 186.286 324.063 185.698 324.063C185.133 324.063 184.7 324.202 184.399 324.48C184.099 324.758 183.948 325.153 183.948 325.663C183.948 326.132 184.071 326.513 184.317 326.805L184.495 326.996L184.105 328.568Z" fill="#B02389"/>
<path d="M234 330.079L234 336.901L232.646 336.901L229.215 333.682C228.732 333.24 228.31 332.914 227.95 332.704C227.59 332.49 227.248 332.383 226.925 332.383C226.483 332.383 226.136 332.494 225.886 332.718C225.631 332.941 225.503 333.26 225.503 333.675C225.503 334.121 225.658 334.475 225.968 334.734C226.273 334.99 226.676 335.117 227.178 335.117L227.178 337.1C226.572 337.1 226.018 336.956 225.517 336.669C225.015 336.377 224.623 335.967 224.341 335.438C224.054 334.91 223.91 334.311 223.91 333.641C223.91 332.615 224.156 331.82 224.648 331.255C225.141 330.685 225.836 330.4 226.733 330.4C227.226 330.4 227.727 330.528 228.237 330.783C228.748 331.038 229.342 331.476 230.021 332.096L232.407 334.358L232.407 330.079L234 330.079ZM229.885 322.163C231.261 322.163 232.314 322.448 233.043 323.018C233.772 323.587 234.137 324.421 234.137 325.52C234.137 326.604 233.779 327.434 233.063 328.008C232.348 328.582 231.323 328.876 229.987 328.89L228.155 328.89C226.765 328.89 225.71 328.603 224.99 328.028C224.27 327.45 223.91 326.618 223.91 325.533C223.91 324.449 224.268 323.619 224.983 323.045C225.694 322.471 226.717 322.177 228.053 322.163L229.885 322.163ZM227.875 324.139C227.05 324.139 226.451 324.253 226.077 324.48C225.699 324.704 225.51 325.055 225.51 325.533C225.51 325.998 225.69 326.342 226.05 326.565C226.405 326.784 226.964 326.9 227.725 326.914L230.145 326.914C230.956 326.914 231.56 326.805 231.956 326.586C232.348 326.363 232.544 326.007 232.544 325.52C232.544 325.036 232.355 324.688 231.977 324.474C231.598 324.259 231.02 324.148 230.24 324.139L227.875 324.139Z" fill="#B02389"/>
<path d="M279 330.079L279 336.901L277.646 336.901L274.215 333.682C273.732 333.24 273.31 332.914 272.95 332.704C272.59 332.49 272.248 332.383 271.925 332.383C271.483 332.383 271.136 332.494 270.886 332.718C270.631 332.941 270.503 333.26 270.503 333.675C270.503 334.121 270.658 334.475 270.968 334.734C271.273 334.99 271.676 335.117 272.178 335.117L272.178 337.1C271.572 337.1 271.018 336.956 270.517 336.669C270.015 336.377 269.623 335.967 269.341 335.438C269.054 334.91 268.91 334.311 268.91 333.641C268.91 332.615 269.156 331.82 269.648 331.255C270.141 330.685 270.836 330.4 271.733 330.4C272.226 330.4 272.727 330.528 273.237 330.783C273.748 331.038 274.342 331.476 275.021 332.096L277.407 334.358L277.407 330.079L279 330.079ZM274.105 328.568L269.047 327.994L269.047 322.416L270.694 322.416L270.694 326.374L272.834 326.62C272.583 326.151 272.458 325.652 272.458 325.123C272.458 324.175 272.752 323.432 273.34 322.895C273.928 322.357 274.75 322.088 275.808 322.088C276.45 322.088 277.027 322.225 277.537 322.498C278.043 322.767 278.437 323.154 278.72 323.66C278.998 324.166 279.137 324.763 279.137 325.451C279.137 326.053 279.016 326.611 278.774 327.126C278.528 327.641 278.184 328.049 277.742 328.35C277.3 328.646 276.797 328.803 276.231 328.821L276.231 326.866C276.646 326.825 276.97 326.682 277.202 326.436C277.43 326.185 277.544 325.859 277.544 325.458C277.544 325.011 277.384 324.667 277.065 324.426C276.742 324.184 276.286 324.063 275.698 324.063C275.133 324.063 274.7 324.202 274.399 324.48C274.099 324.758 273.948 325.153 273.948 325.663C273.948 326.132 274.071 326.513 274.317 326.805L274.495 326.996L274.105 328.568Z" fill="#B02389"/>
<path d="M318.148 334.892L318.148 333.839C318.148 333.338 318.023 332.966 317.772 332.725C317.522 332.483 317.189 332.362 316.774 332.362C316.373 332.362 316.061 332.483 315.838 332.725C315.615 332.962 315.503 333.29 315.503 333.709C315.503 334.087 315.608 334.404 315.817 334.659C316.022 334.914 316.291 335.042 316.624 335.042L316.624 337.018C316.104 337.018 315.64 336.879 315.229 336.601C314.815 336.318 314.491 335.926 314.259 335.425C314.026 334.919 313.91 334.363 313.91 333.757C313.91 332.704 314.163 331.879 314.669 331.282C315.17 330.685 315.863 330.387 316.747 330.387C317.203 330.387 317.622 330.526 318.005 330.804C318.388 331.082 318.682 331.446 318.887 331.897C319.087 331.337 319.388 330.92 319.789 330.646C320.19 330.368 320.664 330.229 321.211 330.229C322.095 330.229 322.804 330.553 323.337 331.2C323.87 331.843 324.137 332.695 324.137 333.757C324.137 334.75 323.875 335.564 323.351 336.197C322.826 336.826 322.134 337.141 321.272 337.141L321.272 335.165C321.646 335.165 321.951 335.026 322.188 334.748C322.425 334.465 322.544 334.119 322.544 333.709C322.544 333.24 322.421 332.873 322.175 332.608C321.924 332.34 321.594 332.205 321.184 332.205C320.19 332.205 319.693 332.752 319.693 333.846L319.693 334.892L318.148 334.892ZM319.885 322.163C321.261 322.163 322.314 322.448 323.043 323.018C323.772 323.587 324.137 324.421 324.137 325.52C324.137 326.604 323.779 327.434 323.063 328.008C322.348 328.582 321.323 328.876 319.987 328.89L318.155 328.89C316.765 328.89 315.71 328.603 314.99 328.028C314.27 327.45 313.91 326.618 313.91 325.533C313.91 324.449 314.268 323.619 314.983 323.045C315.694 322.471 316.717 322.177 318.053 322.163L319.885 322.163ZM317.875 324.139C317.05 324.139 316.451 324.253 316.077 324.48C315.699 324.704 315.51 325.055 315.51 325.533C315.51 325.998 315.69 326.342 316.05 326.565C316.405 326.784 316.964 326.9 317.725 326.914L320.145 326.914C320.956 326.914 321.56 326.805 321.956 326.586C322.348 326.363 322.544 326.007 322.544 325.52C322.544 325.036 322.355 324.688 321.977 324.474C321.598 324.259 321.02 324.148 320.24 324.139L317.875 324.139Z" fill="#B02389"/>
<path d="M363.148 334.892L363.148 333.839C363.148 333.338 363.023 332.966 362.772 332.725C362.522 332.483 362.189 332.362 361.774 332.362C361.373 332.362 361.061 332.483 360.838 332.725C360.615 332.962 360.503 333.29 360.503 333.709C360.503 334.087 360.608 334.404 360.817 334.659C361.022 334.914 361.291 335.042 361.624 335.042L361.624 337.018C361.104 337.018 360.64 336.879 360.229 336.601C359.815 336.318 359.491 335.926 359.259 335.425C359.026 334.919 358.91 334.363 358.91 333.757C358.91 332.704 359.163 331.879 359.669 331.282C360.17 330.685 360.863 330.387 361.747 330.387C362.203 330.387 362.622 330.526 363.005 330.804C363.388 331.082 363.682 331.446 363.887 331.897C364.087 331.337 364.388 330.92 364.789 330.646C365.19 330.368 365.664 330.229 366.211 330.229C367.095 330.229 367.804 330.553 368.337 331.2C368.87 331.843 369.137 332.695 369.137 333.757C369.137 334.75 368.875 335.564 368.351 336.197C367.826 336.826 367.134 337.141 366.272 337.141L366.272 335.165C366.646 335.165 366.951 335.026 367.188 334.748C367.425 334.465 367.544 334.119 367.544 333.709C367.544 333.24 367.421 332.873 367.175 332.608C366.924 332.34 366.594 332.205 366.184 332.205C365.19 332.205 364.693 332.752 364.693 333.846L364.693 334.892L363.148 334.892ZM364.105 328.568L359.047 327.994L359.047 322.416L360.694 322.416L360.694 326.374L362.834 326.62C362.583 326.151 362.458 325.652 362.458 325.123C362.458 324.175 362.752 323.432 363.34 322.895C363.928 322.357 364.75 322.088 365.808 322.088C366.45 322.088 367.027 322.225 367.537 322.498C368.043 322.767 368.437 323.154 368.72 323.66C368.998 324.166 369.137 324.763 369.137 325.451C369.137 326.053 369.016 326.611 368.774 327.126C368.528 327.641 368.184 328.049 367.742 328.35C367.3 328.646 366.797 328.803 366.231 328.821L366.231 326.866C366.646 326.825 366.97 326.682 367.202 326.436C367.43 326.185 367.544 325.859 367.544 325.458C367.544 325.011 367.384 324.667 367.065 324.426C366.742 324.184 366.286 324.063 365.698 324.063C365.133 324.063 364.7 324.202 364.399 324.48C364.099 324.758 363.948 325.153 363.948 325.663C363.948 326.132 364.071 326.513 364.317 326.805L364.495 326.996L364.105 328.568Z" fill="#B02389"/>
<path d="M410.254 331.057L410.254 329.929L411.847 329.929L411.847 331.057L414 331.057L414 333.032L411.847 333.032L411.847 337.113L410.603 337.202L404.047 333.053L404.047 331.057L410.254 331.057ZM410.254 335.233L410.254 333.032L406.74 333.032L406.966 333.162L410.254 335.233ZM409.885 322.163C411.261 322.163 412.314 322.448 413.043 323.018C413.772 323.587 414.137 324.421 414.137 325.52C414.137 326.604 413.779 327.434 413.063 328.008C412.348 328.582 411.323 328.876 409.987 328.89L408.155 328.89C406.765 328.89 405.71 328.603 404.99 328.028C404.27 327.45 403.91 326.618 403.91 325.533C403.91 324.449 404.268 323.619 404.983 323.045C405.694 322.471 406.717 322.177 408.053 322.163L409.885 322.163ZM407.875 324.139C407.05 324.139 406.451 324.253 406.077 324.48C405.699 324.704 405.51 325.055 405.51 325.533C405.51 325.998 405.69 326.342 406.05 326.565C406.405 326.784 406.964 326.9 407.725 326.914L410.145 326.914C410.956 326.914 411.56 326.805 411.956 326.586C412.348 326.363 412.544 326.007 412.544 325.52C412.544 325.036 412.355 324.688 411.977 324.474C411.598 324.259 411.02 324.148 410.24 324.139L407.875 324.139Z" fill="#B02389"/>
<path d="M455.254 331.057L455.254 329.929L456.847 329.929L456.847 331.057L459 331.057L459 333.032L456.847 333.032L456.847 337.113L455.603 337.202L449.047 333.053L449.047 331.057L455.254 331.057ZM455.254 335.233L455.254 333.032L451.74 333.032L451.966 333.162L455.254 335.233ZM454.105 328.568L449.047 327.994L449.047 322.416L450.694 322.416L450.694 326.374L452.834 326.62C452.583 326.151 452.458 325.652 452.458 325.123C452.458 324.175 452.752 323.432 453.34 322.895C453.928 322.357 454.75 322.088 455.808 322.088C456.45 322.088 457.027 322.225 457.537 322.498C458.043 322.767 458.437 323.154 458.72 323.66C458.998 324.166 459.137 324.763 459.137 325.451C459.137 326.053 459.016 326.611 458.774 327.126C458.528 327.641 458.184 328.049 457.742 328.35C457.3 328.646 456.797 328.803 456.231 328.821L456.231 326.866C456.646 326.825 456.97 326.682 457.202 326.436C457.43 326.185 457.544 325.859 457.544 325.458C457.544 325.011 457.384 324.667 457.065 324.426C456.742 324.184 456.286 324.063 455.698 324.063C455.133 324.063 454.7 324.202 454.399 324.48C454.099 324.758 453.948 325.153 453.948 325.663C453.948 326.132 454.071 326.513 454.317 326.805L454.495 326.996L454.105 328.568Z" fill="#B02389"/>
<path d="M499.105 336.607L494.047 336.033L494.047 330.455L495.694 330.455L495.694 334.413L497.834 334.659C497.583 334.19 497.458 333.691 497.458 333.162C497.458 332.214 497.752 331.471 498.34 330.934C498.928 330.396 499.75 330.127 500.808 330.127C501.45 330.127 502.027 330.264 502.537 330.537C503.043 330.806 503.437 331.193 503.72 331.699C503.998 332.205 504.137 332.802 504.137 333.49C504.137 334.092 504.016 334.65 503.774 335.165C503.528 335.68 503.184 336.088 502.742 336.389C502.3 336.685 501.797 336.842 501.231 336.86L501.231 334.905C501.646 334.864 501.97 334.721 502.202 334.475C502.43 334.224 502.544 333.898 502.544 333.497C502.544 333.05 502.384 332.706 502.065 332.465C501.742 332.223 501.286 332.103 500.698 332.103C500.133 332.103 499.7 332.242 499.399 332.52C499.099 332.798 498.948 333.192 498.948 333.702C498.948 334.172 499.071 334.552 499.317 334.844L499.495 335.035L499.105 336.607ZM499.885 322.163C501.261 322.163 502.314 322.448 503.043 323.018C503.772 323.587 504.137 324.421 504.137 325.52C504.137 326.604 503.779 327.434 503.063 328.008C502.348 328.582 501.323 328.876 499.987 328.89L498.155 328.89C496.765 328.89 495.71 328.603 494.99 328.028C494.27 327.45 493.91 326.618 493.91 325.533C493.91 324.449 494.268 323.619 494.983 323.045C495.694 322.471 496.717 322.177 498.053 322.163L499.885 322.163ZM497.875 324.139C497.05 324.139 496.451 324.253 496.077 324.48C495.699 324.704 495.51 325.055 495.51 325.533C495.51 325.998 495.69 326.342 496.05 326.565C496.405 326.784 496.964 326.9 497.725 326.914L500.145 326.914C500.956 326.914 501.56 326.805 501.956 326.586C502.348 326.363 502.544 326.007 502.544 325.52C502.544 325.036 502.355 324.688 501.977 324.474C501.598 324.259 501.02 324.148 500.24 324.139L497.875 324.139Z" fill="#B02389"/>
<path d="M524.576 330.669L526.511 325.604H528.985V333H527.01V328.461L525.239 333H523.913L522.177 328.536V333H520.201V325.604H522.655L524.576 330.669ZM535.165 325.604H537.141V333H535.165V328.434L532.69 333H530.708V325.604H532.69V330.163L535.165 325.604ZM545.063 333H543.081V330.156H540.627V333H538.651V325.604H540.627V328.57H543.081V325.604H545.063V333ZM549.356 330.204L550.724 325.604H552.843L549.869 334.148L549.705 334.538C549.263 335.504 548.534 335.987 547.518 335.987C547.23 335.987 546.939 335.944 546.643 335.857V334.36L546.943 334.367C547.317 334.367 547.595 334.31 547.777 334.196C547.964 334.082 548.11 333.893 548.215 333.629L548.447 333.021L545.856 325.604H547.982L549.356 330.204ZM559.761 327.189H557.389V333H555.406V327.189H553.075V325.604H559.761V327.189Z" fill="#B02389"/>
<path d="M66.835 69.5439C67.1995 69.5439 67.4958 69.4437 67.7236 69.2432C67.9515 69.0426 68.07 68.776 68.0791 68.4434H69.9316C69.9271 68.9447 69.7904 69.4049 69.5215 69.8242C69.2526 70.2389 68.8835 70.5625 68.4141 70.7949C67.9492 71.0228 67.4342 71.1367 66.8691 71.1367C65.8118 71.1367 64.9779 70.8018 64.3672 70.1318C63.7565 69.4574 63.4512 68.5277 63.4512 67.3428V67.2129C63.4512 66.0736 63.7542 65.1644 64.3604 64.4854C64.9665 63.8063 65.7982 63.4668 66.8555 63.4668C67.7806 63.4668 68.5212 63.7311 69.0771 64.2598C69.6377 64.7839 69.9225 65.4834 69.9316 66.3584H68.0791C68.07 65.9756 67.9515 65.6657 67.7236 65.4287C67.4958 65.1872 67.195 65.0664 66.8213 65.0664C66.361 65.0664 66.0124 65.235 65.7754 65.5723C65.543 65.9049 65.4268 66.4473 65.4268 67.1992V67.4043C65.4268 68.1654 65.543 68.7122 65.7754 69.0449C66.0078 69.3776 66.361 69.5439 66.835 69.5439ZM71.1621 69.4072C71.6087 68.9333 71.9118 68.4639 72.0713 67.999C72.2308 67.5342 72.3197 66.8757 72.3379 66.0234L72.3926 63.6035H77.834V69.4072H78.9004V73.2217H76.9248V71H72.543V73.2217H70.5264V69.4072H71.1621ZM73.4932 69.4072H75.8652V65.2373H74.3271L74.3135 66.126C74.2725 67.484 73.999 68.5778 73.4932 69.4072ZM83.3096 71.1367C82.2249 71.1367 81.3408 70.804 80.6572 70.1387C79.9782 69.4733 79.6387 68.5869 79.6387 67.4795V67.2881C79.6387 66.5452 79.7822 65.8822 80.0693 65.2988C80.3564 64.7109 80.762 64.2598 81.2861 63.9453C81.8148 63.6263 82.4163 63.4668 83.0908 63.4668C84.1025 63.4668 84.8978 63.7858 85.4766 64.4238C86.0599 65.0618 86.3516 65.9665 86.3516 67.1377V67.9443H81.6416C81.7054 68.4274 81.8968 68.8148 82.2158 69.1064C82.5394 69.3981 82.9473 69.5439 83.4395 69.5439C84.2005 69.5439 84.7952 69.2682 85.2236 68.7168L86.1943 69.8037C85.8981 70.223 85.4971 70.5511 84.9912 70.7881C84.4854 71.0205 83.9248 71.1367 83.3096 71.1367ZM83.084 65.0664C82.6921 65.0664 82.373 65.1986 82.127 65.4629C81.8854 65.7272 81.7305 66.1055 81.6621 66.5977H84.4102V66.4404C84.401 66.0029 84.2826 65.6657 84.0547 65.4287C83.8268 65.1872 83.5033 65.0664 83.084 65.0664ZM93.9121 63.6035V71H91.9365V65.2031H90.1934L90.0703 67.4863C89.9928 68.7031 89.7536 69.5895 89.3525 70.1455C88.9515 70.7015 88.3545 70.9863 87.5615 71H86.8916L86.8711 69.3936L87.1172 69.373C87.4727 69.3457 87.7324 69.1361 87.8965 68.7441C88.0605 68.3522 88.1631 67.6846 88.2041 66.7412L88.3408 63.6035H93.9121ZM95.1289 67.2334C95.1289 66.4997 95.2702 65.8457 95.5527 65.2715C95.8353 64.6973 96.2409 64.2529 96.7695 63.9385C97.3027 63.624 97.9202 63.4668 98.6221 63.4668C99.6201 63.4668 100.434 63.7721 101.062 64.3828C101.696 64.9935 102.049 65.8229 102.122 66.8711L102.136 67.377C102.136 68.5117 101.819 69.4232 101.186 70.1113C100.552 70.7949 99.7021 71.1367 98.6357 71.1367C97.5693 71.1367 96.7171 70.7949 96.0791 70.1113C95.4456 69.4277 95.1289 68.498 95.1289 67.3223V67.2334ZM97.1045 67.377C97.1045 68.0788 97.2367 68.6165 97.501 68.9902C97.7653 69.3594 98.1436 69.5439 98.6357 69.5439C99.1143 69.5439 99.488 69.3617 99.7568 68.9971C100.026 68.6279 100.16 68.04 100.16 67.2334C100.16 66.5452 100.026 66.012 99.7568 65.6338C99.488 65.2555 99.1097 65.0664 98.6221 65.0664C98.139 65.0664 97.7653 65.2555 97.501 65.6338C97.2367 66.0075 97.1045 66.5885 97.1045 67.377ZM106.251 68.2725H105.458V71H103.482V63.6035H105.458V66.3857H106.162L107.775 63.6035H110.271L107.851 67.124L110.496 71H107.864L106.251 68.2725Z" fill="#B02389"/>
<path d="M15.4434 208.254H16.5713V209.847H15.4434V212H13.4678V209.847H9.38672L9.29785 208.603L13.4473 202.047H15.4434V208.254ZM11.2666 208.254H13.4678V204.74L13.3379 204.966L11.2666 208.254ZM24.3369 207.885C24.3369 209.261 24.0521 210.314 23.4824 211.043C22.9128 211.772 22.0788 212.137 20.9805 212.137C19.8958 212.137 19.0664 211.779 18.4922 211.063C17.918 210.348 17.624 209.323 17.6104 207.987V206.155C17.6104 204.765 17.8975 203.71 18.4717 202.99C19.0505 202.27 19.8822 201.91 20.9668 201.91C22.0514 201.91 22.8809 202.268 23.4551 202.983C24.0293 203.694 24.3232 204.717 24.3369 206.053V207.885ZM22.3613 205.875C22.3613 205.05 22.2474 204.451 22.0195 204.077C21.7962 203.699 21.4453 203.51 20.9668 203.51C20.502 203.51 20.1579 203.69 19.9346 204.05C19.7158 204.405 19.5996 204.964 19.5859 205.725V208.145C19.5859 208.956 19.6953 209.56 19.9141 209.956C20.1374 210.348 20.4928 210.544 20.9805 210.544C21.4635 210.544 21.8122 210.355 22.0264 209.977C22.2406 209.598 22.3522 209.02 22.3613 208.24V205.875Z" fill="#B02389"/>
<path d="M14.958 154.944V156.571H14.7666C13.8734 156.585 13.1533 156.817 12.6064 157.269C12.0641 157.72 11.7383 158.346 11.6289 159.148C12.1576 158.611 12.8252 158.342 13.6318 158.342C14.4977 158.342 15.1859 158.652 15.6963 159.271C16.2067 159.891 16.4619 160.707 16.4619 161.719C16.4619 162.366 16.3206 162.951 16.0381 163.476C15.7601 164 15.3636 164.408 14.8486 164.699C14.3382 164.991 13.7594 165.137 13.1123 165.137C12.0641 165.137 11.2165 164.772 10.5693 164.043C9.92676 163.314 9.60547 162.341 9.60547 161.124V160.413C9.60547 159.333 9.80827 158.381 10.2139 157.556C10.624 156.726 11.2096 156.086 11.9707 155.635C12.7363 155.179 13.6227 154.949 14.6299 154.944H14.958ZM13.0303 159.928C12.7113 159.928 12.4219 160.012 12.1621 160.181C11.9023 160.345 11.7109 160.563 11.5879 160.837V161.438C11.5879 162.099 11.7178 162.617 11.9775 162.99C12.2373 163.359 12.6019 163.544 13.0713 163.544C13.4951 163.544 13.8369 163.378 14.0967 163.045C14.361 162.708 14.4932 162.272 14.4932 161.739C14.4932 161.197 14.361 160.759 14.0967 160.427C13.8324 160.094 13.4769 159.928 13.0303 159.928ZM24.3369 160.885C24.3369 162.261 24.0521 163.314 23.4824 164.043C22.9128 164.772 22.0788 165.137 20.9805 165.137C19.8958 165.137 19.0664 164.779 18.4922 164.063C17.918 163.348 17.624 162.323 17.6104 160.987V159.155C17.6104 157.765 17.8975 156.71 18.4717 155.99C19.0505 155.27 19.8822 154.91 20.9668 154.91C22.0514 154.91 22.8809 155.268 23.4551 155.983C24.0293 156.694 24.3232 157.717 24.3369 159.053V160.885ZM22.3613 158.875C22.3613 158.05 22.2474 157.451 22.0195 157.077C21.7962 156.699 21.4453 156.51 20.9668 156.51C20.502 156.51 20.1579 156.69 19.9346 157.05C19.7158 157.405 19.5996 157.964 19.5859 158.725V161.145C19.5859 161.956 19.6953 162.56 19.9141 162.956C20.1374 163.348 20.4928 163.544 20.9805 163.544C21.4635 163.544 21.8122 163.355 22.0264 162.977C22.2406 162.598 22.3522 162.02 22.3613 161.24V158.875Z" fill="#B02389"/>
<path d="M16.0859 110.692C16.0859 111.175 15.9652 111.604 15.7236 111.978C15.4821 112.351 15.1494 112.65 14.7256 112.873C15.2087 113.105 15.5915 113.427 15.874 113.837C16.1566 114.243 16.2979 114.721 16.2979 115.272C16.2979 116.157 15.9971 116.856 15.3955 117.371C14.7939 117.882 13.9759 118.137 12.9414 118.137C11.9069 118.137 11.0866 117.879 10.4805 117.364C9.87435 116.849 9.57129 116.152 9.57129 115.272C9.57129 114.721 9.71257 114.24 9.99512 113.83C10.2777 113.42 10.6582 113.101 11.1367 112.873C10.7129 112.65 10.3802 112.351 10.1387 111.978C9.90169 111.604 9.7832 111.175 9.7832 110.692C9.7832 109.845 10.0658 109.17 10.6309 108.669C11.196 108.163 11.9639 107.91 12.9346 107.91C13.9007 107.91 14.6663 108.161 15.2314 108.662C15.8011 109.159 16.0859 109.836 16.0859 110.692ZM14.3154 115.129C14.3154 114.696 14.1901 114.35 13.9395 114.09C13.6888 113.83 13.3516 113.7 12.9277 113.7C12.5085 113.7 12.1735 113.83 11.9229 114.09C11.6722 114.345 11.5469 114.691 11.5469 115.129C11.5469 115.553 11.6699 115.895 11.916 116.154C12.1621 116.414 12.5039 116.544 12.9414 116.544C13.3698 116.544 13.7048 116.419 13.9463 116.168C14.1924 115.917 14.3154 115.571 14.3154 115.129ZM14.1104 110.788C14.1104 110.401 14.0078 110.091 13.8027 109.858C13.5977 109.621 13.3083 109.503 12.9346 109.503C12.5654 109.503 12.2783 109.617 12.0732 109.845C11.8682 110.073 11.7656 110.387 11.7656 110.788C11.7656 111.185 11.8682 111.504 12.0732 111.745C12.2783 111.987 12.5677 112.107 12.9414 112.107C13.3151 112.107 13.6022 111.987 13.8027 111.745C14.0078 111.504 14.1104 111.185 14.1104 110.788ZM24.3369 113.885C24.3369 115.261 24.0521 116.314 23.4824 117.043C22.9128 117.772 22.0788 118.137 20.9805 118.137C19.8958 118.137 19.0664 117.779 18.4922 117.063C17.918 116.348 17.624 115.323 17.6104 113.987V112.155C17.6104 110.765 17.8975 109.71 18.4717 108.99C19.0505 108.27 19.8822 107.91 20.9668 107.91C22.0514 107.91 22.8809 108.268 23.4551 108.983C24.0293 109.694 24.3232 110.717 24.3369 112.053V113.885ZM22.3613 111.875C22.3613 111.05 22.2474 110.451 22.0195 110.077C21.7962 109.699 21.4453 109.51 20.9668 109.51C20.502 109.51 20.1579 109.69 19.9346 110.05C19.7158 110.405 19.5996 110.964 19.5859 111.725V114.145C19.5859 114.956 19.6953 115.56 19.9141 115.956C20.1374 116.348 20.4928 116.544 20.9805 116.544C21.4635 116.544 21.8122 116.355 22.0264 115.977C22.2406 115.598 22.3522 115.02 22.3613 114.24V111.875Z" fill="#B02389"/>
<path d="M6.3584 71H4.38281V63.3848L2.02441 64.1162V62.5098L6.14648 61.0332H6.3584V71ZM16.2979 66.8848C16.2979 68.2611 16.013 69.3138 15.4434 70.043C14.8737 70.7721 14.0397 71.1367 12.9414 71.1367C11.8568 71.1367 11.0273 70.779 10.4531 70.0635C9.87891 69.348 9.58496 68.3226 9.57129 66.9873V65.1553C9.57129 63.7653 9.8584 62.7103 10.4326 61.9902C11.0114 61.2702 11.8431 60.9102 12.9277 60.9102C14.0124 60.9102 14.8418 61.2679 15.416 61.9834C15.9902 62.6943 16.2842 63.7174 16.2979 65.0527V66.8848ZM14.3223 64.875C14.3223 64.0501 14.2083 63.4508 13.9805 63.0771C13.7572 62.6989 13.4062 62.5098 12.9277 62.5098C12.4629 62.5098 12.1188 62.6898 11.8955 63.0498C11.6768 63.4053 11.5605 63.9635 11.5469 64.7246V67.1445C11.5469 67.9557 11.6562 68.5596 11.875 68.9561C12.0983 69.348 12.4538 69.5439 12.9414 69.5439C13.4245 69.5439 13.7731 69.3548 13.9873 68.9766C14.2015 68.5983 14.3132 68.0195 14.3223 67.2402V64.875ZM24.3369 66.8848C24.3369 68.2611 24.0521 69.3138 23.4824 70.043C22.9128 70.7721 22.0788 71.1367 20.9805 71.1367C19.8958 71.1367 19.0664 70.779 18.4922 70.0635C17.918 69.348 17.624 68.3226 17.6104 66.9873V65.1553C17.6104 63.7653 17.8975 62.7103 18.4717 61.9902C19.0505 61.2702 19.8822 60.9102 20.9668 60.9102C22.0514 60.9102 22.8809 61.2679 23.4551 61.9834C24.0293 62.6943 24.3232 63.7174 24.3369 65.0527V66.8848ZM22.3613 64.875C22.3613 64.0501 22.2474 63.4508 22.0195 63.0771C21.7962 62.6989 21.4453 62.5098 20.9668 62.5098C20.502 62.5098 20.1579 62.6898 19.9346 63.0498C19.7158 63.4053 19.5996 63.9635 19.5859 64.7246V67.1445C19.5859 67.9557 19.6953 68.5596 19.9141 68.9561C20.1374 69.348 20.4928 69.5439 20.9805 69.5439C21.4635 69.5439 21.8122 69.3548 22.0264 68.9766C22.2406 68.5983 22.3522 68.0195 22.3613 67.2402V64.875Z" fill="#B02389"/>
<path d="M47 302L65 287L88 281L124 237L152 231L178 217.5L196 207.5L221 194L250 185L267 157L298 150L333 132L365 127L403 112L421 86L476 71.5L501 65" stroke="url(#paint0_linear)" stroke-width="5"/>
<path d="M49 305L148 297L216 294L395.5 283L496.5 275.5" stroke="url(#paint1_linear)" stroke-width="5" stroke-linecap="round"/>
<path d="M529.5 239C529.5 252.278 520.419 263.438 508.126 266.602C507.479 266.769 506.958 267.155 506.565 267.527C506.161 267.909 505.791 268.373 505.456 268.847C504.873 269.672 504.29 270.682 503.745 271.625C503.671 271.753 503.597 271.881 503.525 272.007C502.89 273.101 502.313 274.061 501.76 274.748C501.485 275.088 501.263 275.301 501.097 275.419C501.036 275.463 500.995 275.485 500.971 275.496C500.868 275.474 500.528 275.34 499.918 274.666C499.288 273.967 498.631 272.99 497.915 271.876C497.813 271.718 497.71 271.556 497.606 271.393C497.007 270.458 496.371 269.464 495.739 268.641C495.364 268.152 494.957 267.679 494.519 267.287C494.091 266.902 493.558 266.527 492.924 266.34C481.116 262.858 472.5 251.933 472.5 239C472.5 223.26 485.26 210.5 501 210.5C516.74 210.5 529.5 223.26 529.5 239Z" fill="white" stroke="#FAE57D" stroke-width="3"/>
<g clip-path="url(#clip0)">
<path d="M509.043 247.4L503.908 245.371C503.348 245.143 502.964 244.629 502.964 244.029V243.686C504.498 242.657 505.679 241.2 506.328 239.514H506.446C507.833 239.514 508.954 238.429 508.954 237.086V232.943C508.954 230.514 507.833 228.257 505.885 226.743C504.469 225.629 502.639 225 500.78 225H499.098C496.03 225 493.256 226.486 491.603 228.971L490.305 230.943L490.836 231.286C491.574 231.743 491.987 232.543 491.987 233.4V237.114C491.987 238.457 493.108 239.543 494.495 239.543H494.613C495.292 241.229 496.443 242.686 497.977 243.714V244.057C497.977 244.657 497.623 245.171 497.033 245.4L491.898 247.429C488.948 248.6 487 251.4 487 254.514V255H514V254.514C514 251.4 512.052 248.6 509.043 247.4ZM504.941 249L502.934 250.457L504.292 246.543L504.587 246.657L504.941 249ZM496.443 246.657L496.738 246.543L498.095 250.457L496.03 249L496.443 246.657ZM498.125 250.6L499.305 254.029H499.216L497.151 252.029L498.125 250.6ZM497.652 246.171C497.711 246.143 497.8 246.086 497.859 246.057L500.485 248.971L503.111 246.057C503.17 246.114 503.259 246.143 503.318 246.171L500.603 254.029H500.338L497.652 246.171ZM502.875 250.6L503.849 252.029L501.784 254.029H501.695L502.875 250.6ZM502.993 234.2C502.256 234.2 501.607 234.6 501.282 235.171H499.718C499.364 234.6 498.744 234.2 498.007 234.2H494.997V231.8C496.384 231.857 497.741 232.171 499.039 232.714C500.603 233.371 502.256 233.714 503.967 233.714H506.003V234.2H502.993ZM506.711 238.543C506.889 237.829 507.007 237.086 507.007 236.314V235.743C507.597 235.943 508.01 236.486 508.01 237.114C507.98 237.829 507.42 238.429 506.711 238.543ZM491.662 230.686L492.459 229.486C493.905 227.286 496.384 225.971 499.098 225.971H500.81C502.433 225.971 504.026 226.514 505.295 227.486C507.007 228.829 508.01 230.8 508.01 232.943V235.171C507.715 234.971 507.39 234.8 507.007 234.714V232.743H503.967C502.403 232.743 500.898 232.429 499.452 231.829C497.889 231.171 496.236 230.829 494.495 230.829H493.993V234.743C493.61 234.829 493.285 234.971 492.99 235.2V233.4C492.99 232.343 492.518 231.343 491.662 230.686ZM492.99 237.086C492.99 236.457 493.403 235.914 493.993 235.714V236.286C493.993 237.057 494.111 237.8 494.289 238.514C493.551 238.429 492.99 237.829 492.99 237.086ZM494.997 236.314V236.143C494.997 237.2 495.882 238.086 497.003 238.086H498.007C499.098 238.086 500.013 237.229 500.013 236.143H501.016C501.016 237.2 501.902 238.086 503.023 238.086H504.026C505.118 238.086 506.033 237.229 506.033 236.143V236.314C506.033 239.714 503.82 242.714 500.544 243.857C497.21 242.714 494.997 239.714 494.997 236.314ZM500.338 244.829L500.485 244.886L500.633 244.829C501.105 244.686 501.548 244.486 501.99 244.257C502.02 244.657 502.167 245.029 502.403 245.371L500.485 247.486L498.567 245.371C498.803 245.057 498.921 244.657 498.98 244.257C499.423 244.486 499.866 244.657 500.338 244.829ZM492.311 248.286L495.351 247.086L494.967 249.4L496.826 250.743L495.852 252.171L497.8 254.057H492.99V251.143H491.987V254.057H488.003C488.21 251.486 489.862 249.286 492.311 248.286ZM508.984 254.029V251.143H507.98V254.057H503.2L505.148 252.171L504.174 250.771L506.033 249.429L505.62 247.114L508.659 248.314C511.138 249.286 512.79 251.486 512.967 254.029H508.984Z" fill="#010101"/>
</g>
<path d="M529.5 30C529.5 43.2778 520.419 54.4383 508.126 57.6022C507.479 57.7688 506.958 58.1552 506.565 58.5266C506.161 58.909 505.791 59.3735 505.456 59.8471C504.873 60.672 504.29 61.6819 503.745 62.6246C503.671 62.7534 503.597 62.8809 503.525 63.0065C502.89 64.1007 502.313 65.0611 501.76 65.7476C501.485 66.0879 501.263 66.3008 501.097 66.4194C501.036 66.4628 500.995 66.4851 500.971 66.4961C500.868 66.4739 500.528 66.3401 499.918 65.6655C499.288 64.9671 498.631 63.9895 497.915 62.8759C497.813 62.7177 497.71 62.5565 497.606 62.3935C497.007 61.4579 496.371 60.4636 495.739 59.6412C495.364 59.1524 494.957 58.6787 494.519 58.2866C494.091 57.9019 493.558 57.5269 492.924 57.3401C481.116 53.8579 472.5 42.9332 472.5 30C472.5 14.2599 485.26 1.5 501 1.5C516.74 1.5 529.5 14.2599 529.5 30Z" fill="white" stroke="#ED7E40" stroke-width="3"/>
<path d="M487.889 25.3258C486.859 25.3258 486 26.1503 486 27.2153V30.2041C486 31.2348 486.825 32.0936 487.889 32.0936C488.233 32.0936 488.508 31.8188 488.508 31.4753V25.9442C488.508 25.6006 488.233 25.3258 487.889 25.3258Z" fill="#212121"/>
<path d="M515.51 25.3258C515.167 25.3258 514.892 25.6006 514.892 25.9442V31.4065C514.892 31.7501 515.167 32.0249 515.51 32.0249C516.541 32.0249 517.4 31.2004 517.4 30.1354V27.1466C517.366 26.1503 516.541 25.3258 515.51 25.3258Z" fill="#212121"/>
<path d="M512.831 37.659C512.487 37.1781 512.144 36.7315 511.766 36.3536C513.243 34.9107 514.171 32.8837 514.171 30.6507V26.8717C514.171 22.5087 510.632 18.9702 506.269 18.9702H502.525V16.8746C503.761 16.4967 504.689 15.363 504.689 13.9888C504.689 12.3398 503.349 10.9999 501.7 10.9999C500.051 10.9999 498.711 12.3398 498.711 13.9888C498.711 15.3973 499.673 16.5654 500.979 16.8746V18.9358H497.268C492.905 18.9358 489.367 22.4743 489.367 26.8374V30.6164C489.367 32.8837 490.329 34.9107 491.84 36.3536C491.462 36.7658 491.119 37.1781 490.81 37.6247C489.745 39.1363 489.023 40.8196 488.817 42.2969C488.577 43.9459 488.989 45.217 489.951 45.9041C490.397 46.2133 490.913 46.3851 491.497 46.3851C492.459 46.3851 493.558 45.9728 494.692 45.1483C496.169 47.8967 498.78 49.7174 501.7 49.7174C501.975 49.7174 502.284 49.6831 502.559 49.6487C505.17 49.3395 507.437 47.5531 508.777 45.0109C509.945 45.9041 511.113 46.3507 512.144 46.3507C512.728 46.3507 513.243 46.2133 513.69 45.8697C514.652 45.1827 515.064 43.9115 514.823 42.2625C514.583 40.854 513.896 39.1706 512.831 37.659ZM506.269 20.3444C506.922 20.3444 507.54 20.4474 508.124 20.6192L507.025 24.7761H496.444L495.344 20.6536C495.963 20.4818 496.581 20.3787 497.234 20.3787H506.269V20.3444ZM490.741 30.6507V26.8717C490.741 24.4325 492.081 22.3026 494.073 21.1689L495.035 24.7761C493.455 24.9822 492.218 26.322 492.218 27.9711V32.231C492.218 32.231 492.218 33.296 492.94 33.6052C498.505 36.5253 505.135 36.5597 510.735 33.6739C511.491 33.3647 511.491 32.3684 511.491 32.3684V28.0054C511.491 26.2877 510.151 24.8792 508.434 24.7761L509.395 21.1345C511.422 22.2682 512.797 24.3982 512.797 26.8717V30.6507C512.797 34.2923 509.842 37.2124 506.235 37.2124H497.303C493.661 37.2124 490.741 34.2579 490.741 30.6507ZM504.723 40.9227C502.799 41.7129 500.635 41.7128 498.711 40.9571C498.642 40.2356 498.608 39.4455 498.574 38.6209H504.826C504.826 39.4111 504.792 40.2013 504.723 40.9227ZM490.707 44.8048C490.191 44.4612 489.985 43.6023 490.157 42.503C490.191 42.2969 490.226 42.0908 490.294 41.8503C491.531 42.3312 492.493 43.3275 492.974 44.5986C492.046 45.0796 491.222 45.1483 490.707 44.8048ZM493.558 44.2551C493.008 42.8465 491.875 41.7472 490.5 41.1975C490.81 40.27 491.291 39.3424 491.943 38.4492C492.253 38.0026 492.562 37.6247 492.905 37.2468C493.111 37.3842 493.352 37.5216 493.558 37.659C493.421 38.3805 493.352 39.1019 493.352 39.8234C493.352 41.2662 493.627 42.6748 494.108 43.9115C493.902 44.0146 493.73 44.152 493.558 44.2551ZM494.726 39.789C494.726 39.2393 494.76 38.724 494.863 38.1743C495.619 38.4148 496.409 38.5522 497.2 38.5522C497.268 43.3275 498.299 46.1789 499.227 47.7592C496.616 46.5912 494.726 43.4649 494.726 39.789ZM501.391 48.3433C500.876 47.8967 499.536 46.3164 498.883 42.4686C499.811 42.7435 500.738 42.8809 501.666 42.8809C502.628 42.8809 503.59 42.7435 504.517 42.4343C503.899 46.282 502.525 47.8623 502.009 48.3433C501.906 48.3433 501.769 48.3433 501.666 48.3433C501.597 48.3433 501.494 48.3433 501.391 48.3433ZM504.208 47.7592C505.17 46.1446 506.166 43.3275 506.235 38.5866C507.025 38.5866 507.815 38.4492 508.537 38.243C508.605 38.7584 508.64 39.2737 508.64 39.789C508.674 43.4306 506.819 46.5225 504.208 47.7592ZM509.842 37.6934C510.117 37.556 510.426 37.3842 510.667 37.2124C511.01 37.5903 511.354 38.0026 511.663 38.4492C512.316 39.3424 512.797 40.3043 513.106 41.2319C511.697 41.7816 510.598 42.8809 510.048 44.2894C509.808 44.152 509.567 43.9459 509.327 43.7741C509.773 42.5717 510.014 41.2319 510.014 39.8234C510.048 39.1019 509.979 38.4148 509.842 37.6934ZM512.9 44.8048C512.384 45.1483 511.594 45.0796 510.701 44.633C511.148 43.3962 512.109 42.3999 513.346 41.8846C513.415 42.0907 513.449 42.2969 513.484 42.503C513.587 43.6023 513.381 44.4612 512.9 44.8048Z" fill="#212121"/>
<path d="M496.65 30.8225C497.466 30.8225 498.127 30.1611 498.127 29.3453C498.127 28.5294 497.466 27.868 496.65 27.868C495.834 27.868 495.173 28.5294 495.173 29.3453C495.173 30.1611 495.834 30.8225 496.65 30.8225Z" fill="#F4FF71"/>
<path d="M501.7 15.5692C502.516 15.5692 503.177 14.9078 503.177 14.0919C503.177 13.2761 502.516 12.6147 501.7 12.6147C500.884 12.6147 500.223 13.2761 500.223 14.0919C500.223 14.9078 500.884 15.5692 501.7 15.5692Z" fill="#F4FF71"/>
<path d="M506.441 30.8225C507.257 30.8225 507.918 30.1611 507.918 29.3453C507.918 28.5294 507.257 27.868 506.441 27.868C505.625 27.868 504.964 28.5294 504.964 29.3453C504.964 30.1611 505.625 30.8225 506.441 30.8225Z" fill="#F4FF71"/>
<defs>
<linearGradient id="paint0_linear" x1="274" y1="65" x2="274" y2="302" gradientUnits="userSpaceOnUse">
<stop stop-color="#ED7E40" stop-opacity="0.54"/>
<stop offset="1" stop-color="#ED7E40" stop-opacity="0.09"/>
</linearGradient>
<linearGradient id="paint1_linear" x1="272.75" y1="275.5" x2="272.75" y2="305" gradientUnits="userSpaceOnUse">
<stop stop-color="#FAE57D" stop-opacity="0.6"/>
<stop offset="1" stop-color="#FAE57D" stop-opacity="0"/>
<stop offset="1" stop-color="#FAE57D" stop-opacity="0.54"/>
</linearGradient>
<clipPath id="clip0">
<rect x="487" y="225" width="27" height="30" fill="white"/>
</clipPath>
</defs>
</svg>
