<svg width="51" height="51" viewBox="0 0 51 51" fill="none" xmlns="http://www.w3.org/2000/svg">
<circle cx="25.5" cy="25.5" r="25.5" fill="white"/>
<g clip-path="url(#clip0)">
<path fill-rule="evenodd" clip-rule="evenodd" d="M14.9929 38.0338H36.0071C37.6573 38.0338 39 36.6778 39 35.0107V20.7315V16.9948C39 15.328 37.6573 13.9717 36.0071 13.9717H14.9929C13.3427 13.9717 12 15.328 12 16.9948V20.7315V35.0107C12 36.6778 13.3427 38.0338 14.9929 38.0338ZM38.1085 35.0107V21.1818H12.8915V35.0107C12.8915 36.181 13.8343 37.1333 14.9929 37.1333H36.0071C37.1657 37.1333 38.1085 36.181 38.1085 35.0107ZM12.8915 20.2812H38.1085V16.9948C38.1085 15.8245 37.1657 14.8722 36.0071 14.8722H14.9929C13.8343 14.8722 12.8915 15.8245 12.8915 16.9948V20.2812ZM24.4789 33.3367C24.4483 33.3367 24.4175 33.3334 24.3864 33.3269C24.1456 33.2756 23.9914 33.0367 24.0421 32.7934L25.8398 24.172C25.8906 23.9287 26.1269 23.773 26.3679 23.8242C26.6087 23.8755 26.7629 24.1142 26.7122 24.3576L24.9145 32.9791C24.8702 33.1912 24.6851 33.3367 24.4789 33.3367ZM22.3642 31.3684C22.448 31.4405 22.5507 31.4759 22.6527 31.4759C22.7788 31.4759 22.9042 31.4221 22.9925 31.3174C23.152 31.1282 23.1296 30.844 22.942 30.6827L20.4563 28.5444L22.942 26.4062C23.1296 26.2452 23.152 25.961 22.9925 25.7715C22.8328 25.5823 22.5515 25.5595 22.3642 25.7208L19.4797 28.2017C19.3805 28.2874 19.323 28.4125 19.323 28.5444C19.323 28.6766 19.3802 28.8017 19.4797 28.8874L22.3642 31.3684ZM28.0076 31.3174C28.0956 31.4221 28.221 31.4759 28.3471 31.4759C28.4491 31.4759 28.5518 31.4405 28.6356 31.3684L31.5201 28.8874C31.6196 28.8017 31.6768 28.6766 31.6768 28.5444C31.6768 28.4125 31.6196 28.2874 31.5201 28.2017L28.6356 25.7208C28.4486 25.5595 28.167 25.5823 28.0076 25.7715C27.8479 25.961 27.8705 26.2452 28.0578 26.4062L30.5435 28.5444L28.0578 30.6827C27.8705 30.844 27.8479 31.1282 28.0076 31.3174ZM15.2399 18.9091C15.8364 18.9091 16.3199 18.4207 16.3199 17.8182C16.3199 17.2157 15.8364 16.7273 15.2399 16.7273C14.6434 16.7273 14.1599 17.2157 14.1599 17.8182C14.1599 18.4207 14.6434 18.9091 15.2399 18.9091ZM20.0999 17.8182C20.0999 18.4207 19.6164 18.9091 19.0199 18.9091C18.4235 18.9091 17.9399 18.4207 17.9399 17.8182C17.9399 17.2157 18.4235 16.7273 19.0199 16.7273C19.6164 16.7273 20.0999 17.2157 20.0999 17.8182ZM22.8 18.9091C23.3964 18.9091 23.88 18.4207 23.88 17.8182C23.88 17.2157 23.3964 16.7273 22.8 16.7273C22.2035 16.7273 21.72 17.2157 21.72 17.8182C21.72 18.4207 22.2035 18.9091 22.8 18.9091Z" fill="#110D17"/>
</g>
<defs>
<clipPath id="clip0">
<rect x="12" y="14" width="27" height="24" fill="white"/>
</clipPath>
</defs>
</svg>
