<svg width="51" height="51" viewBox="0 0 51 51" fill="none" xmlns="http://www.w3.org/2000/svg">
<path d="M38.129 23.8871L35.6176 23.8827C35.3739 22.9384 34.9974 22.0334 34.4993 21.1949L36.2774 19.4169C36.4402 19.2536 36.5317 19.0324 36.5317 18.8017C36.5317 18.5711 36.4402 18.3499 36.2774 18.1866L33.8134 15.7218C33.6477 15.5635 33.4274 15.4752 33.1983 15.4752C32.9691 15.4752 32.7488 15.5635 32.5831 15.7218L30.8038 17.4955C29.9641 16.9993 29.058 16.6251 28.1129 16.3841V13.871C28.1129 13.64 28.0211 13.4184 27.8578 13.2551C27.6945 13.0918 27.4729 13 27.2419 13H23.7581C23.5271 13 23.3055 13.0918 23.1422 13.2551C22.9789 13.4184 22.8871 13.64 22.8871 13.871L22.8827 16.3824C21.9384 16.6261 21.0334 17.0026 20.1949 17.5007L18.4169 15.7218C18.2512 15.5635 18.0309 15.4752 17.8017 15.4752C17.5726 15.4752 17.3523 15.5635 17.1866 15.7218L14.7218 18.1866C14.5589 18.3499 14.4674 18.5711 14.4674 18.8017C14.4674 19.0324 14.5589 19.2536 14.7218 19.4169L16.4955 21.1962C15.9993 22.0359 15.6251 22.942 15.3841 23.8871H12.871C12.64 23.8871 12.4184 23.9789 12.2551 24.1422C12.0918 24.3055 12 24.5271 12 24.7581V28.2419C12 28.4729 12.0918 28.6945 12.2551 28.8578C12.4184 29.0211 12.64 29.1129 12.871 29.1129L15.3824 29.1173C15.626 30.0616 16.0026 30.9666 16.5007 31.8051L14.7218 33.5831C14.5589 33.7464 14.4674 33.9676 14.4674 34.1983C14.4674 34.4289 14.5589 34.6501 14.7218 34.8134L17.1866 37.2782C17.3523 37.4365 17.5726 37.5248 17.8017 37.5248C18.0309 37.5248 18.2512 37.4365 18.4169 37.2782L20.1962 35.5045C21.0359 36.0007 21.942 36.3749 22.8871 36.6159V39.129C22.8871 39.36 22.9789 39.5816 23.1422 39.7449C23.3055 39.9082 23.5271 40 23.7581 40H27.2419C27.4729 40 27.6945 39.9082 27.8578 39.7449C28.0211 39.5816 28.1129 39.36 28.1129 39.129L28.1173 36.6176C29.0616 36.3739 29.9666 35.9974 30.8051 35.4993L32.5831 37.2774C32.7488 37.4356 32.9691 37.5239 33.1983 37.5239C33.4274 37.5239 33.6477 37.4356 33.8134 37.2774L36.2782 34.8125C36.4411 34.6492 36.5326 34.428 36.5326 34.1974C36.5326 33.9668 36.4411 33.7456 36.2782 33.5823L34.5045 31.8029C35.0007 30.9635 35.3749 30.0577 35.6159 29.1129H38.129C38.36 29.1129 38.5816 29.0211 38.7449 28.8578C38.9082 28.6945 39 28.4729 39 28.2419V24.7581C39 24.5271 38.9082 24.3055 38.7449 24.1422C38.5816 23.9789 38.36 23.8871 38.129 23.8871ZM38.129 28.2419H35.6159C35.4227 28.2429 35.2354 28.308 35.0834 28.4271C34.9313 28.5461 34.8231 28.7123 34.7758 28.8995C34.5527 29.7639 34.209 30.5926 33.755 31.3613C33.6562 31.5274 33.6153 31.7216 33.639 31.9134C33.6626 32.1053 33.7494 32.2838 33.8857 32.4208L35.6642 34.1976L33.2007 36.6625L31.4226 34.8839C31.2855 34.7477 31.107 34.6609 30.9152 34.6373C30.7234 34.6136 30.5291 34.6544 30.363 34.7533C29.5939 35.208 28.7646 35.5523 27.8995 35.7758C27.7123 35.8231 27.5461 35.9313 27.4271 36.0834C27.308 36.2354 27.2429 36.4227 27.2419 36.6159V39.129H23.7581V36.6159C23.7571 36.4227 23.692 36.2354 23.5729 36.0834C23.4539 35.9313 23.2877 35.8231 23.1005 35.7758C22.2362 35.5529 21.4076 35.2094 20.6391 34.7555C20.5035 34.6751 20.3487 34.6327 20.191 34.6327C19.9617 34.6323 19.7416 34.723 19.5792 34.8848L17.8024 36.6633L15.3375 34.1998L17.1161 32.4226C17.2522 32.2855 17.3389 32.1071 17.3626 31.9154C17.3862 31.7237 17.3455 31.5295 17.2467 31.3635C16.7919 30.5942 16.4477 29.7648 16.2242 28.8995C16.1769 28.7123 16.0687 28.5461 15.9166 28.4271C15.7646 28.308 15.5773 28.2429 15.3841 28.2419H12.871V24.7581H15.3841C15.5773 24.7571 15.7646 24.692 15.9166 24.5729C16.0687 24.4539 16.1769 24.2877 16.2242 24.1005C16.4471 23.2362 16.7906 22.4076 17.2445 21.6391C17.3435 21.473 17.3844 21.2787 17.3607 21.0868C17.3371 20.8949 17.2502 20.7163 17.1139 20.5792L15.3358 18.8024L17.7993 16.3375L19.5774 18.1156C19.7145 18.2519 19.893 18.3387 20.0848 18.3623C20.2766 18.386 20.4709 18.3451 20.637 18.2463C21.4061 17.7917 22.2354 17.4476 23.1005 17.2242C23.2877 17.1769 23.4539 17.0687 23.5729 16.9166C23.692 16.7646 23.7571 16.5773 23.7581 16.3841V13.871H27.2419V16.3841C27.2429 16.5773 27.308 16.7646 27.4271 16.9166C27.5461 17.0687 27.7123 17.1769 27.8995 17.2242C28.7638 17.4471 29.5924 17.7906 30.3609 18.2445C30.527 18.3435 30.7213 18.3844 30.9132 18.3607C31.1051 18.3371 31.2837 18.2502 31.4208 18.1139L33.1976 16.3358L35.6625 18.7993L33.8844 20.5774C33.7481 20.7145 33.6613 20.893 33.6377 21.0848C33.614 21.2766 33.6549 21.4709 33.7537 21.637C34.2083 22.4061 34.5524 23.2354 34.7758 24.1005C34.8231 24.2877 34.9313 24.4539 35.0834 24.5729C35.2354 24.692 35.4227 24.7571 35.6159 24.7581H38.129V28.2419Z" fill="#BFBFBF"/>
<g clip-path="url(#clip0)">
<path d="M30.3389 21.6675L18.2019 26.1835C18.0439 26.2423 17.9398 26.3877 17.9399 26.5497C17.9401 26.7115 18.0442 26.8568 18.2024 26.9154L20.5689 27.793C20.8398 28.4394 22.0675 31.3701 22.087 31.4143C22.2011 31.672 22.5519 31.7353 22.7565 31.5395L24.5894 29.7899L27.9695 32.3546C28.2061 32.5341 28.5629 32.4166 28.6278 32.13L30.8906 22.1162C30.9579 21.8161 30.6492 21.5523 30.3389 21.6675ZM26.0051 24.1229L20.8464 27.0533L19.4858 26.5488L26.0051 24.1229ZM27.2211 24.3463L23.0112 28.0114C22.9566 28.0592 22.9116 28.1268 22.8912 28.1998C22.891 28.2001 22.8908 28.2006 22.8908 28.2009L22.3864 30.0154L21.397 27.6545L27.2211 24.3463ZM23.5248 28.9825L23.9411 29.2982L23.2552 29.9529L23.5248 28.9825ZM27.9629 31.3463C27.1775 30.7504 24.6506 28.8335 23.9225 28.2811L29.8148 23.1512L27.9629 31.3463Z" fill="#BFBFBF"/>
</g>
<circle cx="25.5" cy="25.5" r="25" stroke="white"/>
<defs>
<clipPath id="clip0">
<rect x="17.9399" y="21.6399" width="12.96" height="10.8" fill="white"/>
</clipPath>
</defs>
</svg>
