<svg width="672" height="665" viewBox="0 0 672 665" fill="none" xmlns="http://www.w3.org/2000/svg">
<rect width="196.299" height="217.956" rx="14" transform="matrix(0.866025 -0.5 0 1 0 98.1497)" fill="#EDEDED"/>
<path d="M103.538 199.87V221.442C103.54 221.52 103.529 221.605 103.506 221.692C103.483 221.778 103.449 221.865 103.405 221.946C103.361 222.027 103.31 222.101 103.252 222.163C103.195 222.225 103.134 222.275 103.072 222.309L99.6404 224.29C99.5788 224.328 99.5176 224.349 99.4604 224.352C99.4032 224.356 99.3513 224.342 99.3077 224.311C99.2642 224.281 99.2299 224.234 99.207 224.174C99.1841 224.114 99.173 224.042 99.1744 223.962V202.389C99.173 202.311 99.1841 202.226 99.207 202.139C99.2299 202.053 99.2642 201.967 99.3077 201.886C99.3513 201.805 99.4032 201.731 99.4604 201.668C99.5176 201.606 99.5788 201.556 99.6404 201.523L103.072 199.541C103.134 199.504 103.195 199.483 103.252 199.479C103.31 199.475 103.361 199.489 103.405 199.52C103.449 199.551 103.483 199.597 103.506 199.658C103.529 199.718 103.54 199.79 103.538 199.87ZM130.327 183.806C130.46 183.729 130.627 183.717 130.793 183.793C130.893 183.862 130.893 184.076 130.86 184.267L125.196 209.152C125.161 209.284 125.102 209.415 125.025 209.528C124.948 209.641 124.856 209.731 124.763 209.787L121.697 211.557C121.497 211.672 121.331 211.64 121.264 211.422L117.964 200.726L114.666 215.23C114.631 215.362 114.572 215.493 114.495 215.606C114.418 215.719 114.327 215.809 114.233 215.865L111.168 217.635C110.968 217.75 110.801 217.719 110.735 217.5L105.07 199.155C105.037 199.004 105.037 198.833 105.136 198.606C105.204 198.396 105.37 198.214 105.503 198.138L109.335 195.926C109.534 195.81 109.701 195.884 109.768 196.101L112.8 207.124L116.132 192.427C116.166 192.296 116.226 192.165 116.303 192.052C116.38 191.939 116.471 191.849 116.565 191.792L119.264 190.234C119.464 190.119 119.63 190.151 119.697 190.369L123.029 201.218L126.061 186.695C126.088 186.558 126.145 186.419 126.223 186.297C126.301 186.175 126.396 186.078 126.494 186.019L130.326 183.806L130.327 183.806ZM136.124 180.459C136.357 180.324 136.557 180.465 136.59 180.787V202.36C136.592 202.438 136.58 202.523 136.557 202.609C136.535 202.696 136.5 202.782 136.457 202.863C136.413 202.944 136.361 203.018 136.304 203.081C136.247 203.143 136.186 203.193 136.124 203.226L132.692 205.208C132.631 205.245 132.569 205.266 132.512 205.27C132.455 205.274 132.403 205.26 132.359 205.229C132.316 205.198 132.282 205.151 132.259 205.091C132.236 205.031 132.225 204.959 132.226 204.879V183.307C132.225 183.228 132.236 183.144 132.259 183.057C132.282 182.97 132.316 182.884 132.359 182.803C132.403 182.722 132.455 182.648 132.512 182.586C132.569 182.523 132.631 182.474 132.692 182.44L136.124 180.459ZM97.1747 224.946C97.3745 225.13 97.2078 225.652 96.9075 225.826L92.7092 228.249C92.6266 228.3 92.5445 228.326 92.4694 228.325C92.3943 228.324 92.3283 228.296 92.2764 228.243L91.5773 227.537C90.1109 229.578 88.3774 231.307 86.5454 232.364C81.4151 235.326 77.25 232.391 77.25 225.812C77.25 219.233 81.4151 211.489 86.5454 208.527C91.6767 205.564 95.8419 208.499 95.8419 215.078C95.8419 217.428 95.3085 219.957 94.3755 222.375L97.1747 224.945V224.946ZM122.153 151.949C123.02 151.876 123.353 153.348 123.42 154.036C123.553 155.284 123.254 155.97 122.92 156.162C122.587 156.355 122.12 156.112 121.621 155.375C121.121 154.638 120.921 153.6 121.188 152.847C121.354 152.367 121.72 151.985 122.154 151.948L122.153 151.949ZM117.089 159.7C117.622 159.392 118.222 159.345 118.755 159.634C119.788 160.15 120.088 161.257 119.555 162.505C119.254 163.149 118.755 163.736 118.189 164.063C117.622 164.39 117.023 164.48 116.623 164.241C115.69 163.754 115.424 162.198 116.022 160.914C116.256 160.393 116.623 159.969 117.089 159.7ZM105.428 178.778C92.7662 186.088 82.5046 178.855 82.5046 162.622C82.5046 146.39 92.7672 127.308 105.427 119.999C118.088 112.689 128.351 119.922 128.351 136.153C128.351 141.663 127.152 147.525 125.12 153.099C125.053 153.265 124.886 153.319 124.853 153.167C124.053 146.409 120.621 144.417 115.624 146.107C115.19 146.272 115.123 145.969 115.69 145.557C117.223 144.5 119.388 143.293 120.521 142.895C120.587 142.13 120.621 141.342 120.621 140.573C120.621 129.85 113.824 125.06 105.46 129.889C97.098 134.717 90.3005 147.356 90.3005 158.079C90.3005 168.802 97.098 173.592 105.461 168.763L106.16 168.36C105.923 166.763 105.822 165.06 105.86 163.278C105.894 162.062 106.094 161.776 106.494 162.485C108.593 165.929 111.592 168.384 117.456 166.665C122.253 165.262 127.051 164.072 132.216 169.506C132.682 169.963 131.983 171.135 131.449 170.846C126.186 167.903 121.388 168.708 117.023 171.229C112.124 174.1 108.793 176.835 105.427 178.778L105.428 178.778ZM88.8444 224.971L87.0114 223.166C86.8126 222.983 86.9793 222.416 87.2786 222.243L91.1434 220.012C91.3433 219.213 91.4437 218.386 91.4437 217.617C91.4437 214.072 89.3777 212.189 86.5454 213.824C83.7141 215.459 81.6471 219.729 81.6471 223.274C81.6471 226.819 83.7141 228.659 86.5454 227.024C87.3449 226.605 88.1454 225.844 88.8444 224.971Z" fill="#FF8C00"/>
<g opacity="0.5" filter="url(#filter0_f)">
<path d="M81.5383 192.87V214.442C81.5398 214.52 81.5287 214.605 81.5058 214.692C81.4828 214.778 81.4486 214.865 81.405 214.946C81.3614 215.027 81.3095 215.101 81.2523 215.163C81.1952 215.225 81.1339 215.275 81.0723 215.309L77.6404 217.29C77.5788 217.328 77.5176 217.349 77.4604 217.352C77.4032 217.356 77.3513 217.342 77.3077 217.311C77.2642 217.281 77.2299 217.234 77.207 217.174C77.1841 217.114 77.173 217.042 77.1744 216.962V195.389C77.173 195.311 77.1841 195.226 77.207 195.139C77.2299 195.053 77.2642 194.967 77.3077 194.886C77.3513 194.805 77.4032 194.731 77.4604 194.668C77.5176 194.606 77.5788 194.556 77.6404 194.523L81.0723 192.541C81.1339 192.504 81.1952 192.483 81.2523 192.479C81.3095 192.475 81.3614 192.489 81.405 192.52C81.4486 192.551 81.4828 192.597 81.5058 192.658C81.5287 192.718 81.5398 192.79 81.5383 192.87ZM108.327 176.806C108.46 176.729 108.627 176.717 108.793 176.793C108.893 176.862 108.893 177.076 108.86 177.267L103.196 202.152C103.161 202.284 103.102 202.415 103.025 202.528C102.948 202.641 102.856 202.731 102.763 202.787L99.6973 204.557C99.4975 204.672 99.3307 204.64 99.2645 204.422L95.9641 193.726L92.6657 208.23C92.6313 208.362 92.5719 208.493 92.4948 208.606C92.4178 208.719 92.3266 208.809 92.2328 208.865L89.1675 210.635C88.9676 210.75 88.8009 210.719 88.7346 210.5L83.07 192.155C83.0368 192.004 83.0368 191.833 83.1363 191.606C83.2036 191.396 83.3703 191.214 83.5029 191.138L87.3345 188.926C87.5344 188.81 87.7011 188.884 87.7684 189.101L90.7996 200.124L94.1321 185.427C94.1665 185.296 94.226 185.165 94.303 185.052C94.3801 184.939 94.4712 184.849 94.565 184.792L97.2637 183.234C97.4636 183.119 97.6303 183.151 97.6966 183.369L101.029 194.218L104.061 179.695C104.088 179.558 104.145 179.419 104.223 179.297C104.301 179.175 104.396 179.078 104.494 179.019L108.326 176.806L108.327 176.806ZM114.124 173.459C114.357 173.324 114.557 173.465 114.59 173.787V195.36C114.592 195.438 114.58 195.523 114.557 195.609C114.535 195.696 114.5 195.782 114.457 195.863C114.413 195.944 114.361 196.018 114.304 196.081C114.247 196.143 114.186 196.193 114.124 196.226L110.692 198.208C110.631 198.245 110.569 198.266 110.512 198.27C110.455 198.274 110.403 198.26 110.359 198.229C110.316 198.198 110.282 198.151 110.259 198.091C110.236 198.031 110.225 197.959 110.226 197.879V176.307C110.225 176.228 110.236 176.144 110.259 176.057C110.282 175.97 110.316 175.884 110.359 175.803C110.403 175.722 110.455 175.648 110.512 175.586C110.569 175.523 110.631 175.474 110.692 175.44L114.124 173.459ZM75.1747 217.946C75.3745 218.13 75.2078 218.652 74.9075 218.826L70.7092 221.249C70.6266 221.3 70.5445 221.326 70.4694 221.325C70.3943 221.324 70.3283 221.296 70.2764 221.243L69.5773 220.537C68.1109 222.578 66.3774 224.307 64.5454 225.364C59.4151 228.326 55.25 225.391 55.25 218.812C55.25 212.233 59.4151 204.489 64.5454 201.527C69.6767 198.564 73.8419 201.499 73.8419 208.078C73.8419 210.428 73.3085 212.957 72.3755 215.375L75.1747 217.945V217.946ZM100.153 144.949C101.02 144.876 101.353 146.348 101.42 147.036C101.553 148.284 101.254 148.97 100.92 149.162C100.587 149.355 100.12 149.112 99.6207 148.375C99.1205 147.638 98.9207 146.6 99.1878 145.847C99.3535 145.367 99.7201 144.985 100.154 144.948L100.153 144.949ZM95.089 152.7C95.6223 152.392 96.2219 152.345 96.7552 152.634C97.7877 153.15 98.088 154.257 97.5547 155.505C97.2544 156.149 96.7552 156.736 96.1888 157.063C95.6223 157.39 95.0227 157.48 94.623 157.241C93.6899 156.754 93.4238 155.198 94.0223 153.914C94.2564 153.393 94.623 152.969 95.089 152.7ZM83.4283 171.778C70.7662 179.088 60.5046 171.855 60.5046 155.622C60.5046 139.39 70.7672 120.308 83.4273 112.999C96.0883 105.689 106.351 112.922 106.351 129.153C106.351 134.663 105.152 140.525 103.12 146.099C103.053 146.265 102.886 146.319 102.853 146.167C102.053 139.409 98.6214 137.417 93.6236 139.107C93.1897 139.272 93.1234 138.969 93.6899 138.557C95.2226 137.5 97.388 136.293 98.5209 135.895C98.5872 135.13 98.6214 134.342 98.6214 133.573C98.6214 122.85 91.8238 118.06 83.4604 122.889C75.098 127.717 68.3005 140.356 68.3005 151.079C68.3005 161.802 75.098 166.592 83.4614 161.763L84.1605 161.36C83.923 159.763 83.8224 158.06 83.8601 156.278C83.8943 155.062 84.0942 154.776 84.4939 155.485C86.593 158.929 89.5921 161.384 95.4556 159.665C100.253 158.262 105.051 157.072 110.216 162.506C110.682 162.963 109.983 164.135 109.449 163.846C104.186 160.903 99.3877 161.708 95.0227 164.229C90.1244 167.1 86.7929 169.835 83.4273 171.778L83.4283 171.778ZM66.8444 217.971L65.0114 216.166C64.8126 215.983 64.9793 215.416 65.2786 215.243L69.1434 213.012C69.3433 212.213 69.4437 211.386 69.4437 210.617C69.4437 207.072 67.3777 205.189 64.5454 206.824C61.7141 208.459 59.6471 212.729 59.6471 216.274C59.6471 219.819 61.7141 221.659 64.5454 220.024C65.3449 219.605 66.1454 218.844 66.8444 217.971Z" fill="#FF8C00"/>
</g>
<rect opacity="0.4" width="195.955" height="195.955" rx="14" transform="matrix(0.866044 -0.499967 0.866044 0.499967 12 365.971)" fill="#E0E0E0"/>
<rect opacity="0.4" width="195.955" height="195.955" rx="14" transform="matrix(0.866044 -0.499967 0.866044 0.499967 12 356.971)" fill="#E0E0E0"/>
<rect opacity="0.4" width="195.955" height="195.955" rx="14" transform="matrix(0.866044 -0.499967 0.866044 0.499967 12 346.971)" fill="#E0E0E0"/>
<rect width="195.955" height="195.955" rx="14" transform="matrix(0.866044 -0.499967 0.866044 0.499967 11 337.971)" fill="#E0E0E0"/>
<g filter="url(#filter1_f)">
<ellipse rx="9.51899" ry="2.03978" transform="matrix(0.866044 -0.499967 0.866044 0.499967 96.0104 361.308)" fill="#8C4B26"/>
</g>
<path d="M119 324.029C119 337.72 108.699 355.313 96.5 361.529C84.3009 367.744 72 360.52 72 346.828C72 333.137 81.8893 316.999 94.0884 310.783C106.288 304.567 119 310.337 119 324.029Z" fill="#DB7034"/>
<circle r="24.7904" transform="matrix(0.891007 -0.453991 0 1 97.0884 336.574)" fill="#ED7E40"/>
<g clip-path="url(#clip0)">
<path d="M96.6032 338.176V337.993C96.6032 335.498 98.4068 332.563 100.63 331.431L104.967 329.221V327.862C104.967 327.564 104.752 327.432 104.487 327.567L91.7799 334.042C91.3016 334.285 90.9142 334.044 90.9142 333.507C90.9142 332.97 91.3019 332.334 91.7799 332.09L104.508 325.605C104.761 325.476 104.967 325.141 104.967 324.857V324.39C104.967 324.133 104.782 324.043 104.553 324.159L90.3728 331.384C89.4761 331.841 88.7603 332.997 88.7603 334.004V348.417C88.7603 349.424 89.4761 349.877 90.3728 349.42L103.344 342.811C104.241 342.354 104.967 341.166 104.967 340.16V338.451L100.63 340.661C98.4068 341.792 96.6032 340.671 96.6032 338.176Z" fill="#E0E0E0"/>
<path d="M105.066 330.595L100.63 332.855C99.1203 333.624 97.9189 335.63 97.9189 337.324V337.506C97.9189 339.2 99.1203 339.953 100.63 339.184L105.067 336.923C105.65 336.626 106.142 335.853 106.142 335.199V331.252C106.141 330.597 105.65 330.297 105.066 330.595ZM100.873 337.246C100.216 337.58 99.6829 337.254 99.6829 336.516C99.6829 335.779 100.216 334.909 100.873 334.574C101.531 334.239 102.064 334.566 102.064 335.303C102.064 336.041 101.531 336.911 100.873 337.246Z" fill="#E0E0E0"/>
</g>
<g filter="url(#filter2_f)">
<ellipse rx="9.51899" ry="2.03978" transform="matrix(0.866044 -0.499967 0.866044 0.499967 149.01 324.308)" fill="#8C4B26"/>
</g>
<path d="M172 287.029C172 300.72 161.699 318.313 149.5 324.529C137.301 330.744 125 323.52 125 309.828C125 296.137 134.889 279.999 147.088 273.783C159.288 267.567 172 273.337 172 287.029Z" fill="#DB7034"/>
<circle r="24.7904" transform="matrix(0.891007 -0.453991 0 1 150.088 299.574)" fill="#ED7E40"/>
<g clip-path="url(#clip1)">
<path d="M149.603 301.176V300.993C149.603 298.498 151.407 295.563 153.63 294.431L157.967 292.221V290.862C157.967 290.564 157.752 290.432 157.487 290.567L144.78 297.042C144.302 297.285 143.914 297.044 143.914 296.507C143.914 295.97 144.302 295.334 144.78 295.09L157.508 288.605C157.761 288.476 157.967 288.141 157.967 287.857V287.39C157.967 287.133 157.782 287.043 157.553 287.159L143.373 294.384C142.476 294.841 141.76 295.997 141.76 297.004V311.417C141.76 312.424 142.476 312.877 143.373 312.42L156.344 305.811C157.241 305.354 157.967 304.166 157.967 303.16V301.451L153.63 303.661C151.407 304.792 149.603 303.671 149.603 301.176Z" fill="#E0E0E0"/>
<path d="M158.066 293.595L153.63 295.855C152.12 296.624 150.919 298.63 150.919 300.324V300.506C150.919 302.2 152.12 302.953 153.63 302.184L158.067 299.923C158.65 299.626 159.142 298.853 159.142 298.199V294.252C159.141 293.597 158.65 293.297 158.066 293.595ZM153.873 300.246C153.216 300.58 152.683 300.254 152.683 299.516C152.683 298.779 153.216 297.909 153.873 297.574C154.531 297.239 155.064 297.566 155.064 298.303C155.064 299.041 154.531 299.911 153.873 300.246Z" fill="#E0E0E0"/>
</g>
<g filter="url(#filter3_f)">
<ellipse rx="9.51899" ry="2.03978" transform="matrix(0.866044 -0.499967 0.866044 0.499967 201.01 292.308)" fill="#8C4B26"/>
</g>
<path d="M224 255.029C224 268.72 213.699 286.313 201.5 292.529C189.301 298.744 177 291.52 177 277.828C177 264.137 186.889 247.999 199.088 241.783C211.288 235.567 224 241.337 224 255.029Z" fill="#DB7034"/>
<circle r="24.7904" transform="matrix(0.891007 -0.453991 0 1 202.088 267.574)" fill="#ED7E40"/>
<g clip-path="url(#clip2)">
<path d="M201.603 269.176V268.993C201.603 266.498 203.407 263.563 205.63 262.431L209.967 260.221V258.862C209.967 258.564 209.752 258.432 209.487 258.567L196.78 265.042C196.302 265.285 195.914 265.044 195.914 264.507C195.914 263.97 196.302 263.334 196.78 263.09L209.508 256.605C209.761 256.476 209.967 256.141 209.967 255.857V255.39C209.967 255.133 209.782 255.043 209.553 255.159L195.373 262.384C194.476 262.841 193.76 263.997 193.76 265.004V279.417C193.76 280.424 194.476 280.877 195.373 280.42L208.344 273.811C209.241 273.354 209.967 272.166 209.967 271.16V269.451L205.63 271.661C203.407 272.792 201.603 271.671 201.603 269.176Z" fill="#E0E0E0"/>
<path d="M210.066 261.595L205.63 263.855C204.12 264.624 202.919 266.63 202.919 268.324V268.506C202.919 270.2 204.12 270.953 205.63 270.184L210.067 267.923C210.65 267.626 211.142 266.853 211.142 266.199V262.252C211.141 261.597 210.65 261.297 210.066 261.595ZM205.873 268.246C205.216 268.58 204.683 268.254 204.683 267.516C204.683 266.779 205.216 265.909 205.873 265.574C206.531 265.239 207.064 265.566 207.064 266.303C207.064 267.041 206.531 267.911 205.873 268.246Z" fill="#E0E0E0"/>
</g>
<g filter="url(#filter4_f)">
<ellipse rx="9.51899" ry="2.03978" transform="matrix(0.866044 -0.499967 0.866044 0.499967 134.01 384.308)" fill="#8C4B26"/>
</g>
<path d="M157 347.029C157 360.72 146.699 378.313 134.5 384.529C122.301 390.744 110 383.52 110 369.828C110 356.137 119.889 339.999 132.088 333.783C144.288 327.567 157 333.337 157 347.029Z" fill="#DB7034"/>
<circle r="24.7904" transform="matrix(0.891007 -0.453991 0 1 135.088 359.574)" fill="#ED7E40"/>
<g clip-path="url(#clip3)">
<path d="M134.603 361.176V360.993C134.603 358.498 136.407 355.563 138.63 354.431L142.967 352.221V350.862C142.967 350.564 142.752 350.432 142.487 350.567L129.78 357.042C129.302 357.285 128.914 357.044 128.914 356.507C128.914 355.97 129.302 355.334 129.78 355.09L142.508 348.605C142.761 348.476 142.967 348.141 142.967 347.857V347.39C142.967 347.133 142.782 347.043 142.553 347.159L128.373 354.384C127.476 354.841 126.76 355.997 126.76 357.004V371.417C126.76 372.424 127.476 372.877 128.373 372.42L141.344 365.811C142.241 365.354 142.967 364.166 142.967 363.16V361.451L138.63 363.661C136.407 364.792 134.603 363.671 134.603 361.176Z" fill="#E0E0E0"/>
<path d="M143.066 353.595L138.63 355.855C137.12 356.624 135.919 358.63 135.919 360.324V360.506C135.919 362.2 137.12 362.953 138.63 362.184L143.067 359.923C143.65 359.626 144.142 358.853 144.142 358.199V354.252C144.141 353.597 143.65 353.297 143.066 353.595ZM138.873 360.246C138.216 360.58 137.683 360.254 137.683 359.516C137.683 358.779 138.216 357.909 138.873 357.574C139.531 357.239 140.064 357.566 140.064 358.303C140.064 359.041 139.531 359.911 138.873 360.246Z" fill="#E0E0E0"/>
</g>
<g filter="url(#filter5_f)">
<ellipse rx="9.51899" ry="2.03978" transform="matrix(0.866044 -0.499967 0.866044 0.499967 187.01 347.308)" fill="#8C4B26"/>
</g>
<path d="M210 310.029C210 323.72 199.699 341.313 187.5 347.529C175.301 353.744 163 346.52 163 332.828C163 319.137 172.889 302.999 185.088 296.783C197.288 290.567 210 296.337 210 310.029Z" fill="#DB7034"/>
<circle r="24.7904" transform="matrix(0.891007 -0.453991 0 1 188.088 322.574)" fill="#ED7E40"/>
<g clip-path="url(#clip4)">
<path d="M187.603 324.176V323.993C187.603 321.498 189.407 318.563 191.63 317.431L195.967 315.221V313.862C195.967 313.564 195.752 313.432 195.487 313.567L182.78 320.042C182.302 320.285 181.914 320.044 181.914 319.507C181.914 318.97 182.302 318.334 182.78 318.09L195.508 311.605C195.761 311.476 195.967 311.141 195.967 310.857V310.39C195.967 310.133 195.782 310.043 195.553 310.159L181.373 317.384C180.476 317.841 179.76 318.997 179.76 320.004V334.417C179.76 335.424 180.476 335.877 181.373 335.42L194.344 328.811C195.241 328.354 195.967 327.166 195.967 326.16V324.451L191.63 326.661C189.407 327.792 187.603 326.671 187.603 324.176Z" fill="#E0E0E0"/>
<path d="M196.066 316.595L191.63 318.855C190.12 319.624 188.919 321.63 188.919 323.324V323.506C188.919 325.2 190.12 325.953 191.63 325.184L196.067 322.923C196.65 322.626 197.142 321.853 197.142 321.199V317.252C197.141 316.597 196.65 316.297 196.066 316.595ZM191.873 323.246C191.216 323.58 190.683 323.254 190.683 322.516C190.683 321.779 191.216 320.909 191.873 320.574C192.531 320.239 193.064 320.566 193.064 321.303C193.064 322.041 192.531 322.911 191.873 323.246Z" fill="#E0E0E0"/>
</g>
<g filter="url(#filter6_f)">
<ellipse rx="9.51899" ry="2.03978" transform="matrix(0.866044 -0.499967 0.866044 0.499967 239.01 315.308)" fill="#8C4B26"/>
</g>
<path d="M262 278.029C262 291.72 251.699 309.313 239.5 315.529C227.301 321.744 215 314.52 215 300.828C215 287.137 224.889 270.999 237.088 264.783C249.288 258.567 262 264.337 262 278.029Z" fill="#DB7034"/>
<circle r="24.7904" transform="matrix(0.891007 -0.453991 0 1 240.088 290.574)" fill="#ED7E40"/>
<g clip-path="url(#clip5)">
<path d="M239.603 292.176V291.993C239.603 289.498 241.407 286.563 243.63 285.431L247.967 283.221V281.862C247.967 281.564 247.752 281.432 247.487 281.567L234.78 288.042C234.302 288.285 233.914 288.044 233.914 287.507C233.914 286.97 234.302 286.334 234.78 286.09L247.508 279.605C247.761 279.476 247.967 279.141 247.967 278.857V278.39C247.967 278.133 247.782 278.043 247.553 278.159L233.373 285.384C232.476 285.841 231.76 286.997 231.76 288.004V302.417C231.76 303.424 232.476 303.877 233.373 303.42L246.344 296.811C247.241 296.354 247.967 295.166 247.967 294.16V292.451L243.63 294.661C241.407 295.792 239.603 294.671 239.603 292.176Z" fill="#E0E0E0"/>
<path d="M248.066 284.595L243.63 286.855C242.12 287.624 240.919 289.63 240.919 291.324V291.506C240.919 293.2 242.12 293.953 243.63 293.184L248.067 290.923C248.65 290.626 249.142 289.853 249.142 289.199V285.252C249.141 284.597 248.65 284.297 248.066 284.595ZM243.873 291.246C243.216 291.58 242.683 291.254 242.683 290.516C242.683 289.779 243.216 288.909 243.873 288.574C244.531 288.239 245.064 288.566 245.064 289.303C245.064 290.041 244.531 290.911 243.873 291.246Z" fill="#E0E0E0"/>
</g>
<g filter="url(#filter7_f)">
<ellipse rx="9.51899" ry="2.03978" transform="matrix(0.866044 -0.499967 0.866044 0.499967 277.01 338.308)" fill="#8C4B26"/>
</g>
<path d="M300 301.029C300 314.72 289.699 332.313 277.5 338.529C265.301 344.744 253 337.52 253 323.828C253 310.137 262.889 293.999 275.088 287.783C287.288 281.567 300 287.337 300 301.029Z" fill="#DB7034"/>
<circle r="24.7904" transform="matrix(0.891007 -0.453991 0 1 278.088 313.574)" fill="#ED7E40"/>
<g clip-path="url(#clip6)">
<path d="M277.603 315.176V314.993C277.603 312.498 279.407 309.563 281.63 308.431L285.967 306.221V304.862C285.967 304.564 285.752 304.432 285.487 304.567L272.78 311.042C272.302 311.285 271.914 311.044 271.914 310.507C271.914 309.97 272.302 309.334 272.78 309.09L285.508 302.605C285.761 302.476 285.967 302.141 285.967 301.857V301.39C285.967 301.133 285.782 301.043 285.553 301.159L271.373 308.384C270.476 308.841 269.76 309.997 269.76 311.004V325.417C269.76 326.424 270.476 326.877 271.373 326.42L284.344 319.811C285.241 319.354 285.967 318.166 285.967 317.16V315.451L281.63 317.661C279.407 318.792 277.603 317.671 277.603 315.176Z" fill="#E0E0E0"/>
<path d="M286.066 307.595L281.63 309.855C280.12 310.624 278.919 312.63 278.919 314.324V314.506C278.919 316.2 280.12 316.953 281.63 316.184L286.067 313.923C286.65 313.626 287.142 312.853 287.142 312.199V308.252C287.141 307.597 286.65 307.297 286.066 307.595ZM281.873 314.246C281.216 314.58 280.683 314.254 280.683 313.516C280.683 312.779 281.216 311.909 281.873 311.574C282.531 311.239 283.064 311.566 283.064 312.303C283.064 313.041 282.531 313.911 281.873 314.246Z" fill="#E0E0E0"/>
</g>
<g filter="url(#filter8_f)">
<ellipse rx="9.51899" ry="2.03978" transform="matrix(0.866044 -0.499967 0.866044 0.499967 172.01 407.308)" fill="#8C4B26"/>
</g>
<path d="M195 370.029C195 383.72 184.699 401.313 172.5 407.529C160.301 413.744 148 406.52 148 392.828C148 379.137 157.889 362.999 170.088 356.783C182.288 350.567 195 356.337 195 370.029Z" fill="#DB7034"/>
<circle r="24.7904" transform="matrix(0.891007 -0.453991 0 1 173.088 382.574)" fill="#ED7E40"/>
<g clip-path="url(#clip7)">
<path d="M172.603 384.176V383.993C172.603 381.498 174.407 378.563 176.63 377.431L180.967 375.221V373.862C180.967 373.564 180.752 373.432 180.487 373.567L167.78 380.042C167.302 380.285 166.914 380.044 166.914 379.507C166.914 378.97 167.302 378.334 167.78 378.09L180.508 371.605C180.761 371.476 180.967 371.141 180.967 370.857V370.39C180.967 370.133 180.782 370.043 180.553 370.159L166.373 377.384C165.476 377.841 164.76 378.997 164.76 380.004V394.417C164.76 395.424 165.476 395.877 166.373 395.42L179.344 388.811C180.241 388.354 180.967 387.166 180.967 386.16V384.451L176.63 386.661C174.407 387.792 172.603 386.671 172.603 384.176Z" fill="#E0E0E0"/>
<path d="M181.066 376.595L176.63 378.855C175.12 379.624 173.919 381.63 173.919 383.324V383.506C173.919 385.2 175.12 385.953 176.63 385.184L181.067 382.923C181.65 382.626 182.142 381.853 182.142 381.199V377.252C182.141 376.597 181.65 376.297 181.066 376.595ZM176.873 383.246C176.216 383.58 175.683 383.254 175.683 382.516C175.683 381.779 176.216 380.909 176.873 380.574C177.531 380.239 178.064 380.566 178.064 381.303C178.064 382.041 177.531 382.911 176.873 383.246Z" fill="#E0E0E0"/>
</g>
<g filter="url(#filter9_f)">
<ellipse rx="9.51899" ry="2.03978" transform="matrix(0.866044 -0.499967 0.866044 0.499967 227.01 373.308)" fill="#8C4B26"/>
</g>
<path d="M250 336.029C250 349.72 239.699 367.313 227.5 373.529C215.301 379.744 203 372.52 203 358.828C203 345.137 212.889 328.999 225.088 322.783C237.288 316.567 250 322.337 250 336.029Z" fill="#DB7034"/>
<circle r="24.7904" transform="matrix(0.891007 -0.453991 0 1 228.088 348.574)" fill="#ED7E40"/>
<g clip-path="url(#clip8)">
<path d="M227.603 350.176V349.993C227.603 347.498 229.407 344.563 231.63 343.431L235.967 341.221V339.862C235.967 339.564 235.752 339.432 235.487 339.567L222.78 346.042C222.302 346.285 221.914 346.044 221.914 345.507C221.914 344.97 222.302 344.334 222.78 344.09L235.508 337.605C235.761 337.476 235.967 337.141 235.967 336.857V336.39C235.967 336.133 235.782 336.043 235.553 336.159L221.373 343.384C220.476 343.841 219.76 344.997 219.76 346.004V360.417C219.76 361.424 220.476 361.877 221.373 361.42L234.344 354.811C235.241 354.354 235.967 353.166 235.967 352.16V350.451L231.63 352.661C229.407 353.792 227.603 352.671 227.603 350.176Z" fill="#E0E0E0"/>
<path d="M236.066 342.595L231.63 344.855C230.12 345.624 228.919 347.63 228.919 349.324V349.506C228.919 351.2 230.12 351.953 231.63 351.184L236.067 348.923C236.65 348.626 237.142 347.853 237.142 347.199V343.252C237.141 342.597 236.65 342.297 236.066 342.595ZM231.873 349.246C231.216 349.58 230.683 349.254 230.683 348.516C230.683 347.779 231.216 346.909 231.873 346.574C232.531 346.239 233.064 346.566 233.064 347.303C233.064 348.041 232.531 348.911 231.873 349.246Z" fill="#E0E0E0"/>
</g>
<path fill-rule="evenodd" clip-rule="evenodd" d="M579.738 581.197C577.806 578.838 576.03 576.332 574.439 573.723L569.225 577.256C569.178 577.179 569.13 577.102 569.083 577.025L567.386 578.175L567.35 578.116L567.245 577.945L565.547 579.095C565.526 579.059 565.504 579.024 565.482 578.988C565.457 578.947 565.431 578.905 565.406 578.864L563.709 580.014C563.661 579.937 563.614 579.86 563.567 579.783L561.87 580.933C557.581 573.969 554.184 566.496 551.936 558.889L554.127 559.131C554.007 558.745 553.889 558.357 553.774 557.97L555.966 558.212C555.845 557.825 555.728 557.438 555.613 557.05L557.804 557.293C557.684 556.906 557.566 556.519 557.452 556.131L559.643 556.373C559.523 555.986 559.405 555.599 559.291 555.212L567.079 556.072C566.484 553.543 566.083 551.004 565.896 548.485L565.758 548.47C565.81 548.85 565.866 549.231 565.926 549.611L563.919 549.389C563.971 549.769 564.027 550.15 564.088 550.53L562.08 550.309C562.132 550.689 562.189 551.069 562.249 551.45L549.866 550.082C549.192 546.202 548.839 542.325 548.839 538.5C548.839 535.088 549.12 531.859 549.659 528.829L551.188 529.88C551.279 529.214 551.383 528.557 551.498 527.91L553.027 528.96C553.118 528.295 553.221 527.638 553.337 526.99L554.865 528.041C554.957 527.375 555.06 526.719 555.175 526.071L556.704 527.122C556.789 526.503 556.884 525.892 556.99 525.289L551.571 521.564C553.72 515.552 557.065 510.609 561.339 506.914L561.664 507.394C562.155 506.909 562.659 506.443 563.178 505.995L563.503 506.474C563.993 505.99 564.498 505.523 565.016 505.075L565.342 505.555C565.832 505.07 566.337 504.604 566.855 504.156L567.18 504.636C567.291 504.526 567.403 504.417 567.516 504.309L566.745 503.173C567.353 502.843 567.973 502.533 568.604 502.242C569.205 501.917 569.818 501.61 570.443 501.323C571.044 500.997 571.657 500.691 572.282 500.404C572.883 500.078 573.496 499.771 574.12 499.484C579.1 496.784 584.911 495.413 591.284 495.555L592.346 500.248C592.734 500.331 593.124 500.42 593.514 500.514L593.201 499.128C593.913 499.266 594.631 499.421 595.353 499.594L595.039 498.208C595.752 498.346 596.469 498.502 597.192 498.675L596.878 497.289C597.591 497.427 598.308 497.582 599.031 497.756L598.717 496.37C601.916 496.989 605.219 497.963 608.597 499.31C612.029 500.679 615.384 502.373 618.632 504.347L615.386 516.095C614.931 515.831 614.474 515.574 614.014 515.325L613.547 517.014C613.092 516.75 612.635 516.493 612.175 516.244L611.708 517.934C611.254 517.669 610.796 517.413 610.337 517.163L610.062 518.156C611.477 518.777 612.869 519.479 614.236 520.255L614.232 520.271C614.955 520.684 615.672 521.118 616.38 521.572L618.704 513.162C619.14 513.502 619.573 513.846 620.003 514.196L620.543 512.243C620.978 512.582 621.411 512.927 621.842 513.276L622.381 511.323C622.817 511.663 623.25 512.007 623.68 512.357L624.22 510.404C624.656 510.744 625.089 511.088 625.519 511.438L626.059 509.485C632.419 514.442 638.216 520.458 643.18 527.137L634.34 533.128C634.285 533.056 634.23 532.985 634.175 532.913L632.502 534.048C632.447 533.976 632.392 533.904 632.337 533.833L630.869 534.827C630.981 534.969 631.093 535.111 631.203 535.254L631.168 535.278C632.929 537.547 634.547 539.938 635.999 542.416L641.22 538.878C641.266 538.955 641.313 539.033 641.359 539.11L643.059 537.959C643.105 538.036 643.151 538.114 643.198 538.191L644.897 537.039C644.944 537.117 644.99 537.194 645.036 537.272L646.736 536.12C646.783 536.197 646.829 536.275 646.875 536.352L648.575 535.2C652.822 542.284 656.145 549.87 658.282 557.569L656.112 557.329C656.226 557.715 656.336 558.102 656.443 558.488L654.274 558.249C654.387 558.635 654.497 559.021 654.605 559.408L652.435 559.168C652.548 559.554 652.659 559.94 652.766 560.327L650.596 560.087C650.709 560.473 650.82 560.86 650.927 561.246L643.051 560.376C643.34 561.765 643.57 563.155 643.737 564.541L643.752 564.542C643.886 565.678 643.978 566.812 644.026 567.94L644.51 567.994C644.469 567.615 644.424 567.236 644.374 566.856L646.349 567.074C646.308 566.695 646.263 566.316 646.213 565.937L648.188 566.155C648.147 565.776 648.101 565.397 648.052 565.018L660.187 566.358C660.721 569.802 661 573.24 661 576.637C661 580.446 660.65 584.026 659.981 587.357L658.492 586.333C658.387 586.99 658.271 587.638 658.143 588.276L656.653 587.252C656.548 587.909 656.432 588.557 656.304 589.196L654.814 588.172C654.71 588.829 654.593 589.476 654.465 590.115L652.976 589.091C652.878 589.701 652.771 590.304 652.654 590.898L657.918 594.517C655.682 600.312 652.307 605.066 648.045 608.609L647.742 608.162C647.244 608.636 646.732 609.091 646.206 609.528L645.904 609.082C645.406 609.555 644.893 610.011 644.368 610.447L644.065 610.001C643.567 610.474 643.055 610.93 642.529 611.367L642.226 610.92C642.114 611.028 642 611.134 641.886 611.239L642.567 612.244C641.958 612.559 641.338 612.855 640.706 613.131L640.728 613.163C640.12 613.479 639.499 613.775 638.868 614.051L638.889 614.083C638.281 614.398 637.661 614.694 637.029 614.97L637.051 615.002C636.442 615.317 635.822 615.613 635.19 615.889L635.212 615.921C630.701 618.26 625.53 619.527 619.892 619.59C625.234 620.567 630.28 620.543 634.892 619.611C629.374 625.828 619.796 635.364 613.173 638.229C612.54 638.584 611.925 638.893 611.334 639.148C610.701 639.503 610.087 639.812 609.496 640.068C608.863 640.423 608.248 640.731 607.657 640.987C605.004 642.474 602.676 643.153 601.042 642.501C595.213 640.175 581.454 614.247 575.102 601.17C576.56 602.718 578.067 604.21 579.616 605.638C578.63 603.691 577.728 601.872 576.941 600.251C578.399 601.799 579.905 603.29 581.455 604.719C581.17 604.156 580.892 603.604 580.621 603.064C575.782 598.902 571.319 594.127 567.36 588.932L576.461 582.764C576.517 582.835 576.573 582.906 576.63 582.977L578.3 581.845C578.356 581.916 578.412 581.987 578.468 582.057L579.738 581.197ZM593.902 593.846L591.565 602.307C591.128 601.972 590.694 601.631 590.262 601.285L589.726 603.227C589.289 602.891 588.855 602.55 588.424 602.205L588.187 603.061C589.691 604.396 591.232 605.671 592.809 606.881L594.976 599.036C595.432 599.297 595.89 599.551 596.351 599.797L596.815 598.117C597.27 598.378 597.729 598.631 598.189 598.877L598.654 597.197C599.109 597.458 599.567 597.712 600.028 597.958L600.243 597.18C598.075 596.25 595.956 595.131 593.902 593.846ZM613.81 600.14C614.218 600.247 614.625 600.346 615.029 600.438L616.057 604.979C616.425 604.968 616.79 604.95 617.153 604.926L616.96 604.072C617.646 604.073 618.324 604.051 618.992 604.006L618.798 603.153C619.485 603.154 620.162 603.132 620.83 603.087L620.637 602.233C621.323 602.235 622.001 602.213 622.669 602.168L622.476 601.314C625.935 601.321 629.167 600.734 632.098 599.607L631.736 599.074C634.507 596.652 636.758 593.534 638.36 589.806L639.426 590.539C639.699 590.002 639.956 589.452 640.199 588.887L641.265 589.62C641.537 589.083 641.795 588.532 642.038 587.967L643.104 588.7C643.376 588.164 643.634 587.613 643.876 587.048L644.943 587.781C645.195 587.282 645.436 586.771 645.664 586.248L641.416 583.328C639.052 588.579 635.218 592.428 630.383 594.557C629.787 594.892 629.174 595.198 628.544 595.476C627.949 595.811 627.335 596.118 626.705 596.395C626.11 596.73 625.497 597.037 624.867 597.315C621.653 599.124 617.914 600.103 613.81 600.14ZM579.456 520.581C580.052 520.245 580.665 519.939 581.295 519.661C581.89 519.326 582.504 519.019 583.134 518.742C583.729 518.407 584.342 518.1 584.973 517.822C588.415 515.884 592.462 514.899 596.914 515.003C596.142 514.788 595.377 514.599 594.62 514.436L593.617 510.007C593.25 510.023 592.886 510.046 592.524 510.075L592.711 510.901C592.027 510.909 591.351 510.94 590.686 510.995L590.873 511.82C590.188 511.828 589.513 511.86 588.847 511.914L589.034 512.739C588.349 512.747 587.674 512.779 587.008 512.833L587.195 513.659C583.559 513.702 580.179 514.405 577.145 515.707L577.683 516.501C574.935 519.094 572.743 522.409 571.243 526.354L570.11 525.575C569.86 526.128 569.625 526.694 569.404 527.274L568.271 526.495C568.021 527.047 567.786 527.613 567.565 528.193L566.432 527.414C566.183 527.966 565.947 528.532 565.727 529.112L564.594 528.333C564.361 528.847 564.142 529.372 563.935 529.909L568.031 532.725C570.352 527.004 574.344 522.831 579.456 520.581ZM617.355 614.859C616.967 614.775 616.577 614.685 616.186 614.59L616.501 615.983C615.788 615.843 615.07 615.685 614.347 615.509L614.663 616.902C613.95 616.762 613.232 616.604 612.509 616.429L612.809 617.754C614.687 618.38 616.538 618.889 618.356 619.283L617.355 614.859ZM615.329 576.954C615.878 575.792 616.214 574.295 616.214 572.384C616.214 571.41 616.127 570.471 615.969 569.571C615.773 569.675 615.569 569.751 615.365 569.808C615.192 569.857 615.016 569.892 614.842 569.915C614.468 570.365 613.996 570.596 613.526 570.728C613.353 570.776 613.177 570.811 613.003 570.835C612.629 571.284 612.157 571.515 611.688 571.647C611.514 571.696 611.338 571.731 611.165 571.754C610.79 572.204 610.319 572.434 609.849 572.566C609.675 572.615 609.5 572.65 609.326 572.673C608.952 573.123 608.48 573.354 608.01 573.486C607.441 573.646 606.847 573.654 606.383 573.615C606.19 573.599 606.03 573.575 605.917 573.556L606.265 573.694V578.653L607.988 579.34V577.687L609.826 578.421V576.768L611.665 577.502V575.849L613.694 576.658L613.88 576.708L613.883 576.708L613.886 576.709L613.893 576.711L613.909 576.715L613.949 576.725C613.979 576.733 614.016 576.742 614.06 576.752C614.146 576.772 614.259 576.796 614.395 576.822C614.638 576.867 614.956 576.918 615.329 576.954ZM598.91 570.76V564.154L597.554 563.612V565.265L595.715 564.532V566.185L593.993 565.497V568.798L598.91 570.76ZM599.393 560.123L600.749 560.664V559.011L602.588 559.745V558.092L604.426 558.825V557.172L606.265 557.906V556.253L613.562 559.164L613.598 559.192C613.668 559.246 613.74 559.303 613.815 559.363C614.243 558.271 614.496 556.895 614.496 555.182C614.496 554.16 614.407 553.185 614.245 552.257C614.046 552.314 613.847 552.334 613.668 552.336L613.471 552.257C613.185 552.828 612.807 553.036 612.531 553.136C612.292 553.224 612.046 553.254 611.829 553.255L611.632 553.176C611.347 553.747 610.968 553.955 610.692 554.056C610.453 554.143 610.207 554.173 609.99 554.174L609.793 554.096C609.508 554.666 609.129 554.874 608.853 554.975C608.614 555.062 608.368 555.092 608.152 555.094L607.954 555.015C607.669 555.586 607.291 555.794 607.015 555.894C606.776 555.982 606.529 556.012 606.313 556.013L599.393 553.252V560.123ZM599.393 544.532L600.749 545.073V543.42L602.588 544.153V542.5L604.426 543.234V541.581L606.265 542.315V540.667L604.31 539.887V534.928L602.588 534.241V535.894L600.749 535.16V536.813L598.91 536.08V537.727L599.393 537.92V544.532Z" fill="#5D5F50"/>
<path fill-rule="evenodd" clip-rule="evenodd" d="M569.117 575.696C566.359 571.074 564.118 566.174 562.523 561.181L550.097 559.809C552.346 567.415 555.742 574.889 560.031 581.853L569.117 575.696ZM568.489 521.098C565.741 523.691 563.549 527.006 562.049 530.951L549.732 522.483C551.882 516.471 555.226 511.528 559.5 507.833L568.489 521.098ZM585.356 514.578C581.132 514.628 577.253 515.569 573.861 517.305L564.907 504.092C569.891 501.384 575.709 500.009 582.09 500.151L585.356 514.578ZM599.403 522.141L599.465 522.165L599.526 522.19C601.403 522.938 603.245 523.831 605.043 524.852L605.038 524.868C607.615 526.339 610.1 528.073 612.461 530.021L612.47 529.987C615.955 532.854 619.169 536.192 622.01 539.851L621.974 539.875C623.957 542.429 625.759 545.139 627.346 547.954L627.381 547.93C629.623 551.911 631.433 556.101 632.711 560.356L632.678 560.353C633.558 563.266 634.19 566.21 634.543 569.138L634.558 569.139C634.764 570.883 634.871 572.622 634.871 574.344L634.87 574.41L634.871 574.477C634.871 595.566 618.991 606.327 599.403 598.512C579.815 590.697 563.936 567.266 563.936 546.177C563.936 525.087 579.815 514.326 599.403 522.141ZM606.192 520.692C604.025 519.433 601.798 518.339 599.526 517.433C597.227 516.516 594.973 515.827 592.781 515.355L589.523 500.966C592.723 501.586 596.026 502.559 599.403 503.907C602.835 505.276 606.19 506.97 609.438 508.944L606.192 520.692ZM625.147 537.725C621.745 533.279 617.856 529.242 613.621 525.824L616.865 514.081C623.225 519.038 629.022 525.055 633.987 531.734L625.147 537.725ZM636.996 560.83C635.489 555.674 633.287 550.595 630.526 545.798L639.381 539.797C643.628 546.881 646.951 554.467 649.088 562.166L636.996 560.83ZM638.638 583.602C639.065 581.257 639.289 578.755 639.289 576.107C639.289 573.959 639.142 571.79 638.858 569.614L650.993 570.955C651.528 574.399 651.806 577.837 651.806 581.233C651.806 585.042 651.456 588.623 650.788 591.954L638.638 583.602ZM629.897 599.993C632.668 597.572 634.919 594.454 636.521 590.725L648.724 599.114C646.489 604.908 643.114 609.663 638.851 613.206L629.897 599.993ZM613.282 605.911C617.334 605.919 621.076 605.113 624.384 603.576L633.373 616.841C628.473 619.381 622.794 620.657 616.585 620.499L613.282 605.911ZM593.137 599.955C595.217 601.147 597.351 602.186 599.526 603.054C601.673 603.91 603.78 604.568 605.835 605.035L609.146 619.66C605.989 619.04 602.733 618.075 599.403 616.746C596.128 615.44 592.924 613.838 589.815 611.979L593.137 599.955ZM585.695 594.875C581.653 591.647 577.921 587.857 574.622 583.683L565.521 589.851C570.441 596.307 576.14 602.114 582.371 606.904L585.695 594.875ZM547.82 529.748L560.191 538.252C559.909 540.195 559.763 542.24 559.763 544.38C559.763 547.019 559.985 549.692 560.41 552.369L548.027 551.001C547.353 547.121 547 543.244 547 539.42C547 536.008 547.281 532.778 547.82 529.748ZM573.263 602.089C579.615 615.166 593.374 641.095 599.203 643.42C604.818 645.66 618.609 632.196 625.698 624.208C618.22 625.719 609.603 624.843 600.43 621.183C590.47 617.21 581.166 610.478 573.263 602.089ZM602.471 534.2L597.071 532.045V538.652L584.799 533.756V540.362L590.199 542.517V568.943L584.799 566.788V573.395L597.071 578.291V585.426L602.471 587.58V580.445L604.5 581.255L604.686 581.304L604.689 581.305L604.692 581.306L604.699 581.308L604.715 581.312L604.755 581.322C604.785 581.33 604.822 581.339 604.866 581.349C604.953 581.369 605.066 581.393 605.201 581.419C605.472 581.47 605.837 581.526 606.266 581.562C607.114 581.634 608.269 581.629 609.448 581.298C611.918 580.604 614.376 578.468 614.376 573.303C614.376 568.874 612.571 565.179 610.536 562.496C611.786 561.3 612.657 559.281 612.657 556.101C612.657 551.548 610.877 547.907 608.836 545.381C607.872 544.187 606.915 543.321 606.197 542.75C605.835 542.462 605.523 542.24 605.285 542.082C605.166 542.002 605.065 541.937 604.984 541.887C604.944 541.863 604.909 541.841 604.879 541.823C604.864 541.814 604.85 541.806 604.838 541.799L604.82 541.789L604.813 541.784L604.809 541.782L604.805 541.78L604.56 541.64L602.471 540.806V534.2ZM597.071 545.258L603.94 547.999C603.96 548.013 603.981 548.029 604.003 548.047L604.033 548.07L604.051 548.084L604.077 548.104C604.348 548.32 604.711 548.649 605.065 549.088C605.663 549.828 606.521 551.203 606.521 553.653C606.521 556.091 605.679 556.63 605.176 556.814C604.937 556.901 604.691 556.931 604.474 556.932L597.071 553.979V545.258ZM597.071 560.85L604.368 563.761L604.405 563.789C604.876 564.152 605.487 564.681 606.077 565.352C607.173 566.597 608.239 568.332 608.239 570.855C608.239 573.353 607.2 574.116 606.171 574.405C605.602 574.565 605.008 574.573 604.544 574.534C604.337 574.517 604.168 574.491 604.055 574.471L597.071 571.685V560.85Z" fill="#F4FF71"/>
<g opacity="0.1">
<g filter="url(#filter10_i)">
<circle r="31.4344" transform="matrix(0.866044 -0.499967 0.866044 0.499967 385.447 489.062)" fill="#B8B6B6"/>
</g>
<path d="M252 374L298.272 397.608C299.946 398.462 301 400.183 301 402.062V438.134C301 439.909 301.941 441.551 303.473 442.449L491.473 552.59C494.806 554.543 499 552.139 499 548.276V515.79C499 511.912 503.222 509.511 506.555 511.492L536 529" stroke="#B0B0B0" stroke-width="4" stroke-linecap="round" stroke-dasharray="4 4"/>
<circle r="31.4344" transform="matrix(0.866044 -0.499967 0.866044 0.499967 385.447 485.062)" fill="#EBEBEB"/>
<path d="M378.181 493.142L371.711 486.184L374.536 484.554L382.562 494.138L379.915 495.666L363.329 491.023L366.146 489.397L378.181 493.142ZM386.215 487.019L390.554 489.524L388.017 490.989L375.703 483.88L380.507 481.106C381.431 480.573 382.412 480.202 383.45 479.993C384.493 479.782 385.516 479.748 386.52 479.891C387.518 480.031 388.414 480.33 389.209 480.789C390.416 481.486 390.954 482.275 390.825 483.157C390.695 484.033 389.9 484.892 388.44 485.735L386.215 487.019ZM384.16 485.833L386.427 484.524C387.098 484.137 387.45 483.751 387.484 483.367C387.523 482.98 387.25 482.617 386.664 482.278C386.06 481.93 385.395 481.751 384.668 481.741C383.94 481.731 383.258 481.904 382.621 482.259L380.295 483.601L384.16 485.833ZM409.211 478.753L406.674 480.218L393.633 478.392L401.735 483.069L399.198 484.534L386.883 477.425L389.421 475.96L402.488 477.791L394.368 473.104L396.897 471.644L409.211 478.753Z" fill="black"/>
</g>
<path d="M558.448 442.221C558.448 431.452 566.279 426.583 575.937 431.346L653.069 469.383C662.727 474.146 670.558 486.738 670.558 497.507C670.558 508.277 662.727 513.146 653.069 508.383L638.558 501.227C630.74 497.371 623.177 496.747 617.225 499.464L614.493 500.712L610.583 495.327C604.801 487.363 597.638 481.048 590.259 477.409L575.937 470.346C566.279 465.583 558.448 452.991 558.448 442.221Z" fill="white" stroke="#F4FF71"/>
<path d="M593.518 462.086C593.518 463.206 593.34 464.1 592.985 464.769C592.63 465.437 592.121 465.837 591.458 465.968C590.799 466.102 590.042 465.958 589.187 465.536C588.342 465.119 587.587 464.521 586.924 463.741C586.261 462.96 585.747 462.061 585.383 461.043C585.018 460.02 584.834 458.96 584.829 457.864V457.301C584.829 456.181 585.009 455.286 585.369 454.614C585.733 453.94 586.244 453.538 586.903 453.41C587.566 453.279 588.323 453.423 589.173 453.842C590.023 454.261 590.778 454.862 591.437 455.646C592.1 456.426 592.611 457.332 592.971 458.363C593.335 459.392 593.518 460.464 593.518 461.578V462.086ZM591.387 460.52C591.387 459.327 591.196 458.326 590.813 457.518C590.43 456.709 589.883 456.13 589.173 455.78C588.468 455.432 587.924 455.471 587.541 455.896C587.158 456.317 586.964 457.117 586.959 458.297V458.852C586.959 460.013 587.151 461.009 587.534 461.838C587.917 462.668 588.468 463.26 589.187 463.615C589.893 463.962 590.435 463.922 590.813 463.494C591.191 463.061 591.383 462.255 591.387 461.075V460.52ZM602.122 462.282L598.997 460.741V470.218L596.895 469.181V459.705L593.812 458.184V456.286L602.122 460.384V462.282ZM606.074 462.333L608.694 471.875L611.301 464.91L614.062 466.272V477.647L611.952 476.607V473.497L612.163 468.234L609.409 475.352L607.966 474.641L605.219 464.817L605.429 470.28V473.39L603.327 472.353V460.978L606.074 462.333ZM622.035 476.649L617.999 474.659V477.706L622.736 480.042V481.925L615.897 478.552V467.177L622.722 470.543V472.441L617.999 470.112V472.823L622.035 474.813V476.649ZM632.272 486.627L630.17 485.591V480.716L626.071 478.694V483.569L623.969 482.533V471.158L626.071 472.194V476.804L630.17 478.825V474.216L632.272 475.252V486.627ZM640.001 488.095L636.315 486.277L635.614 488.276L633.379 487.173L637.177 477.671L639.125 478.632L642.944 491.89L640.708 490.788L640.001 488.095ZM636.883 484.659L639.433 485.917L638.151 481.026L636.883 484.659Z" fill="#333333"/>
<defs>
<filter id="filter0_f" x="40.25" y="95.1482" width="89.3402" height="146.371" filterUnits="userSpaceOnUse" color-interpolation-filters="sRGB">
<feFlood flood-opacity="0" result="BackgroundImageFix"/>
<feBlend mode="normal" in="SourceGraphic" in2="BackgroundImageFix" result="shape"/>
<feGaussianBlur stdDeviation="7.5" result="effect1_foregroundBlur"/>
</filter>
<filter id="filter1_f" x="77.5776" y="346.439" width="36.8655" height="29.7365" filterUnits="userSpaceOnUse" color-interpolation-filters="sRGB">
<feFlood flood-opacity="0" result="BackgroundImageFix"/>
<feBlend mode="normal" in="SourceGraphic" in2="BackgroundImageFix" result="shape"/>
<feGaussianBlur stdDeviation="5" result="effect1_foregroundBlur"/>
</filter>
<filter id="filter2_f" x="130.578" y="309.439" width="36.8655" height="29.7365" filterUnits="userSpaceOnUse" color-interpolation-filters="sRGB">
<feFlood flood-opacity="0" result="BackgroundImageFix"/>
<feBlend mode="normal" in="SourceGraphic" in2="BackgroundImageFix" result="shape"/>
<feGaussianBlur stdDeviation="5" result="effect1_foregroundBlur"/>
</filter>
<filter id="filter3_f" x="182.578" y="277.439" width="36.8655" height="29.7365" filterUnits="userSpaceOnUse" color-interpolation-filters="sRGB">
<feFlood flood-opacity="0" result="BackgroundImageFix"/>
<feBlend mode="normal" in="SourceGraphic" in2="BackgroundImageFix" result="shape"/>
<feGaussianBlur stdDeviation="5" result="effect1_foregroundBlur"/>
</filter>
<filter id="filter4_f" x="115.578" y="369.439" width="36.8655" height="29.7365" filterUnits="userSpaceOnUse" color-interpolation-filters="sRGB">
<feFlood flood-opacity="0" result="BackgroundImageFix"/>
<feBlend mode="normal" in="SourceGraphic" in2="BackgroundImageFix" result="shape"/>
<feGaussianBlur stdDeviation="5" result="effect1_foregroundBlur"/>
</filter>
<filter id="filter5_f" x="168.578" y="332.439" width="36.8655" height="29.7365" filterUnits="userSpaceOnUse" color-interpolation-filters="sRGB">
<feFlood flood-opacity="0" result="BackgroundImageFix"/>
<feBlend mode="normal" in="SourceGraphic" in2="BackgroundImageFix" result="shape"/>
<feGaussianBlur stdDeviation="5" result="effect1_foregroundBlur"/>
</filter>
<filter id="filter6_f" x="220.578" y="300.439" width="36.8655" height="29.7365" filterUnits="userSpaceOnUse" color-interpolation-filters="sRGB">
<feFlood flood-opacity="0" result="BackgroundImageFix"/>
<feBlend mode="normal" in="SourceGraphic" in2="BackgroundImageFix" result="shape"/>
<feGaussianBlur stdDeviation="5" result="effect1_foregroundBlur"/>
</filter>
<filter id="filter7_f" x="258.578" y="323.439" width="36.8655" height="29.7365" filterUnits="userSpaceOnUse" color-interpolation-filters="sRGB">
<feFlood flood-opacity="0" result="BackgroundImageFix"/>
<feBlend mode="normal" in="SourceGraphic" in2="BackgroundImageFix" result="shape"/>
<feGaussianBlur stdDeviation="5" result="effect1_foregroundBlur"/>
</filter>
<filter id="filter8_f" x="153.578" y="392.439" width="36.8655" height="29.7365" filterUnits="userSpaceOnUse" color-interpolation-filters="sRGB">
<feFlood flood-opacity="0" result="BackgroundImageFix"/>
<feBlend mode="normal" in="SourceGraphic" in2="BackgroundImageFix" result="shape"/>
<feGaussianBlur stdDeviation="5" result="effect1_foregroundBlur"/>
</filter>
<filter id="filter9_f" x="208.578" y="358.439" width="36.8655" height="29.7365" filterUnits="userSpaceOnUse" color-interpolation-filters="sRGB">
<feFlood flood-opacity="0" result="BackgroundImageFix"/>
<feBlend mode="normal" in="SourceGraphic" in2="BackgroundImageFix" result="shape"/>
<feGaussianBlur stdDeviation="5" result="effect1_foregroundBlur"/>
</filter>
<filter id="filter10_i" x="346.947" y="466.836" width="77" height="44.4521" filterUnits="userSpaceOnUse" color-interpolation-filters="sRGB">
<feFlood flood-opacity="0" result="BackgroundImageFix"/>
<feBlend mode="normal" in="SourceGraphic" in2="BackgroundImageFix" result="shape"/>
<feColorMatrix in="SourceAlpha" type="matrix" values="0 0 0 0 0 0 0 0 0 0 0 0 0 0 0 0 0 0 127 0" result="hardAlpha"/>
<feOffset/>
<feGaussianBlur stdDeviation="5"/>
<feComposite in2="hardAlpha" operator="arithmetic" k2="-1" k3="1"/>
<feColorMatrix type="matrix" values="0 0 0 0 0 0 0 0 0 0 0 0 0 0 0 0 0 0 0.75 0"/>
<feBlend mode="normal" in2="shape" result="effect1_innerShadow"/>
</filter>
<clipPath id="clip0">
<rect width="19.5072" height="19.5072" transform="matrix(0.891007 -0.453991 0 1 88.7603 331.47)" fill="white"/>
</clipPath>
<clipPath id="clip1">
<rect width="19.5072" height="19.5072" transform="matrix(0.891007 -0.453991 0 1 141.76 294.47)" fill="white"/>
</clipPath>
<clipPath id="clip2">
<rect width="19.5072" height="19.5072" transform="matrix(0.891007 -0.453991 0 1 193.76 262.47)" fill="white"/>
</clipPath>
<clipPath id="clip3">
<rect width="19.5072" height="19.5072" transform="matrix(0.891007 -0.453991 0 1 126.76 354.47)" fill="white"/>
</clipPath>
<clipPath id="clip4">
<rect width="19.5072" height="19.5072" transform="matrix(0.891007 -0.453991 0 1 179.76 317.47)" fill="white"/>
</clipPath>
<clipPath id="clip5">
<rect width="19.5072" height="19.5072" transform="matrix(0.891007 -0.453991 0 1 231.76 285.47)" fill="white"/>
</clipPath>
<clipPath id="clip6">
<rect width="19.5072" height="19.5072" transform="matrix(0.891007 -0.453991 0 1 269.76 308.47)" fill="white"/>
</clipPath>
<clipPath id="clip7">
<rect width="19.5072" height="19.5072" transform="matrix(0.891007 -0.453991 0 1 164.76 377.47)" fill="white"/>
</clipPath>
<clipPath id="clip8">
<rect width="19.5072" height="19.5072" transform="matrix(0.891007 -0.453991 0 1 219.76 343.47)" fill="white"/>
</clipPath>
</defs>
</svg>
