<svg width="176" height="23" viewBox="0 0 176 23" fill="none" xmlns="http://www.w3.org/2000/svg">
<path d="M32.9517 2.73242H35.3398V14.9368C35.3398 18.17 33.9347 20.4014 30.6419 20.4014C29.6682 20.4162 28.6992 20.2622 27.7773 19.946V17.6083C28.5637 17.9153 29.4006 18.0698 30.2439 18.0637C32.2612 18.0637 32.9577 16.8494 32.9577 15.0977L32.9517 2.73242Z" fill="white"/>
<path d="M39.6909 1.79435C39.9039 1.77901 40.1177 1.80995 40.3177 1.88508C40.5178 1.96021 40.6995 2.07777 40.8505 2.22979C41.0015 2.38181 41.1183 2.56475 41.1929 2.76619C41.2675 2.96763 41.2982 3.18286 41.283 3.39731C41.283 3.82244 41.1152 4.23016 40.8167 4.53077C40.5181 4.83138 40.1131 5.00027 39.6909 5.00027C39.2686 5.00027 38.8637 4.83138 38.5651 4.53077C38.2665 4.23016 38.0988 3.82244 38.0988 3.39731C38.0835 3.18286 38.1143 2.96763 38.1889 2.76619C38.2635 2.56475 38.3803 2.38181 38.5313 2.22979C38.6823 2.07777 38.8639 1.96021 39.064 1.88508C39.2641 1.80995 39.4779 1.77901 39.6909 1.79435ZM38.5239 6.92503H40.8066V20.283H38.5239V6.92503Z" fill="white"/>
<path d="M44.2532 6.92182H46.4815V9.27161C47.2504 7.69597 48.5923 6.57269 51.1794 6.73359V8.97713C48.2606 8.67353 46.4815 9.56609 46.4815 12.3956V20.2889H44.2532V6.92182Z" fill="white"/>
<path d="M61.8719 17.8755C61.0216 19.6393 59.4295 20.5471 57.3881 20.5471C53.8601 20.5471 52.0811 17.5294 52.0811 13.6009C52.0811 9.83338 53.9385 6.65479 57.6534 6.65479C59.5893 6.65479 61.0759 7.5352 61.8749 9.27173V6.92194H64.1575V20.2799H61.8749L61.8719 17.8755ZM57.9972 18.4098C60.0416 18.4098 61.8719 17.1013 61.8719 14.1353V13.0545C61.8719 10.0884 60.2014 8.77992 58.2535 8.77992C55.6784 8.77992 54.3516 10.4891 54.3516 13.5888C54.3637 16.8068 55.6362 18.4098 58.0002 18.4098H57.9972Z" fill="white"/>
<path d="M77.6604 20.5473C74.2892 20.5473 72.7243 19.8794 71.3704 19.1842V16.7281C72.9896 17.5842 75.4833 18.1975 77.7901 18.1975C80.4164 18.1975 81.4085 17.1562 81.4085 15.6048C81.4085 14.0535 80.4526 13.2277 77.1357 12.4262C73.2158 11.4639 71.4578 10.1007 71.4578 7.21663C71.4578 4.48431 73.5263 2.4624 77.588 2.4624C80.1089 2.4624 81.7281 3.06958 82.9222 3.74355V6.14799C81.2622 5.22707 79.3893 4.76612 77.4945 4.81219C75.2119 4.81219 73.858 5.61367 73.858 7.21663C73.858 8.65868 74.9737 9.38122 78.0494 10.1554C81.7371 11.0904 83.8087 12.2805 83.8087 15.4439C83.7906 18.4889 81.9874 20.5473 77.6604 20.5473Z" fill="white"/>
<path d="M85.8076 13.5736C85.8076 9.56622 88.1415 6.65479 92.1218 6.65479C96.102 6.65479 98.3846 9.56622 98.3846 13.5736C98.3846 17.581 96.0749 20.5562 92.1218 20.5562C88.1686 20.5562 85.8076 17.581 85.8076 13.5736ZM88.036 13.5736C88.036 16.1116 89.2843 18.4098 92.1218 18.4098C94.9592 18.4098 96.1563 16.1116 96.1563 13.5736C96.1563 11.0356 94.9351 8.8042 92.1218 8.8042C89.3084 8.8042 88.048 11.0356 88.048 13.5736H88.036Z" fill="white"/>
<path d="M104.195 6.922H107.618V9.04713H104.195V20.28H101.967V9.04713H99.8081V6.922H101.958V5.46477C101.958 2.9814 103.339 1.29647 106.18 1.29647C106.7 1.29355 107.217 1.36511 107.717 1.50899V3.63412C107.245 3.54373 106.766 3.499 106.285 3.50054C104.88 3.50054 104.174 4.32934 104.174 5.53156L104.195 6.922Z" fill="white"/>
<path d="M115.34 18.0363C115.822 18.0218 116.302 17.9587 116.772 17.8481V20.0643C116.272 20.2083 115.754 20.2799 115.234 20.2768C112.394 20.2768 111.013 18.5949 111.013 16.1085V9.05913H108.854V6.934H111.004V4.08936H113.232V6.92185H116.76V9.04699H113.232V16.0599C113.244 17.2348 113.935 18.0363 115.34 18.0363Z" fill="white"/>
<path d="M117.412 6.92188H119.932L123.753 18.2488L127.625 6.92188H129.802L133.676 18.2488L137.5 6.92188H140.021L135.139 20.2798H132.22L129.937 13.8164L128.731 9.70276L127.525 13.8164L125.212 20.2798H122.293L117.412 6.92188Z" fill="white"/>
<path d="M150.445 17.8755C149.595 19.6393 148.002 20.5471 145.961 20.5471C142.433 20.5471 140.654 17.5294 140.654 13.6009C140.654 9.83338 142.512 6.65479 146.226 6.65479C148.162 6.65479 149.649 7.5352 150.448 9.27173V6.92194H152.731V20.2799H150.448L150.445 17.8755ZM146.57 18.4098C148.615 18.4098 150.445 17.1013 150.445 14.1353V13.0545C150.445 10.0884 148.774 8.77992 146.826 8.77992C144.263 8.8042 142.928 10.5013 142.928 13.6009C142.928 16.8068 144.209 18.4098 146.573 18.4098H146.57Z" fill="white"/>
<path d="M156.177 6.92182H158.405V9.27161C159.174 7.69597 160.516 6.57269 163.103 6.73359V8.97713C160.184 8.67353 158.405 9.56609 158.405 12.3956V20.2889H156.177V6.92182Z" fill="white"/>
<path d="M171.142 20.5469C166.179 20.5469 164.005 17.6628 164.005 13.5643C164.005 9.52962 166.233 6.64551 170.268 6.64551C174.354 6.64551 175.997 9.50533 175.997 13.5643V14.6056H166.315C166.634 16.8765 168.094 18.3459 171.224 18.3459C172.6 18.3446 173.966 18.1001 175.258 17.6233V19.7485C174.17 20.3405 172.496 20.5469 171.142 20.5469ZM166.287 12.6536H173.684C173.551 10.1702 172.436 8.75242 170.156 8.75242C167.747 8.74028 166.526 10.322 166.287 12.6384V12.6536Z" fill="white"/>
<path d="M21.8318 10.8564L12.0018 0.959345L11.0489 0L3.64924 7.45011L0.26602 10.8564C0.0966167 11.0272 0.00146484 11.2586 0.00146484 11.5C0.00146484 11.7414 0.0966167 11.9728 0.26602 12.1436L7.02644 18.9501L11.0489 23L18.4486 15.5499L18.5632 15.4345L21.8318 12.1436C22.0012 11.9728 22.0964 11.7414 22.0964 11.5C22.0964 11.2586 22.0012 11.0272 21.8318 10.8564ZM11.0489 14.9002L7.67172 11.5L11.0489 8.09979L14.4261 11.5L11.0489 14.9002Z" fill="#2684FF"/>
<path d="M11.048 8.09981C9.98587 7.03027 9.38716 5.58105 9.38264 4.06858C9.37812 2.55612 9.96816 1.1033 11.0239 0.0273438L3.6333 7.46531L7.65578 11.5152L11.048 8.09981Z" fill="url(#paint0_linear)"/>
<path d="M14.4343 11.4907L11.0481 14.9C11.5765 15.4318 11.9957 16.0631 12.2817 16.758C12.5678 17.4529 12.715 18.1977 12.715 18.9499C12.715 19.7021 12.5678 20.447 12.2817 21.1419C11.9957 21.8368 11.5765 22.4681 11.0481 22.9998L18.4568 15.5406L14.4343 11.4907Z" fill="url(#paint1_linear)"/>
<defs>
<linearGradient id="paint0_linear" x1="10.445" y1="4.66013" x2="5.69693" y2="9.37603" gradientUnits="userSpaceOnUse">
<stop offset="0.18" stop-color="#0052CC"/>
<stop offset="1" stop-color="#2684FF"/>
</linearGradient>
<linearGradient id="paint1_linear" x1="298.358" y1="705.26" x2="461.892" y2="599.989" gradientUnits="userSpaceOnUse">
<stop offset="0.18" stop-color="#0052CC"/>
<stop offset="1" stop-color="#2684FF"/>
</linearGradient>
</defs>
</svg>
