<svg width="72" height="19" viewBox="0 0 72 19" fill="none" xmlns="http://www.w3.org/2000/svg">
<path d="M13.8671 8.13171H7.81809C7.78074 8.13145 7.74371 8.13844 7.70915 8.15227C7.67459 8.16609 7.64319 8.18649 7.61678 8.21226C7.59037 8.23803 7.56947 8.26866 7.5553 8.30239C7.54113 8.33611 7.53397 8.37224 7.53423 8.40868V11.2935C7.53423 11.3299 7.54157 11.3659 7.55584 11.3995C7.57011 11.4331 7.59101 11.4636 7.61737 11.4894C7.64373 11.5151 7.67502 11.5355 7.70946 11.5494C7.7439 11.5633 7.78081 11.5705 7.81809 11.5705H10.1769V15.1575C10.1769 15.1575 9.64718 15.333 8.17791 15.333C6.44878 15.333 4.03398 14.7167 4.03398 9.53608C4.03398 4.35551 6.55272 3.67088 8.91354 3.67088C10.9585 3.67088 11.8381 4.02197 12.3978 4.19166C12.4389 4.19938 12.4813 4.19819 12.5219 4.18817C12.5625 4.17815 12.6003 4.15955 12.6327 4.13369C12.6652 4.10783 12.6913 4.07533 12.7095 4.0385C12.7276 4.00167 12.7372 3.9614 12.7376 3.92054L13.4113 1.1313C13.4126 1.08966 13.4034 1.04834 13.3846 1.01095C13.3658 0.973551 13.3379 0.941211 13.3033 0.916744C13.0755 0.756801 11.6882 0 8.18191 0C4.14393 0 0 1.67745 0 9.73699C0 17.7965 4.74363 19 8.74163 19C12.05 19 14.059 17.619 14.059 17.619C14.0908 17.5944 14.1158 17.5624 14.1319 17.526C14.1479 17.4896 14.1545 17.4498 14.1509 17.4103V8.40868C14.1509 8.33523 14.121 8.26478 14.0678 8.21283C14.0146 8.16089 13.9424 8.13171 13.8671 8.13171Z" fill="white"/>
<path d="M45.0494 0.975293C45.051 0.939011 45.0453 0.902777 45.0324 0.868684C45.0196 0.834591 45 0.803313 44.9747 0.776655C44.9495 0.749998 44.919 0.728489 44.8852 0.71337C44.8513 0.698251 44.8148 0.689821 44.7776 0.688567H41.3793C41.3397 0.686061 41.3001 0.691714 41.263 0.705157C41.2258 0.7186 41.192 0.739532 41.1637 0.766586C41.1354 0.793641 41.1133 0.826211 41.0988 0.862172C41.0842 0.898133 41.0777 0.936678 41.0794 0.975293V7.39055H35.7701V0.975293C35.7703 0.939013 35.7632 0.90304 35.7492 0.869447C35.7351 0.835854 35.7144 0.805305 35.6882 0.77956C35.662 0.753815 35.6309 0.733382 35.5965 0.719439C35.5622 0.705496 35.5254 0.698318 35.4882 0.698319H32.0899C32.0521 0.69727 32.0144 0.703673 31.9791 0.717147C31.9439 0.73062 31.9118 0.750888 31.8847 0.776739C31.8576 0.80259 31.8362 0.833495 31.8217 0.867609C31.8071 0.901723 31.7998 0.938347 31.8001 0.975293V18.3603C31.7998 18.3966 31.8069 18.4327 31.8209 18.4664C31.8349 18.5001 31.8556 18.5308 31.8818 18.5567C31.908 18.5826 31.9391 18.6032 31.9734 18.6174C32.0078 18.6315 32.0446 18.6389 32.0819 18.6392H35.4802C35.5175 18.6389 35.5544 18.6315 35.5887 18.6174C35.623 18.6032 35.6542 18.5826 35.6804 18.5567C35.7065 18.5308 35.7272 18.5001 35.7412 18.4664C35.7553 18.4327 35.7623 18.3966 35.7621 18.3603V10.9229H41.0794V18.3642C41.0792 18.4005 41.0862 18.4366 41.1003 18.4703C41.1143 18.504 41.135 18.5347 41.1611 18.5606C41.1873 18.5865 41.2185 18.6071 41.2528 18.6213C41.2871 18.6354 41.324 18.6428 41.3613 18.6431H44.7776C44.8527 18.6421 44.9244 18.6122 44.9771 18.56C45.0299 18.5078 45.0594 18.4375 45.0594 18.3642L45.0494 0.975293Z" fill="white"/>
<path d="M20.2959 3.24765C20.2915 2.82424 20.1589 2.41154 19.9147 2.06154C19.6704 1.71153 19.3255 1.43987 18.9233 1.28077C18.5212 1.12166 18.0798 1.08222 17.6547 1.16741C17.2296 1.25261 16.8398 1.45863 16.5345 1.75953C16.2292 2.06043 16.0219 2.44275 15.9389 2.85835C15.8558 3.27396 15.9006 3.70426 16.0677 4.09506C16.2347 4.48586 16.5165 4.8197 16.8777 5.05452C17.2388 5.28934 17.663 5.41466 18.097 5.41468C18.3876 5.41469 18.6754 5.35849 18.9436 5.24933C19.2118 5.14016 19.4552 4.9802 19.6597 4.77869C19.8641 4.57717 20.0257 4.33811 20.1349 4.07532C20.2441 3.81252 20.2988 3.53121 20.2959 3.24765Z" fill="white"/>
<path d="M20.0521 14.6915V6.66125C20.0521 6.58813 20.0225 6.51797 19.9697 6.46609C19.9169 6.4142 19.8452 6.38479 19.7703 6.38428H16.372C16.2926 6.3919 16.2188 6.42769 16.1646 6.48485C16.1105 6.54201 16.0797 6.61658 16.0781 6.69441V18.2025C16.0781 18.5419 16.294 18.6413 16.5739 18.6413H19.6323C19.9682 18.6413 20.0501 18.4814 20.0501 18.1986L20.0521 14.6915Z" fill="white"/>
<path d="M57.9951 6.41113H54.6148C54.5778 6.41139 54.5412 6.41876 54.5071 6.43281C54.473 6.44687 54.442 6.46734 54.416 6.49306C54.3901 6.51878 54.3695 6.54924 54.3556 6.58271C54.3417 6.61618 54.3346 6.65199 54.3349 6.68811V15.2138C53.7171 15.6096 52.995 15.8223 52.2559 15.8263C51.0366 15.8263 50.7127 15.2879 50.7127 14.1215V6.68811C50.713 6.65199 50.7059 6.61618 50.692 6.58271C50.6781 6.54924 50.6576 6.51878 50.6316 6.49306C50.6056 6.46734 50.5747 6.44687 50.5406 6.43281C50.5065 6.41876 50.4699 6.41139 50.4329 6.41113H47.0006C46.9636 6.41139 46.927 6.41876 46.8929 6.43281C46.8588 6.44687 46.8278 6.46734 46.8018 6.49306C46.7759 6.51878 46.7553 6.54924 46.7414 6.58271C46.7275 6.61618 46.7204 6.65199 46.7207 6.68811V14.6852C46.7207 18.1455 48.6957 18.992 51.4144 18.992C53.6433 18.992 55.4424 17.7885 55.4424 17.7885C55.4706 18.0272 55.5119 18.2642 55.5663 18.4985C55.5909 18.5422 55.6267 18.5789 55.6701 18.6052C55.7135 18.6315 55.7631 18.6465 55.8142 18.6487H57.9971C58.072 18.6482 58.1437 18.6188 58.1965 18.5669C58.2493 18.515 58.2789 18.4448 58.2789 18.3717V6.68811C58.2784 6.61481 58.2483 6.54465 58.1952 6.49282C58.1421 6.44099 58.0702 6.41164 57.9951 6.41113Z" fill="white"/>
<path d="M67.2362 6.01926C66.1035 6.01235 64.9895 6.30126 64.0098 6.85603V0.975216C64.0101 0.938935 64.003 0.902963 63.9889 0.86937C63.9749 0.835777 63.9542 0.805228 63.928 0.779483C63.9018 0.753738 63.8706 0.733305 63.8363 0.719362C63.8019 0.705419 63.7651 0.698241 63.7279 0.698242H60.3117C60.2745 0.698241 60.2377 0.705419 60.2033 0.719362C60.169 0.733305 60.1378 0.753738 60.1116 0.779483C60.0854 0.805228 60.0647 0.835777 60.0507 0.86937C60.0366 0.902963 60.0295 0.938935 60.0298 0.975216V18.3602C60.0295 18.3966 60.0366 18.4326 60.0506 18.4663C60.0647 18.5 60.0853 18.5307 60.1115 18.5566C60.1377 18.5825 60.1688 18.6031 60.2032 18.6173C60.2375 18.6314 60.2744 18.6389 60.3117 18.6391H62.6825C62.7336 18.6383 62.7836 18.6241 62.8272 18.598C62.8708 18.572 62.9064 18.535 62.9303 18.4909C62.9984 18.2275 63.0465 17.9595 63.0743 17.6892C63.0743 17.6892 64.4736 18.9804 67.1162 18.9804C70.2207 18.9804 71.9998 17.4434 71.9998 12.0815C71.9998 6.71949 69.1652 6.01926 67.2362 6.01926ZM65.9029 15.8206C65.2088 15.8033 64.5308 15.6126 63.9338 15.2667V9.75255C64.471 9.45279 65.0658 9.26422 65.681 9.1986C66.8984 9.09327 68.0798 9.45217 68.0798 12.2843C68.0718 15.2784 67.542 15.8694 65.9029 15.8206Z" fill="white"/>
<path d="M29.8432 6.38206H27.2885V3.08958C27.2885 2.96475 27.2225 2.89453 27.0746 2.89453H23.5883C23.4524 2.89453 23.3884 2.95305 23.3884 3.07983V6.49129C23.3884 6.49129 21.6433 6.90285 21.5253 6.93601C21.4672 6.95326 21.4162 6.98842 21.3802 7.03623C21.3442 7.08404 21.325 7.14193 21.3254 7.20127V9.34685C21.3268 9.41603 21.3546 9.48223 21.4034 9.53241C21.4523 9.58258 21.5186 9.61311 21.5893 9.61797H23.3884V14.7634C23.3884 18.5865 26.137 18.9609 27.9861 18.9609C28.6742 18.9405 29.3565 18.8309 30.0151 18.6352C30.0647 18.6145 30.1066 18.5795 30.1352 18.5349C30.1638 18.4902 30.1777 18.4381 30.175 18.3855V16.0332C30.1745 15.9603 30.1447 15.8904 30.092 15.8386C30.0393 15.7868 29.9679 15.7573 29.8932 15.7562C29.7432 15.7562 29.3634 15.8148 28.9716 15.8148C27.7162 15.8148 27.2905 15.2452 27.2905 14.5079V9.61797H29.8452C29.8825 9.61771 29.9193 9.61029 29.9537 9.59614C29.988 9.58198 30.0191 9.56137 30.0453 9.53547C30.0715 9.50957 30.0922 9.47889 30.1062 9.44519C30.1202 9.41148 30.1273 9.37542 30.127 9.33904V6.66098C30.1273 6.62445 30.1202 6.58822 30.106 6.55439C30.0919 6.52056 30.071 6.4898 30.0446 6.46387C30.0182 6.43794 29.9868 6.41737 29.9523 6.40333C29.9177 6.38929 29.8806 6.38206 29.8432 6.38206Z" fill="white"/>
</svg>
