<svg width="100" height="27" viewBox="0 0 100 27" fill="none" xmlns="http://www.w3.org/2000/svg">
<path fill-rule="evenodd" clip-rule="evenodd" d="M27.3691 6.03707L28.4562 0.464355H23.945L19.8583 21.4284H24.3695L26.7225 9.37627L30.3438 9.42757C31.4991 9.42757 32.243 9.67171 32.5995 10.0804C32.955 10.489 33.0382 11.1799 32.8489 12.152L31.0391 21.4284H35.6158L37.5114 11.7097C37.9148 9.53195 37.5547 8.04943 36.4314 7.27102C35.308 6.4935 33.6388 6.12552 31.423 6.03707H27.3691ZM18.4873 8.02977C17.2913 6.72682 15.4099 6.03686 12.842 6.03686V6.03598H4.08047L0 27H4.54486L5.62579 21.4273H9.5488C10.8774 21.4273 12.1574 21.2911 13.3878 21.0186C14.6182 20.7471 15.7672 20.104 16.8367 19.0929C17.7115 18.2959 18.3873 17.3999 18.8641 16.4083C19.3409 15.4167 19.6478 14.4039 19.7831 13.3725C20.114 11.1169 19.6823 9.33272 18.4873 8.02977ZM6.26886 18.1314L7.97606 9.38049C7.97606 9.38049 9.13748 9.39995 9.38251 9.3796C9.64174 9.37696 9.90363 9.37015 10.1634 9.3634H10.1634H10.1635H10.1635H10.1635C10.8609 9.34527 11.5428 9.32754 12.1158 9.39199C12.7677 9.46541 13.302 9.56625 13.8186 9.76616C14.9791 10.2164 15.424 11.3168 15.0914 13.3583C14.6828 15.7891 13.7823 16.9611 12.3573 17.5918C11.0393 18.1756 9.23479 18.1801 7.14634 18.1606C6.99332 18.1606 6.41747 18.1509 6.26886 18.1314ZM49.3742 6.03686C51.9421 6.03686 53.8235 6.72682 55.0194 8.02977C56.2145 9.33272 56.6461 11.1169 56.3153 13.3725C56.18 14.4039 55.873 15.4167 55.3963 16.4083C54.9195 17.3999 54.2437 18.2959 53.3689 19.0929C52.2994 20.104 51.1504 20.7471 49.92 21.0186C48.6896 21.2911 47.4096 21.4273 46.0801 21.4273H42.1571L41.0762 27H36.5322L40.6127 6.03598H49.3742V6.03686ZM44.5083 9.38049L42.8011 18.1314C42.9497 18.1509 43.5255 18.1606 43.6785 18.1606C45.767 18.1801 47.5715 18.1756 48.8895 17.5918C50.3145 16.9611 51.215 15.7891 51.6236 13.3583C51.9562 11.3168 51.5113 10.2164 50.3508 9.76616C49.8342 9.56625 49.2999 9.46541 48.648 9.39199C48.075 9.32754 47.3931 9.34527 46.6957 9.3634H46.6956C46.4359 9.37015 46.1739 9.37696 45.9147 9.3796C45.6697 9.39995 44.5083 9.38049 44.5083 9.38049ZM92.8975 12.3958L91.0695 12.3832L90.5845 15.5363L92.7731 15.5489C93.5193 15.574 94.0498 15.8001 94.3649 16.2272C94.6882 16.646 94.8001 17.228 94.7006 17.9734C94.6011 18.6685 94.2861 19.2296 93.7555 19.6567C93.225 20.0838 92.6156 20.289 91.9275 20.2723C91.314 20.2555 90.8374 20.0545 90.4975 19.6693C90.1576 19.284 89.9835 18.7941 89.9752 18.1995H85.8964C85.8881 19.238 86.1202 20.1592 86.5927 20.9632C87.0653 21.7672 87.7409 22.3994 88.6197 22.8601C89.5068 23.3123 90.4933 23.5426 91.5793 23.551C92.8229 23.5761 93.9877 23.3667 95.0737 22.9229C96.1597 22.4706 97.026 21.83 97.6727 21.0009C98.3193 20.1634 98.6717 19.1835 98.7297 18.0613C98.7711 17.1652 98.5929 16.3612 98.195 15.6494C97.797 14.9375 97.196 14.3806 96.3918 13.9786C98.5141 12.9736 99.6292 11.6086 99.737 9.88336C99.8281 8.3424 99.3515 7.11131 98.3069 6.19009C97.2623 5.26049 95.8281 4.77475 94.0042 4.73288C92.8933 4.7245 91.8529 4.92968 90.8829 5.34842C89.9213 5.75879 89.1503 6.34502 88.57 7.10712C87.9896 7.86923 87.6746 8.74439 87.6249 9.73261L91.7286 9.70749C91.8446 9.17988 92.1099 8.75695 92.5244 8.43871C92.9389 8.12047 93.4156 7.96972 93.9545 7.98647C94.5348 7.99485 94.9701 8.18328 95.2602 8.55177C95.5504 8.92026 95.6623 9.38925 95.596 9.95873C95.5048 10.7208 95.2188 11.3154 94.7379 11.7426C94.2571 12.1613 93.6436 12.379 92.8975 12.3958ZM78.3356 7.45886L69.407 23.2997H64.9303L73.8216 8.2754H65.5272L66.0495 5.00924H78.7211L78.3356 7.45886ZM78.659 21.3903C78.6424 20.7538 78.8579 20.2262 79.3056 19.8075C79.7533 19.3887 80.288 19.1793 80.9098 19.1793C81.5232 19.1793 82.0455 19.372 82.4766 19.7572C82.9077 20.1341 83.1315 20.6282 83.1481 21.2395C83.1647 21.8676 82.9533 22.3953 82.5139 22.8224C82.0745 23.2411 81.5357 23.4505 80.8973 23.4505C80.2673 23.4505 79.7408 23.2579 79.318 22.8726C78.8952 22.4874 78.6755 21.9933 78.659 21.3903Z" fill="#C54370"/>
</svg>
