<svg width="218" height="54" viewBox="0 0 218 54" fill="none" xmlns="http://www.w3.org/2000/svg">
<g clip-path="url(#clip0)">
<path fill-rule="evenodd" clip-rule="evenodd" d="M50.7584 12.4947C50.7772 12.5644 50.7868 12.6363 50.787 12.7085V23.9309C50.787 24.0749 50.749 24.2164 50.6768 24.341C50.6046 24.4657 50.5008 24.569 50.3758 24.6407L40.9567 30.0637V40.8125C40.9567 41.105 40.8012 41.375 40.5476 41.5223L20.8859 52.8408C20.8409 52.8664 20.7918 52.8827 20.7427 52.9001C20.7243 52.9063 20.7069 52.9175 20.6875 52.9226C20.5501 52.9588 20.4056 52.9588 20.2682 52.9226C20.2457 52.9165 20.2252 52.9042 20.2037 52.896C20.1587 52.8797 20.1117 52.8653 20.0687 52.8408L0.411173 41.5223C0.286294 41.4506 0.182533 41.3472 0.110346 41.2225C0.0381597 41.0979 9.89468e-05 40.9565 0 40.8125L0 7.14539C0 7.07175 0.0102282 7.00015 0.0286389 6.9306C0.0347758 6.90707 0.0490953 6.88559 0.0572778 6.86207C0.0726201 6.81911 0.0869395 6.77513 0.109442 6.73524C0.124784 6.70865 0.147286 6.68717 0.165696 6.66262C0.189221 6.62989 0.2107 6.59614 0.238317 6.5675C0.261841 6.54397 0.292526 6.52658 0.319119 6.50613C0.348781 6.48158 0.375374 6.45499 0.409127 6.43555H0.41015L10.2394 0.776302C10.3639 0.704685 10.505 0.666992 10.6486 0.666992C10.7921 0.666992 10.9332 0.704685 11.0577 0.776302L20.887 6.43555H20.889C20.9217 6.45601 20.9494 6.48158 20.979 6.50511C21.0056 6.52556 21.0353 6.54397 21.0588 6.56647C21.0874 6.59614 21.1079 6.62989 21.1324 6.66262C21.1498 6.68717 21.1734 6.70865 21.1877 6.73524C21.2112 6.77615 21.2245 6.81911 21.2409 6.86207C21.249 6.88559 21.2634 6.90707 21.2695 6.93162C21.2883 7.00132 21.298 7.07319 21.2981 7.14539V28.1735L29.4889 23.4573V12.7075C29.4889 12.6359 29.4991 12.5633 29.5175 12.4947C29.5247 12.4702 29.538 12.4487 29.5461 12.4252C29.5625 12.3822 29.5768 12.3382 29.5993 12.2983C29.6147 12.2718 29.6372 12.2503 29.6546 12.2257C29.6791 12.193 29.6996 12.1592 29.7282 12.1306C29.7517 12.1071 29.7814 12.0897 29.808 12.0692C29.8387 12.0447 29.8653 12.0181 29.898 11.9987H29.899L39.7293 6.33941C39.8537 6.26769 39.9948 6.22994 40.1384 6.22994C40.2821 6.22994 40.4231 6.26769 40.5476 6.33941L50.3768 11.9987C50.4116 12.0191 50.4382 12.0447 50.4689 12.0682C50.4945 12.0887 50.5241 12.1071 50.5477 12.1296C50.5763 12.1592 50.5968 12.193 50.6213 12.2257C50.6397 12.2503 50.6622 12.2718 50.6765 12.2983C50.7001 12.3382 50.7134 12.3822 50.7297 12.4252C50.7389 12.4487 50.7522 12.4702 50.7584 12.4947ZM49.1484 23.4573V14.1251L45.7087 16.1053L40.9567 18.8413V28.1735L49.1495 23.4573H49.1484ZM39.3192 40.3389V31.0006L34.6449 33.6701L21.2971 41.2881V50.7144L39.3192 40.3389ZM1.63855 8.56199V40.3389L19.6586 50.7133V41.2891L10.2445 35.9612L10.2415 35.9592L10.2374 35.9571C10.2057 35.9387 10.1791 35.9121 10.1494 35.8896C10.1239 35.8692 10.0942 35.8528 10.0717 35.8303L10.0696 35.8272C10.043 35.8017 10.0246 35.77 10.0021 35.7413C9.98168 35.7137 9.95713 35.6902 9.94077 35.6616L9.93974 35.6585C9.92133 35.6278 9.91008 35.591 9.89678 35.5562C9.88349 35.5255 9.8661 35.4969 9.85792 35.4641V35.4631C9.84769 35.4243 9.84564 35.3833 9.84155 35.3435C9.83746 35.3128 9.82928 35.2821 9.82928 35.2514V35.2494V13.2782L5.07829 10.5411L1.63855 8.56301V8.56199ZM10.6496 2.43122L2.45988 7.14539L10.6475 11.8596L18.8362 7.14437L10.6475 2.43122H10.6496ZM14.9086 31.8516L19.6596 29.1165V8.56199L16.2198 10.5422L11.4678 13.2782V33.8328L14.9086 31.8516ZM40.1384 7.99433L31.9498 12.7085L40.1384 17.4227L48.3261 12.7075L40.1384 7.99433ZM39.3192 18.8413L34.5672 16.1053L31.1274 14.1251V23.4573L35.8784 26.1923L39.3192 28.1735V18.8413ZM20.4768 39.8715L32.4878 33.0145L38.4917 29.5881L30.3092 24.877L20.888 30.301L12.3014 35.2442L20.4768 39.8715Z" fill="#E36E4D"/>
</g>
<g clip-path="url(#clip1)">
<path fill-rule="evenodd" clip-rule="evenodd" d="M73.5096 13.8789V37.4508H82.0378V41.5175H68.9683V13.8789H73.5096ZM98.0674 25.6055V23.118H102.371V41.5185H98.0685V39.03C97.4885 39.9516 96.6672 40.6757 95.6004 41.2014C94.5346 41.7282 93.4617 41.9911 92.3826 41.9911C90.9865 41.9911 89.71 41.7353 88.5522 41.2219C87.4237 40.7299 86.4087 40.0105 85.5706 39.1088C84.7403 38.2118 84.0846 37.1677 83.6375 36.0301C83.1715 34.8481 82.9364 33.5877 82.9451 32.3172C82.9451 31.0285 83.1752 29.797 83.6365 28.6249C84.0808 27.4795 84.737 26.4281 85.5706 25.5257C86.409 24.6245 87.4239 23.9055 88.5522 23.4136C89.71 22.9002 90.9865 22.6445 92.3826 22.6445C93.4617 22.6445 94.5346 22.9073 95.6004 23.4341C96.6662 23.9608 97.4885 24.684 98.0685 25.6055H98.0674ZM97.6726 34.5685C97.9377 33.848 98.0718 33.0859 98.0685 32.3183C98.0685 31.5276 97.9355 30.7779 97.6726 30.0681C97.4259 29.3846 97.051 28.7545 96.568 28.2117C96.0858 27.6792 95.5014 27.2493 94.8496 26.9475C94.1787 26.6324 93.4351 26.4739 92.6199 26.4739C91.8027 26.4739 91.0652 26.6324 90.4075 26.9475C89.7639 27.253 89.1869 27.6826 88.7097 28.2117C88.2282 28.7517 87.8596 29.3825 87.6255 30.067C87.3725 30.7901 87.2452 31.5512 87.2491 32.3172C87.2491 33.1069 87.3739 33.8576 87.6245 34.5674C87.874 35.2793 88.2361 35.8971 88.7107 36.4239C89.1877 36.9532 89.7647 37.3828 90.4086 37.6881C91.0652 38.0041 91.8027 38.1616 92.6189 38.1616C93.4351 38.1616 94.1787 38.0041 94.8496 37.6881C95.5016 37.3865 96.086 36.9565 96.568 36.4239C97.051 35.8814 97.4259 35.2516 97.6726 34.5685ZM105.767 41.5175V23.118H117.455V27.3535H110.07V41.5195H105.767V41.5175ZM133.051 25.6055V23.118H137.355V41.5185H133.051V39.03C132.472 39.9516 131.65 40.6757 130.583 41.2014C129.517 41.7282 128.445 41.9911 127.365 41.9911C125.97 41.9911 124.693 41.7353 123.536 41.2219C122.407 40.7299 121.392 40.0105 120.554 39.1088C119.723 38.2119 119.067 37.1678 118.62 36.0301C118.154 34.848 117.92 33.5877 117.929 32.3172C117.929 31.0285 118.159 29.797 118.62 28.6249C119.064 27.4796 119.72 26.4282 120.553 25.5257C121.392 24.6244 122.407 23.9054 123.536 23.4136C124.693 22.9002 125.97 22.6445 127.365 22.6445C128.444 22.6445 129.517 22.9073 130.583 23.4341C131.65 23.9608 132.472 24.684 133.051 25.6055ZM132.656 34.5685C132.921 33.8479 133.054 33.0859 133.051 32.3183C133.051 31.5276 132.918 30.7779 132.656 30.0681C132.409 29.3846 132.034 28.7545 131.551 28.2117C131.069 27.6792 130.485 27.2493 129.833 26.9475C129.162 26.6324 128.418 26.4739 127.602 26.4739C126.786 26.4739 126.049 26.6324 125.391 26.9475C124.747 27.253 124.17 27.6826 123.693 28.2117C123.211 28.7516 122.842 29.3824 122.608 30.067C122.355 30.7902 122.228 31.5512 122.233 32.3172C122.233 33.1069 122.356 33.8576 122.608 34.5674C122.857 35.2793 123.22 35.8971 123.693 36.4239C124.17 36.9532 124.747 37.3828 125.391 37.6881C126.049 38.0041 126.786 38.1616 127.602 38.1616C128.418 38.1616 129.162 38.0041 129.833 37.6881C130.485 37.3865 131.069 36.9565 131.551 36.4239C132.034 35.8814 132.409 35.2516 132.656 34.5685ZM154.609 23.118H158.968L151.905 41.5185H146.495L139.431 23.118H143.79L149.2 37.2084L154.609 23.118ZM168.355 22.6445C174.215 22.6445 178.211 27.8383 177.461 33.9169H163.183C163.183 35.5043 164.786 38.5728 168.592 38.5728C171.865 38.5728 174.059 35.6936 174.06 35.6915L176.968 37.9417C174.368 40.7166 172.239 41.9921 168.906 41.9921C162.95 41.9921 158.913 38.224 158.913 32.3183C158.913 26.9761 163.085 22.6445 168.354 22.6445H168.355ZM163.194 30.7186H173.508C173.477 30.3647 172.917 26.0627 168.321 26.0627C163.723 26.0627 163.227 30.3647 163.194 30.7186ZM180.263 41.5175V13.8789H184.567V41.5175H180.263Z" fill="#E36E4D"/>
</g>
<path d="M213.539 14.9517V19.3003H213.027C210.64 19.3368 208.715 19.958 207.254 21.164C205.804 22.3699 204.933 24.0448 204.641 26.1886C206.054 24.7513 207.838 24.0326 209.994 24.0326C212.309 24.0326 214.148 24.8609 215.512 26.5175C216.877 28.1741 217.559 30.3545 217.559 33.0587C217.559 34.7884 217.181 36.3537 216.426 37.7545C215.683 39.1553 214.623 40.2455 213.247 41.0251C211.882 41.8047 210.335 42.1944 208.606 42.1944C205.804 42.1944 203.538 41.22 201.809 39.271C200.091 37.3221 199.232 34.7214 199.232 31.4691V29.5688C199.232 26.682 199.774 24.1361 200.859 21.9314C201.955 19.7144 203.52 18.003 205.554 16.7971C207.601 15.579 209.97 14.9638 212.662 14.9517H213.539ZM208.386 28.2716C207.534 28.2716 206.76 28.4969 206.066 28.9476C205.372 29.3861 204.86 29.9708 204.531 30.7017V32.3096C204.531 34.0758 204.878 35.4584 205.573 36.4572C206.267 37.4439 207.241 37.9372 208.496 37.9372C209.629 37.9372 210.542 37.4926 211.237 36.6034C211.943 35.702 212.297 34.5387 212.297 33.1135C212.297 31.664 211.943 30.4946 211.237 29.6054C210.53 28.7162 209.58 28.2716 208.386 28.2716Z" fill="#E36E4D"/>
<defs>
<clipPath id="clip0">
<rect y="0.666992" width="51.1409" height="53.1865" fill="white"/>
</clipPath>
<clipPath id="clip1">
<rect x="68.6277" y="12.9409" width="116.601" height="29.6617" fill="white"/>
</clipPath>
</defs>
</svg>
