<svg width="165" height="86" viewBox="0 0 165 86" fill="none" xmlns="http://www.w3.org/2000/svg">
<g clip-path="url(#clip0)">
<path d="M34.8959 63.7997H31.8096C31.7005 58.5918 31.3999 53.6958 30.9085 49.1081H30.881L26.1821 63.7997H23.8323L19.1614 49.1081H19.1346C18.7881 53.5128 18.5698 58.41 18.4792 63.7997H15.666C15.8473 57.2456 16.303 51.1012 17.0311 45.3657H20.8564L25.3084 58.9108H25.3358L29.8153 45.3657H33.4753C34.2769 52.0837 34.7504 58.2288 34.8959 63.7997ZM48.2807 50.1991C47.0241 57.0161 45.3661 61.9693 43.3086 65.0612C41.7055 67.4413 39.9491 68.6325 38.0365 68.6325C37.5266 68.6325 36.8974 68.4786 36.1519 68.1734V66.5297C36.5163 66.5821 36.9439 66.6119 37.4353 66.6119C38.3287 66.6119 39.0468 66.3663 39.5943 65.8738C40.2491 65.2741 40.5765 64.5998 40.5765 63.8539C40.5765 63.3424 40.3213 62.2966 39.8119 60.7131L36.4251 50.1985H39.4571L41.888 58.0624C42.4343 59.848 42.6621 61.0947 42.5708 61.8048C43.9002 58.2556 44.8288 54.3856 45.3578 50.1979H48.2807V50.1991Z" fill="#5D87A1"/>
<path d="M89.3626 63.8004H80.5957V45.3665H83.5448V61.5313H89.3626V63.8004ZM78.3008 64.2458L74.9109 62.5734C75.2115 62.3266 75.4989 62.0595 75.7578 61.7501C77.1986 60.0581 77.9173 57.5558 77.9173 54.2416C77.9173 48.143 75.5234 45.0923 70.7338 45.0923C68.3852 45.0923 66.5531 45.8661 65.2429 47.4145C63.8032 49.1077 63.0845 51.601 63.0845 54.8974C63.0845 58.1377 63.7215 60.5148 64.996 62.0226C66.1619 63.3884 67.9194 64.0723 70.2698 64.0723C71.1465 64.0723 71.951 63.965 72.684 63.7486L77.0973 66.317L78.3008 64.2458ZM67.3195 60.1117C66.5728 58.911 66.1995 56.9829 66.1995 54.3244C66.1995 49.683 67.6099 47.3596 70.4338 47.3596C71.9099 47.3596 72.9917 47.9153 73.6835 49.0242C74.429 50.2268 74.8041 52.1376 74.8041 54.7591C74.8041 59.4386 73.3925 61.7787 70.5704 61.7787C69.0937 61.7793 68.0119 61.2254 67.3195 60.1117ZM61.7993 58.691C61.7993 60.2542 61.2256 61.5367 60.0793 62.5412C58.9319 63.5417 57.3932 64.0431 55.4651 64.0431C53.6616 64.0431 51.913 63.4671 50.2205 62.3212L51.0131 60.7383C52.4694 61.4675 53.7881 61.83 54.9719 61.83C56.0829 61.83 56.9513 61.5837 57.5811 61.0955C58.2103 60.6054 58.5854 59.918 58.5854 59.0487C58.5854 57.9535 57.8214 57.0175 56.4199 56.2335C55.1275 55.524 52.5428 54.0406 52.5428 54.0406C51.1419 53.0199 50.4405 51.9241 50.4405 50.1188C50.4405 48.6248 50.9636 47.4187 52.0102 46.5011C53.0581 45.58 54.4101 45.1209 56.0674 45.1209C57.7791 45.1209 59.3351 45.5794 60.7366 46.4868L60.0257 48.0703C58.8269 47.5611 57.6437 47.3066 56.4766 47.3066C55.5313 47.3066 54.8013 47.5337 54.2938 47.9898C53.7821 48.4441 53.4666 49.0254 53.4666 49.7385C53.4666 50.8283 54.2467 51.7763 55.6864 52.5758C56.996 53.2864 59.6452 54.7954 59.6452 54.7954C61.0819 55.8143 61.7993 56.9 61.7993 58.691Z" fill="#F8981D"/>
<path d="M93.065 39.1913C91.2818 39.146 89.9011 39.3255 88.7424 39.8156C88.4078 39.9491 87.8758 39.9491 87.8293 40.3718C88.01 40.5507 88.0309 40.8392 88.1877 41.0861C88.4549 41.5314 88.9207 42.1306 89.3459 42.443C89.8129 42.8007 90.2816 43.1549 90.7731 43.4667C91.6396 44.0027 92.6219 44.3145 93.4663 44.8487C93.9584 45.1593 94.4474 45.5611 94.94 45.8956C95.1821 46.0739 95.3372 46.363 95.6515 46.4745V46.4065C95.4941 46.2062 95.4493 45.9165 95.2949 45.6935L94.6257 45.0484C93.9792 44.1803 93.1759 43.4226 92.3093 42.8001C91.5961 42.3089 90.0359 41.6411 89.7467 40.8196L89.7013 40.7742C90.1916 40.7283 90.7731 40.5507 91.2388 40.4141C91.9968 40.2144 92.6881 40.2597 93.4657 40.06C93.8236 39.9706 94.1784 39.8585 94.5375 39.7482V39.5473C94.1343 39.146 93.8468 38.613 93.4228 38.2338C92.2885 37.2543 91.0385 36.2962 89.7467 35.4943C89.0549 35.0478 88.1651 34.7604 87.4285 34.3806C87.1631 34.2465 86.7158 34.1803 86.5596 33.9573C86.16 33.4672 85.9352 32.8221 85.6453 32.242C85.0012 31.018 84.3756 29.6599 83.8198 28.3655C83.4178 27.4975 83.1733 26.6306 82.6831 25.8275C80.387 22.0417 77.8935 19.7487 74.0611 17.498C73.2375 17.0294 72.2576 16.8297 71.211 16.5841L69.5393 16.4958C69.1826 16.3396 68.8254 15.9157 68.5141 15.7154C67.2426 14.9141 63.969 13.1774 63.0339 15.4704C62.4315 16.9197 63.9249 18.3446 64.4378 19.0797C64.8165 19.5901 65.3073 20.1708 65.5721 20.7503C65.729 21.1289 65.7731 21.5307 65.93 21.9308C66.2866 22.9109 66.62 24.0014 67.0887 24.9159C67.3332 25.3822 67.5998 25.8722 67.9123 26.2943C68.0913 26.5412 68.4026 26.6503 68.4706 27.0527C68.1598 27.4963 68.1354 28.1658 67.9571 28.7227C67.1555 31.2392 67.4686 34.3568 68.6047 36.2062C68.9602 36.763 69.8083 37.9888 70.9426 37.519C71.9469 37.1184 71.7245 35.849 72.0131 34.7359C72.0793 34.4671 72.0358 34.2906 72.1694 34.1141V34.1576C72.4801 34.7807 72.7938 35.381 73.0818 36.0058C73.773 37.0963 74.9766 38.2327 75.9791 38.988C76.5128 39.3911 76.9357 40.0803 77.6042 40.3265V40.2597H77.5601C77.4247 40.06 77.2267 39.9706 77.049 39.8156C76.647 39.4143 76.2021 38.9242 75.8902 38.4795C74.9563 37.2316 74.1297 35.8502 73.3961 34.4247C73.0371 33.7331 72.7276 32.9771 72.4383 32.2868C72.3035 32.0203 72.3035 31.6184 72.0799 31.4843C71.7447 31.9737 71.2563 32.3976 71.0118 32.9974C70.5877 33.9567 70.5436 35.1366 70.3862 36.3636L70.2985 36.4065C69.5888 36.2282 69.3419 35.4943 69.0723 34.8713C68.405 33.289 68.2928 30.7492 68.8719 28.9236C69.027 28.4568 69.6979 26.9865 69.4301 26.5418C69.296 26.1155 68.8499 25.8728 68.6053 25.5372C68.3179 25.1151 68.003 24.5809 67.8026 24.1123C67.2682 22.8656 66.9993 21.4842 66.4238 20.2382C66.1548 19.6575 65.6878 19.0565 65.3097 18.5217C64.8851 17.9207 64.4181 17.4974 64.0823 16.785C63.9714 16.5399 63.8158 16.1393 63.9941 15.8728C64.0376 15.6939 64.1283 15.6272 64.306 15.5824C64.5946 15.3386 65.4194 15.6486 65.7087 15.7828C66.5347 16.1166 67.2253 16.4284 67.9147 16.8959C68.2266 17.1194 68.5612 17.5427 68.9614 17.6542H69.4301C70.1416 17.8092 70.9438 17.6972 71.6135 17.8987C72.7938 18.2779 73.8631 18.8341 74.8221 19.4345C77.7402 21.2845 80.1466 23.9131 81.7712 27.0527C82.0378 27.5643 82.1511 28.0329 82.3944 28.5665C82.8638 29.6587 83.4441 30.7724 83.9098 31.8414C84.378 32.8877 84.8241 33.9561 85.4926 34.8254C85.826 35.2928 87.1655 35.5378 87.7661 35.7829C88.2104 35.9826 88.9022 36.1603 89.303 36.4053C90.061 36.8721 90.816 37.4081 91.5287 37.9214C91.8835 38.1885 92.9988 38.7454 93.065 39.1913ZM70.339 19.8363C70.0315 19.8331 69.7248 19.8708 69.4272 19.9484V19.9931H69.4701C69.6496 20.349 69.9615 20.5959 70.184 20.9065C70.3635 21.2636 70.5192 21.6178 70.6951 21.9743L70.738 21.9302C71.0523 21.7078 71.2086 21.3513 71.2086 20.8165C71.0732 20.6591 71.0523 20.5053 70.9396 20.3491C70.8084 20.1261 70.5192 20.0152 70.339 19.8363Z" fill="#5D87A1"/>
<path d="M95.1869 63.7966H95.6485V61.5382H94.9561L94.3913 63.0794L93.7776 61.5382H93.1109V63.7966H93.5468V62.0784H93.5713L94.2142 63.7966H94.5464L95.1869 62.0784V63.7966ZM91.4684 63.7966H91.9568V61.921H92.5962V61.5376H90.8022V61.921H91.4672L91.4684 63.7966Z" fill="#F8981D"/>
</g>
<path d="M105.453 54.6094L106.297 45.9375H114.559V48.7734H109.016L108.711 52.4297C109.352 52 110.012 51.7852 110.691 51.7852C112.098 51.7852 113.18 52.2852 113.938 53.2852C114.703 54.2852 115.086 55.6992 115.086 57.5273C115.086 59.2383 114.633 60.6172 113.727 61.6641C112.82 62.7109 111.609 63.2344 110.094 63.2344C109.195 63.2344 108.363 63.0234 107.598 62.6016C106.832 62.1719 106.227 61.5781 105.781 60.8203C105.344 60.0625 105.121 59.2031 105.113 58.2422H108.395C108.449 58.9531 108.625 59.5039 108.922 59.8945C109.219 60.2852 109.602 60.4805 110.07 60.4805C110.617 60.4805 111.039 60.2188 111.336 59.6953C111.633 59.1641 111.781 58.375 111.781 57.3281C111.781 56.3438 111.602 55.6016 111.242 55.1016C110.891 54.6016 110.395 54.3516 109.754 54.3516C109.129 54.3516 108.645 54.5664 108.301 54.9961L108.09 55.2891L105.453 54.6094ZM117.617 61.3125C117.617 60.7812 117.793 60.3438 118.145 60C118.504 59.6562 118.969 59.4844 119.539 59.4844C120.094 59.4844 120.555 59.6562 120.922 60C121.289 60.3359 121.473 60.7734 121.473 61.3125C121.473 61.8594 121.285 62.3008 120.91 62.6367C120.543 62.9648 120.086 63.1289 119.539 63.1289C118.984 63.1289 118.523 62.9609 118.156 62.625C117.797 62.2891 117.617 61.8516 117.617 61.3125ZM134.246 47.8477L128.855 63H125.352L130.766 48.6914H123.922V45.9375H134.246V47.8477Z" fill="#F8981D"/>
<defs>
<clipPath id="clip0">
<rect width="114" height="79" fill="white"/>
</clipPath>
</defs>
</svg>
