<svg width="240" height="157" viewBox="0 0 240 157" fill="none" xmlns="http://www.w3.org/2000/svg">
<rect x="28.5" y="136.5" width="183" height="20" rx="10" stroke="#3B407D"/>
<rect x="28.5" y="0.5" width="183" height="20" rx="10" stroke="#3B407D"/>
<line opacity="0.4" x1="135.5" y1="83.5" x2="238.5" y2="83.5" stroke="#F0F3C5" stroke-width="3" stroke-linecap="round" stroke-dasharray="1 10"/>
<path d="M116.889 75.3257C115.859 75.3257 115 76.1502 115 77.2152V80.204C115 81.2347 115.825 82.0935 116.889 82.0935C117.233 82.0935 117.508 81.8187 117.508 81.4751V75.9441C117.508 75.6005 117.233 75.3257 116.889 75.3257Z" fill="#EEEEEE"/>
<path d="M144.51 75.3257C144.167 75.3257 143.892 75.6005 143.892 75.9441V81.4064C143.892 81.75 144.167 82.0248 144.51 82.0248C145.541 82.0248 146.4 81.2003 146.4 80.1353V77.1465C146.366 76.1502 145.541 75.3257 144.51 75.3257Z" fill="#EEEEEE"/>
<path d="M141.831 87.6591C141.487 87.1781 141.144 86.7315 140.766 86.3536C142.243 84.9107 143.171 82.8838 143.171 80.6508V76.8718C143.171 72.5088 139.632 68.9702 135.269 68.9702H131.525V66.8746C132.761 66.4967 133.689 65.363 133.689 63.9888C133.689 62.3398 132.349 61 130.7 61C129.051 61 127.711 62.3398 127.711 63.9888C127.711 65.3974 128.673 66.5654 129.979 66.8746V68.9359H126.268C121.905 68.9359 118.367 72.4744 118.367 76.8374V80.6164C118.367 82.8838 119.329 84.9107 120.84 86.3536C120.462 86.7659 120.119 87.1781 119.81 87.6247C118.745 89.1363 118.023 90.8197 117.817 92.2969C117.577 93.946 117.989 95.2171 118.951 95.9042C119.397 96.2133 119.913 96.3851 120.497 96.3851C121.459 96.3851 122.558 95.9729 123.692 95.1484C125.169 97.8967 127.78 99.7175 130.7 99.7175C130.975 99.7175 131.284 99.6832 131.559 99.6488C134.17 99.3396 136.437 97.5532 137.777 95.0109C138.945 95.9042 140.113 96.3508 141.144 96.3508C141.728 96.3508 142.243 96.2133 142.69 95.8698C143.652 95.1827 144.064 93.9116 143.823 92.2626C143.583 90.854 142.896 89.1707 141.831 87.6591ZM135.269 70.3444C135.922 70.3444 136.54 70.4475 137.124 70.6193L136.025 74.7761H125.444L124.344 70.6536C124.963 70.4818 125.581 70.3788 126.234 70.3788H135.269V70.3444ZM119.741 80.6508V76.8718C119.741 74.4326 121.081 72.3026 123.073 71.1689L124.035 74.7761C122.455 74.9823 121.218 76.3221 121.218 77.9711V82.2311C121.218 82.2311 121.218 83.2961 121.94 83.6053C127.505 86.5254 134.135 86.5597 139.735 83.674C140.491 83.3648 140.491 82.3685 140.491 82.3685V78.0055C140.491 76.2877 139.151 74.8792 137.434 74.7761L138.395 71.1346C140.422 72.2683 141.797 74.3983 141.797 76.8718V80.6508C141.797 84.2923 138.842 87.2125 135.235 87.2125H126.303C122.661 87.2125 119.741 84.258 119.741 80.6508ZM133.723 90.9228C131.799 91.7129 129.635 91.7129 127.711 90.9571C127.642 90.2357 127.608 89.4455 127.574 88.621H133.826C133.826 89.4112 133.792 90.2013 133.723 90.9228ZM119.707 94.8048C119.191 94.4613 118.985 93.6024 119.157 92.5031C119.191 92.2969 119.226 92.0908 119.294 91.8503C120.531 92.3313 121.493 93.3276 121.974 94.5987C121.046 95.0797 120.222 95.1484 119.707 94.8048ZM122.558 94.2551C122.008 92.8466 120.875 91.7473 119.5 91.1976C119.81 90.27 120.291 89.3425 120.943 88.4492C121.253 88.0026 121.562 87.6247 121.905 87.2468C122.111 87.3842 122.352 87.5217 122.558 87.6591C122.421 88.3805 122.352 89.102 122.352 89.8234C122.352 91.2663 122.627 92.6748 123.108 93.9116C122.902 94.0147 122.73 94.1521 122.558 94.2551ZM123.726 89.7891C123.726 89.2394 123.76 88.7241 123.863 88.1744C124.619 88.4149 125.409 88.5523 126.2 88.5523C126.268 93.3276 127.299 96.179 128.227 97.7593C125.616 96.5912 123.726 93.465 123.726 89.7891ZM130.391 98.3433C129.876 97.8967 128.536 96.3164 127.883 92.4687C128.811 92.7435 129.738 92.881 130.666 92.881C131.628 92.881 132.59 92.7435 133.517 92.4344C132.899 96.2821 131.525 97.8624 131.009 98.3433C130.906 98.3433 130.769 98.3433 130.666 98.3433C130.597 98.3433 130.494 98.3433 130.391 98.3433ZM133.208 97.7593C134.17 96.1446 135.166 93.3276 135.235 88.5867C136.025 88.5867 136.815 88.4492 137.537 88.2431C137.605 88.7584 137.64 89.2737 137.64 89.7891C137.674 93.4306 135.819 96.5225 133.208 97.7593ZM138.842 87.6934C139.117 87.556 139.426 87.3842 139.667 87.2125C140.01 87.5904 140.354 88.0026 140.663 88.4492C141.316 89.3425 141.797 90.3044 142.106 91.2319C140.697 91.7816 139.598 92.881 139.048 94.2895C138.808 94.1521 138.567 93.946 138.327 93.7742C138.773 92.5718 139.014 91.2319 139.014 89.8234C139.048 89.102 138.979 88.4149 138.842 87.6934ZM141.9 94.8048C141.384 95.1484 140.594 95.0797 139.701 94.633C140.148 93.3963 141.109 92.4 142.346 91.8847C142.415 92.0908 142.449 92.2969 142.484 92.5031C142.587 93.6024 142.381 94.4613 141.9 94.8048Z" fill="#EEEEEE"/>
<path d="M125.65 80.8227C126.466 80.8227 127.127 80.1613 127.127 79.3454C127.127 78.5295 126.466 77.8682 125.65 77.8682C124.834 77.8682 124.173 78.5295 124.173 79.3454C124.173 80.1613 124.834 80.8227 125.65 80.8227Z" fill="#5A5A58"/>
<path d="M130.7 65.5692C131.516 65.5692 132.177 64.9078 132.177 64.092C132.177 63.2761 131.516 62.6147 130.7 62.6147C129.884 62.6147 129.223 63.2761 129.223 64.092C129.223 64.9078 129.884 65.5692 130.7 65.5692Z" fill="#5A5A58"/>
<path d="M135.441 80.8227C136.257 80.8227 136.918 80.1613 136.918 79.3454C136.918 78.5295 136.257 77.8682 135.441 77.8682C134.625 77.8682 133.964 78.5295 133.964 79.3454C133.964 80.1613 134.625 80.8227 135.441 80.8227Z" fill="#5A5A58"/>
<path d="M61.4442 88.831C62.0004 89.045 62.2144 89.8786 62.257 90.2422C62.3427 90.9056 62.1506 91.1622 61.9366 91.1622C61.7226 91.1622 61.4229 90.9056 61.1026 90.3925C60.7816 89.8786 60.6533 89.3016 60.8248 89.0018C60.9311 88.809 61.1664 88.7239 61.4448 88.831H61.4442ZM58.1944 91.248C58.5366 91.248 58.9214 91.3975 59.2637 91.6967C59.9263 92.2531 60.119 92.8945 59.7767 93.3652C59.584 93.6005 59.2637 93.7501 58.9002 93.7501C58.5366 93.7501 58.1518 93.6218 57.8953 93.3864C57.2965 92.8733 57.1257 92.0171 57.5098 91.5471C57.66 91.3543 57.8953 91.248 58.1944 91.248ZM50.7112 97.4287C42.5853 97.4287 36 90.8411 36 82.714C36 74.5869 42.586 68 50.7105 68C58.8357 68 65.4217 74.5876 65.4217 82.714C65.4217 85.4727 64.6521 88.0612 63.3482 90.2642C63.305 90.328 63.198 90.3067 63.1767 90.2209C62.6637 86.6068 60.4613 84.6172 57.254 84.0189C56.9755 83.9757 56.933 83.8049 57.2965 83.7623C58.2801 83.6766 59.6697 83.6978 60.3968 83.8261C60.4393 83.4625 60.4613 83.0776 60.4613 82.6928C60.4613 77.3243 56.0989 72.961 50.7318 72.961C45.3653 72.961 41.003 77.3243 41.003 82.6928C41.003 88.0612 45.3653 92.4246 50.7324 92.4246H51.181C51.0286 91.5562 50.9641 90.6748 50.9883 89.7935C51.0102 89.1946 51.1385 89.1088 51.395 89.5795C52.7421 91.9107 54.6668 94.0066 58.4296 94.8409C61.5086 95.5256 64.5876 96.3166 67.9019 100.53C68.201 100.893 67.7524 101.278 67.4101 100.979C64.032 97.9845 60.953 97.0006 58.1518 97.0006C55.0084 97.0226 52.8704 97.4287 50.7105 97.4287H50.7112Z" fill="#FF8C00"/>
<path fill-rule="evenodd" clip-rule="evenodd" d="M5.84059 86.5721C5.11221 85.7085 4.52062 84.7258 4.0992 83.6573L0.817813 84.5366C1.41166 86.1822 2.30861 87.683 3.44127 88.9714L5.84059 86.5721ZM5.67492 73.2418C4.94921 74.1467 4.37026 75.1744 3.97418 76.2887L0.721385 75.4172C1.28913 73.7322 2.17245 72.1923 3.30104 70.8679L5.67492 73.2418ZM10.1291 69.992C9.0135 70.4177 7.98909 71.028 7.09333 71.7858L4.72876 69.4212C6.04495 68.2693 7.58138 67.3628 9.26663 66.7731L10.1291 69.992ZM13.8386 70.4724L13.8549 70.4725L13.8711 70.4724C14.3666 70.4724 14.8532 70.5111 15.3279 70.5855L15.3267 70.59C16.0073 70.6987 16.6635 70.8806 17.2869 71.1276L17.2894 71.1182C18.2095 71.4806 19.0583 71.9849 19.8086 72.6041L19.7992 72.6135C20.3229 73.046 20.7987 73.5344 21.2177 74.0694L21.227 74.0601C21.8192 74.8172 22.2971 75.668 22.6347 76.5865L22.6257 76.5889C22.8582 77.2173 23.0252 77.8775 23.1185 78.5611L23.1224 78.5601C23.1768 78.9677 23.2049 79.3837 23.2049 79.8062L23.2048 79.8224L23.2049 79.8386C23.2049 85.0115 19.0115 89.2049 13.8386 89.2049C8.66584 89.2049 4.47244 85.0115 4.47244 79.8386C4.47244 74.6658 8.66584 70.4724 13.8386 70.4724ZM15.6315 69.4526C15.0591 69.356 14.4709 69.3057 13.8711 69.3057C13.2639 69.3057 12.6687 69.3573 12.0898 69.4562L11.2295 66.2456C12.0745 66.0844 12.9467 66 13.8386 66C14.745 66 15.631 66.0871 16.4887 66.2535L15.6315 69.4526ZM20.6369 71.7758C19.7387 71.0182 18.7116 70.4086 17.5932 69.9845L18.4499 66.7869C20.1296 67.3803 21.6604 68.2888 22.9714 69.4413L20.6369 71.7758ZM23.766 76.2834C23.3682 75.1661 22.7866 74.1361 22.0575 73.2296L24.396 70.8911C25.5175 72.2131 26.3952 73.7484 26.9595 75.4277L23.766 76.2834ZM24.1998 81.7082C24.3126 81.0913 24.3716 80.4557 24.3716 79.8062C24.3716 79.2795 24.3328 78.7618 24.2579 78.2558L27.4626 77.3971C27.6037 78.1897 27.6773 79.0056 27.6773 79.8386C27.6773 80.7729 27.5847 81.6855 27.4082 82.5679L24.1998 81.7082ZM21.8915 86.584C22.6233 85.7189 23.2176 84.7339 23.6408 83.6626L26.8633 84.5261C26.273 86.1661 25.3817 87.6624 24.2561 88.9485L21.8915 86.584ZM17.5037 89.6614C18.5738 89.2669 19.5619 88.703 20.4355 88.0024L22.8094 90.3763C21.5154 91.479 20.0157 92.3475 18.3759 92.9163L17.5037 89.6614ZM12.1839 90.1719C12.7332 90.2607 13.2967 90.3068 13.8711 90.3068C14.4381 90.3068 14.9946 90.2618 15.5372 90.1753L16.4116 93.4386C15.5779 93.5953 14.7179 93.6773 13.8386 93.6773C12.9738 93.6773 12.1275 93.598 11.3066 93.4462L12.1839 90.1719ZM10.2185 89.6541C9.15116 89.258 8.16571 88.6935 7.29447 87.9926L4.89111 90.396C6.19023 91.4981 7.69542 92.3647 9.34074 92.9299L10.2185 89.6541ZM0.216656 77.3861L3.48338 78.2614C3.40904 78.7656 3.37054 79.2814 3.37054 79.8062C3.37054 80.4537 3.42914 81.0875 3.54133 81.7026L0.271251 82.5788C0.0933421 81.6931 0 80.7768 0 79.8386C0 79.0017 0.074297 78.1821 0.216656 77.3861ZM6.93553 92.6402C8.61307 95.2261 12.2465 100.239 13.7858 100.239C15.2685 100.239 18.9106 95.5873 20.7827 92.9343C18.8079 94.0368 16.5322 94.6651 14.1099 94.6651C11.4797 94.6651 9.0225 93.9244 6.93553 92.6402ZM14.6489 73.13H13.2229V74.7505H9.98198V76.3709H11.408V82.8527H9.98198V84.4732H13.2229V86.2233H14.6489V84.4732H15.1846L15.2338 84.4671L15.2346 84.467L15.2354 84.4669L15.2373 84.4667L15.2415 84.4662L15.252 84.4647L15.2812 84.4604C15.3041 84.4568 15.334 84.4517 15.3698 84.4447C15.4413 84.4307 15.5377 84.4089 15.651 84.3758C15.8749 84.3103 16.18 84.1962 16.4913 83.9996C17.1435 83.5877 17.7926 82.8233 17.7926 81.5564C17.7926 80.4701 17.316 79.7403 16.7785 79.2815C17.1087 78.8658 17.3388 78.2852 17.3388 77.5052C17.3388 76.3884 16.8687 75.6695 16.3298 75.2497C16.075 75.0512 15.8223 74.9325 15.6327 74.8627C15.5371 74.8274 15.4547 74.8036 15.392 74.7879C15.3606 74.78 15.3338 74.7741 15.3125 74.7698C15.3071 74.7687 15.302 74.7676 15.2972 74.7667C15.2927 74.7659 15.2885 74.7651 15.2846 74.7644L15.2738 74.7624L15.2692 74.7617L15.2671 74.7613L15.2662 74.7612L15.2652 74.761L15.2005 74.7505H14.6489V73.13ZM13.2229 76.3709H15.0368L15.0535 76.3764L15.0614 76.3792L15.0661 76.3809L15.0728 76.3833C15.1445 76.4097 15.2403 76.4551 15.3339 76.528C15.4918 76.651 15.7184 76.9044 15.7184 77.5052C15.7184 78.1031 15.4959 78.3179 15.3631 78.4122C15.2999 78.4569 15.2349 78.4884 15.1778 78.5099H13.2229V76.3709ZM13.2229 80.1952H15.1498L15.1594 80.1985C15.284 80.2415 15.4452 80.3115 15.6012 80.4182C15.8905 80.6162 16.1721 80.9375 16.1721 81.5564C16.1721 82.1691 15.8975 82.458 15.626 82.6295C15.4756 82.7245 15.3188 82.7846 15.1963 82.8205C15.1416 82.8364 15.097 82.8467 15.0671 82.8527H13.2229V80.1952Z" fill="white"/>
</svg>
