<svg width="48" height="79" viewBox="0 0 48 79" fill="none" xmlns="http://www.w3.org/2000/svg">
<g filter="url(#filter0_f)">
<ellipse rx="9.51899" ry="2.03978" transform="matrix(0.866044 -0.499967 0.866044 0.499967 24.0104 63.3075)" fill="#8C4B26"/>
</g>
<path d="M47 26.0286C47 39.7199 36.6991 57.3128 24.5 63.5286C12.3009 69.7443 0 62.5197 0 48.8283C0 35.1369 9.88933 18.999 22.0884 12.7832C34.2876 6.56746 47 12.3372 47 26.0286Z" fill="#2C8D45"/>
<circle r="24.7904" transform="matrix(0.891007 -0.453991 0 1 25.0884 38.5737)" fill="#4BBE68"/>
<path d="M37.2949 24.3376L35.3028 23.2895C35.0296 23.1455 34.6974 23.208 34.3069 23.4763C33.9161 23.745 33.5838 24.1392 33.3107 24.6586L23.7012 42.9409L19.3945 40.6573C19.121 40.5134 18.789 40.5759 18.3985 40.8442C18.0078 41.1128 17.6758 41.5067 17.4023 42.0265L15.4101 45.813C15.1367 46.3327 15 46.8296 15 47.3037C15 47.7774 15.1367 48.0869 15.4101 48.2306L20.7128 51.0203L22.7051 52.0683C22.9784 52.2125 23.3105 52.1499 23.7012 51.8814C24.0917 51.6131 24.4238 51.2186 24.6972 50.6992L26.6895 46.9127L37.2949 26.7551C37.5681 26.2355 37.7051 25.7385 37.7051 25.2644C37.7053 24.7904 37.5681 24.4817 37.2949 24.3376Z" fill="white"/>
<defs>
<filter id="filter0_f" x="5.57764" y="48.4392" width="36.8655" height="29.7365" filterUnits="userSpaceOnUse" color-interpolation-filters="sRGB">
<feFlood flood-opacity="0" result="BackgroundImageFix"/>
<feBlend mode="normal" in="SourceGraphic" in2="BackgroundImageFix" result="shape"/>
<feGaussianBlur stdDeviation="5" result="effect1_foregroundBlur"/>
</filter>
</defs>
</svg>
